G04 Layer_Physical_Order=1*
G04 Layer_Color=255*
%FSLAX25Y25*%
%MOIN*%
G70*
G01*
G75*
%ADD10C,0.01000*%
%ADD11R,0.11811X0.23622*%
%ADD12O,0.03937X0.07874*%
G04:AMPARAMS|DCode=13|XSize=78.74mil|YSize=39.37mil|CornerRadius=0mil|HoleSize=0mil|Usage=FLASHONLY|Rotation=30.000|XOffset=0mil|YOffset=0mil|HoleType=Round|Shape=Rectangle|*
%AMROTATEDRECTD13*
4,1,4,-0.02425,-0.03673,-0.04394,-0.00264,0.02425,0.03673,0.04394,0.00264,-0.02425,-0.03673,0.0*
%
%ADD13ROTATEDRECTD13*%

G04:AMPARAMS|DCode=14|XSize=78.74mil|YSize=39.37mil|CornerRadius=0mil|HoleSize=0mil|Usage=FLASHONLY|Rotation=330.000|XOffset=0mil|YOffset=0mil|HoleType=Round|Shape=Rectangle|*
%AMROTATEDRECTD14*
4,1,4,-0.04394,0.00264,-0.02425,0.03673,0.04394,-0.00264,0.02425,-0.03673,-0.04394,0.00264,0.0*
%
%ADD14ROTATEDRECTD14*%

%ADD15R,0.03937X0.07874*%
G04:AMPARAMS|DCode=16|XSize=33.47mil|YSize=23.62mil|CornerRadius=0mil|HoleSize=0mil|Usage=FLASHONLY|Rotation=210.000|XOffset=0mil|YOffset=0mil|HoleType=Round|Shape=Rectangle|*
%AMROTATEDRECTD16*
4,1,4,0.00859,0.01860,0.02040,-0.00186,-0.00859,-0.01860,-0.02040,0.00186,0.00859,0.01860,0.0*
%
%ADD16ROTATEDRECTD16*%

%ADD17R,0.02362X0.03347*%
%ADD18R,0.07874X0.03937*%
%ADD19C,0.02000*%
%ADD20C,0.01500*%
%ADD21R,0.22500X0.27500*%
%ADD22R,0.20000X0.37500*%
%ADD23C,0.05906*%
%ADD24R,0.05906X0.05906*%
%ADD25C,0.06000*%
%ADD26P,0.05412X8X22.5*%
%ADD27C,0.05000*%
G36*
X93530Y-98711D02*
X-81815D01*
X-81875Y-98628D01*
X-81932Y-98068D01*
X-81758Y-97807D01*
X-81697Y-97500D01*
Y-70000D01*
X-81758Y-69693D01*
X-81932Y-69432D01*
X-82193Y-69258D01*
X-82500Y-69197D01*
X-105000D01*
X-105307Y-69258D01*
X-105568Y-69432D01*
X-105742Y-69693D01*
X-105803Y-70000D01*
Y-97500D01*
X-105742Y-97807D01*
X-105568Y-98068D01*
X-105625Y-98628D01*
X-105685Y-98711D01*
X-163687D01*
Y97483D01*
X-109508D01*
X-109475Y96983D01*
X-109822Y96937D01*
X-110544Y96638D01*
X-111164Y96162D01*
X-111640Y95542D01*
X-111845Y95049D01*
X-112386D01*
X-112546Y95435D01*
X-112987Y96010D01*
X-113563Y96452D01*
X-114233Y96730D01*
X-114953Y96825D01*
X-115672Y96730D01*
X-116343Y96452D01*
X-116918Y96010D01*
X-117360Y95435D01*
X-117638Y94764D01*
X-117653Y94646D01*
X-118158D01*
X-118173Y94764D01*
X-118451Y95435D01*
X-118893Y96010D01*
X-119468Y96452D01*
X-120139Y96730D01*
X-120858Y96825D01*
X-121578Y96730D01*
X-122248Y96452D01*
X-122824Y96010D01*
X-123266Y95435D01*
X-123543Y94764D01*
X-123559Y94646D01*
X-124063D01*
X-124079Y94764D01*
X-124356Y95435D01*
X-124798Y96010D01*
X-125374Y96452D01*
X-126044Y96730D01*
X-126764Y96825D01*
X-127483Y96730D01*
X-128154Y96452D01*
X-128729Y96010D01*
X-129171Y95435D01*
X-129449Y94764D01*
X-129464Y94646D01*
X-129969D01*
X-129984Y94764D01*
X-130262Y95435D01*
X-130704Y96010D01*
X-131279Y96452D01*
X-131950Y96730D01*
X-132669Y96825D01*
X-133389Y96730D01*
X-134059Y96452D01*
X-134635Y96010D01*
X-135076Y95435D01*
X-135354Y94764D01*
X-135449Y94045D01*
Y90108D01*
X-135354Y89389D01*
X-135076Y88718D01*
X-134635Y88142D01*
X-134059Y87701D01*
X-133389Y87423D01*
X-132669Y87328D01*
X-131950Y87423D01*
X-131279Y87701D01*
X-130704Y88142D01*
X-130262Y88718D01*
X-129984Y89389D01*
X-129969Y89507D01*
X-129464D01*
X-129449Y89389D01*
X-129171Y88718D01*
X-128729Y88142D01*
X-128154Y87701D01*
X-127483Y87423D01*
X-126764Y87328D01*
X-126044Y87423D01*
X-125374Y87701D01*
X-124798Y88142D01*
X-124356Y88718D01*
X-124079Y89389D01*
X-124063Y89507D01*
X-123559D01*
X-123543Y89389D01*
X-123266Y88718D01*
X-122824Y88142D01*
X-122248Y87701D01*
X-121578Y87423D01*
X-120858Y87328D01*
X-120139Y87423D01*
X-119468Y87701D01*
X-118893Y88142D01*
X-118451Y88718D01*
X-118173Y89389D01*
X-118158Y89507D01*
X-117653D01*
X-117638Y89389D01*
X-117360Y88718D01*
X-116918Y88142D01*
X-116343Y87701D01*
X-115672Y87423D01*
X-114953Y87328D01*
X-114233Y87423D01*
X-113563Y87701D01*
X-112987Y88142D01*
X-112546Y88718D01*
X-112386Y89104D01*
X-111845D01*
X-111640Y88611D01*
X-111164Y87991D01*
X-111089Y87933D01*
Y87345D01*
X-111544Y86996D01*
X-112104Y86265D01*
X-112457Y85414D01*
X-112512Y85000D01*
X-105583D01*
X-105637Y85414D01*
X-105990Y86265D01*
X-106551Y86996D01*
X-107006Y87345D01*
Y87933D01*
X-106930Y87991D01*
X-106454Y88611D01*
X-106250Y89104D01*
X-105709D01*
X-105549Y88718D01*
X-105107Y88142D01*
X-104709Y87837D01*
Y80142D01*
X-104590Y79542D01*
X-104250Y79033D01*
X-100108Y74892D01*
X-99600Y74552D01*
X-99000Y74432D01*
X-44000D01*
X-43400Y74552D01*
X-42892Y74892D01*
X-33855Y83928D01*
X-33515Y84437D01*
X-33396Y85037D01*
Y86676D01*
X-33053Y86818D01*
X-32262Y87425D01*
X-31655Y88216D01*
X-31273Y89138D01*
X-31143Y90126D01*
X-31273Y91115D01*
X-31655Y92036D01*
X-32262Y92828D01*
X-33053Y93435D01*
X-33974Y93816D01*
X-34963Y93946D01*
X-35952Y93816D01*
X-36873Y93435D01*
X-37664Y92828D01*
X-38271Y92036D01*
X-38653Y91115D01*
X-38783Y90126D01*
X-38653Y89138D01*
X-38271Y88216D01*
X-37664Y87425D01*
X-36873Y86818D01*
X-36531Y86676D01*
Y85686D01*
X-44649Y77567D01*
X-98351D01*
X-101574Y80791D01*
Y87837D01*
X-101176Y88142D01*
X-100734Y88718D01*
X-100457Y89389D01*
X-100441Y89507D01*
X-99937D01*
X-99921Y89389D01*
X-99643Y88718D01*
X-99202Y88142D01*
X-98626Y87701D01*
X-97956Y87423D01*
X-97236Y87328D01*
X-96517Y87423D01*
X-95846Y87701D01*
X-95271Y88142D01*
X-94829Y88718D01*
X-94551Y89389D01*
X-94536Y89507D01*
X-94031D01*
X-94016Y89389D01*
X-93738Y88718D01*
X-93296Y88142D01*
X-92898Y87837D01*
Y85078D01*
X-92989Y85041D01*
X-93675Y84514D01*
X-94202Y83827D01*
X-94533Y83027D01*
X-94647Y82169D01*
X-94533Y81311D01*
X-94202Y80511D01*
X-93675Y79825D01*
X-92989Y79298D01*
X-92189Y78966D01*
X-91331Y78853D01*
X-90473Y78966D01*
X-89673Y79298D01*
X-88986Y79825D01*
X-88459Y80511D01*
X-88128Y81311D01*
X-88015Y82169D01*
X-88128Y83027D01*
X-88459Y83827D01*
X-88986Y84514D01*
X-89673Y85041D01*
X-89763Y85078D01*
Y87837D01*
X-89365Y88142D01*
X-88924Y88718D01*
X-88646Y89389D01*
X-88551Y90108D01*
Y94045D01*
X-88646Y94764D01*
X-88924Y95435D01*
X-89365Y96010D01*
X-89941Y96452D01*
X-90611Y96730D01*
X-91331Y96825D01*
X-92050Y96730D01*
X-92721Y96452D01*
X-93296Y96010D01*
X-93738Y95435D01*
X-94016Y94764D01*
X-94031Y94646D01*
X-94536D01*
X-94551Y94764D01*
X-94829Y95435D01*
X-95271Y96010D01*
X-95846Y96452D01*
X-96517Y96730D01*
X-97236Y96825D01*
X-97956Y96730D01*
X-98626Y96452D01*
X-99202Y96010D01*
X-99643Y95435D01*
X-99921Y94764D01*
X-99937Y94646D01*
X-100441D01*
X-100457Y94764D01*
X-100734Y95435D01*
X-101176Y96010D01*
X-101752Y96452D01*
X-102422Y96730D01*
X-103142Y96825D01*
X-103861Y96730D01*
X-104532Y96452D01*
X-105107Y96010D01*
X-105549Y95435D01*
X-105709Y95049D01*
X-106250D01*
X-106454Y95542D01*
X-106930Y96162D01*
X-107550Y96638D01*
X-108272Y96937D01*
X-108619Y96983D01*
X-108587Y97483D01*
X93530D01*
Y-98711D01*
D02*
G37*
%LPC*%
G36*
X70669Y-3150D02*
X65158D01*
Y-12598D01*
X65450D01*
X65771Y-12982D01*
X65541Y-14257D01*
X64357Y-18897D01*
X62845Y-23440D01*
X61012Y-27863D01*
X58869Y-32145D01*
X56426Y-36263D01*
X53695Y-40196D01*
X50691Y-43924D01*
X47428Y-47428D01*
X44228Y-50408D01*
X43596Y-50313D01*
X43489Y-50129D01*
X35306Y-54853D01*
X38062Y-59627D01*
X46245Y-54902D01*
X45177Y-53052D01*
X45644Y-52676D01*
X49285Y-49285D01*
X52676Y-45644D01*
X55798Y-41770D01*
X58635Y-37683D01*
X61174Y-33404D01*
X63402Y-28954D01*
X65306Y-24358D01*
X66877Y-19637D01*
X68107Y-14816D01*
X68507Y-12598D01*
X70669D01*
Y-3150D01*
D02*
G37*
G36*
X77559D02*
X72047D01*
Y-12598D01*
X72409D01*
X72730Y-12982D01*
X72237Y-15714D01*
X70932Y-20827D01*
X69265Y-25835D01*
X67246Y-30710D01*
X64883Y-35429D01*
X62191Y-39968D01*
X59181Y-44302D01*
X55870Y-48411D01*
X52274Y-52274D01*
X48411Y-55870D01*
X47613Y-56512D01*
X47122Y-56421D01*
X46934Y-56095D01*
X38751Y-60820D01*
X41507Y-65593D01*
X49690Y-60869D01*
X48643Y-59054D01*
X50131Y-57855D01*
X54131Y-54131D01*
X57855Y-50131D01*
X61283Y-45876D01*
X64400Y-41388D01*
X67189Y-36688D01*
X69635Y-31801D01*
X71726Y-26752D01*
X73452Y-21567D01*
X74803Y-16272D01*
X75466Y-12598D01*
X77559D01*
Y-3150D01*
D02*
G37*
G36*
X-20346Y28941D02*
X-28529Y24216D01*
X-27095Y21732D01*
X-28894Y19306D01*
X-30647Y16381D01*
X-32105Y13298D01*
X-33254Y10087D01*
X-34083Y6780D01*
X-34583Y3406D01*
X-34750Y0D01*
X-34583Y-3406D01*
X-34083Y-6780D01*
X-33254Y-10087D01*
X-32105Y-13298D01*
X-30647Y-16381D01*
X-28894Y-19306D01*
X-27095Y-21732D01*
X-28529Y-24216D01*
X-20346Y-28941D01*
X-17590Y-24167D01*
X-25339Y-19693D01*
X-26709Y-17846D01*
X-28329Y-15142D01*
X-29677Y-12293D01*
X-30739Y-9325D01*
X-31505Y-6267D01*
X-31968Y-3148D01*
X-32122Y0D01*
X-31968Y3148D01*
X-31505Y6267D01*
X-30739Y9325D01*
X-29677Y12293D01*
X-28329Y15142D01*
X-26709Y17846D01*
X-25339Y19693D01*
X-17590Y24167D01*
X-20346Y28941D01*
D02*
G37*
G36*
X-19024Y-39250D02*
X-21780Y-44024D01*
X-18825Y-45730D01*
X-26896Y-59709D01*
X-29851Y-58003D01*
X-32607Y-62776D01*
X-24424Y-67501D01*
X-21668Y-62727D01*
X-24623Y-61021D01*
X-16552Y-47042D01*
X-13597Y-48748D01*
X-10841Y-43975D01*
X-19024Y-39250D01*
D02*
G37*
G36*
X-15579Y-33284D02*
X-18335Y-38057D01*
X-10152Y-42781D01*
X-9414Y-41503D01*
X-7135Y-42797D01*
X-7009Y-43281D01*
X-23960Y-71228D01*
X-25621Y-70283D01*
X-25752Y-69800D01*
X-25113Y-68694D01*
X-33296Y-63970D01*
X-36052Y-68743D01*
X-27869Y-73467D01*
X-27242Y-72381D01*
X-24149Y-74141D01*
X-23923Y-74216D01*
X-23699Y-74297D01*
X-23681Y-74297D01*
X-23663Y-74302D01*
X-23426Y-74285D01*
X-23188Y-74275D01*
X-23171Y-74267D01*
X-23152Y-74266D01*
X-22940Y-74159D01*
X-22724Y-74058D01*
X-22711Y-74045D01*
X-22694Y-74036D01*
X-22539Y-73856D01*
X-22378Y-73681D01*
X-3878Y-43181D01*
X-3871Y-43163D01*
X-3859Y-43148D01*
X-3784Y-42923D01*
X-3703Y-42699D01*
X-3703Y-42680D01*
X-3697Y-42662D01*
X-3715Y-42425D01*
X-3725Y-42188D01*
X-3733Y-42170D01*
X-3735Y-42151D01*
X-3841Y-41939D01*
X-3942Y-41724D01*
X-3956Y-41711D01*
X-3964Y-41694D01*
X-4144Y-41538D01*
X-4319Y-41378D01*
X-4337Y-41371D01*
X-4352Y-41359D01*
X-7793Y-39404D01*
X-7924Y-38922D01*
X-7396Y-38008D01*
X-15579Y-33284D01*
D02*
G37*
G36*
X-12135Y-27317D02*
X-14890Y-32090D01*
X-6708Y-36815D01*
X-6217Y-35965D01*
X-5733Y-35841D01*
X-112Y-39253D01*
X5Y-39739D01*
X-23962Y-78745D01*
X-28922Y-76005D01*
X-29056Y-75524D01*
X-28558Y-74661D01*
X-36741Y-69936D01*
X-39497Y-74710D01*
X-31314Y-79434D01*
X-30548Y-78107D01*
X-24135Y-81649D01*
X-23919Y-81718D01*
X-23707Y-81796D01*
X-23676Y-81795D01*
X-23647Y-81804D01*
X-23421Y-81785D01*
X-23195Y-81777D01*
X-23167Y-81764D01*
X-23136Y-81761D01*
X-22935Y-81657D01*
X-22730Y-81563D01*
X-22709Y-81540D01*
X-22681Y-81526D01*
X-22535Y-81353D01*
X-22382Y-81187D01*
X3118Y-39687D01*
X3120Y-39684D01*
X3122Y-39681D01*
X3208Y-39444D01*
X3296Y-39207D01*
X3296Y-39203D01*
X3297Y-39200D01*
X3286Y-38949D01*
X3277Y-38695D01*
X3275Y-38692D01*
X3275Y-38688D01*
X3169Y-38460D01*
X3063Y-38230D01*
X3060Y-38227D01*
X3059Y-38224D01*
X2873Y-38054D01*
X2687Y-37882D01*
X2684Y-37880D01*
X2681Y-37878D01*
X-4725Y-33381D01*
X-3952Y-32041D01*
X-12135Y-27317D01*
D02*
G37*
G36*
X35623Y-38122D02*
X31361Y-40583D01*
X33164Y-43705D01*
Y-47980D01*
X25572Y-55572D01*
X25287Y-55998D01*
X25187Y-56500D01*
Y-60695D01*
X22246Y-62394D01*
X21813Y-62144D01*
Y-58044D01*
X27904Y-51952D01*
X28189Y-51526D01*
X28289Y-51024D01*
Y-47072D01*
X30092Y-46032D01*
X28123Y-42622D01*
X23861Y-45083D01*
X25664Y-48205D01*
Y-50480D01*
X19572Y-56572D01*
X19287Y-56998D01*
X19187Y-57500D01*
Y-68500D01*
X19287Y-69002D01*
X19572Y-69428D01*
X21572Y-71428D01*
X21998Y-71713D01*
X22500Y-71813D01*
X26914D01*
X27869Y-73467D01*
X36052Y-68743D01*
X33296Y-63970D01*
X25113Y-68694D01*
X25148Y-68754D01*
X24898Y-69187D01*
X23044D01*
X21813Y-67956D01*
Y-63943D01*
X22296Y-63814D01*
X24424Y-67501D01*
X32607Y-62776D01*
X29851Y-58003D01*
X28246Y-58930D01*
X27813Y-58680D01*
Y-57044D01*
X35405Y-49452D01*
X35689Y-49026D01*
X35789Y-48524D01*
Y-42572D01*
X37592Y-41532D01*
X35623Y-38122D01*
D02*
G37*
G36*
X84449Y-3150D02*
X78937D01*
Y-12598D01*
X79361D01*
X79684Y-12980D01*
X79225Y-15759D01*
X78025Y-20907D01*
X76490Y-25965D01*
X74629Y-30912D01*
X72447Y-35727D01*
X69955Y-40389D01*
X67164Y-44877D01*
X64085Y-49174D01*
X60732Y-53260D01*
X57118Y-57118D01*
X53260Y-60732D01*
X51083Y-62519D01*
X50591Y-62429D01*
X50379Y-62062D01*
X42196Y-66787D01*
X44952Y-71560D01*
X53135Y-66836D01*
X52114Y-65068D01*
X54992Y-62706D01*
X58975Y-58975D01*
X62706Y-54992D01*
X66168Y-50773D01*
X69348Y-46336D01*
X72230Y-41702D01*
X74802Y-36889D01*
X77055Y-31917D01*
X78977Y-26809D01*
X80562Y-21586D01*
X81801Y-16271D01*
X82407Y-12598D01*
X84449D01*
Y-3150D01*
D02*
G37*
G36*
X-6708Y36815D02*
X-14890Y32090D01*
X-12135Y27317D01*
X-4401Y31782D01*
X-3148Y31968D01*
X0Y32122D01*
X3148Y31968D01*
X6267Y31505D01*
X9325Y30739D01*
X12293Y29677D01*
X15142Y28329D01*
X17846Y26709D01*
X20378Y24831D01*
X22714Y22714D01*
X24831Y20378D01*
X26709Y17846D01*
X28329Y15142D01*
X29677Y12293D01*
X29724Y12161D01*
Y3150D01*
X35236D01*
Y12598D01*
X32356D01*
X32105Y13298D01*
X30647Y16381D01*
X28894Y19306D01*
X26862Y22045D01*
X24572Y24572D01*
X22045Y26862D01*
X19306Y28894D01*
X16381Y30647D01*
X13298Y32105D01*
X10087Y33254D01*
X6780Y34083D01*
X3406Y34583D01*
X0Y34750D01*
X-3406Y34583D01*
X-5260Y34308D01*
X-6708Y36815D01*
D02*
G37*
G36*
X-1000Y13313D02*
X-24000D01*
X-24502Y13213D01*
X-24928Y12928D01*
X-25881Y11975D01*
X-26165Y11550D01*
X-26265Y11047D01*
Y9961D01*
X-26921D01*
Y5039D01*
X-22984D01*
Y9961D01*
X-23640D01*
Y10503D01*
X-23456Y10687D01*
X-1544D01*
X-1313Y10456D01*
Y-14000D01*
X-1213Y-14502D01*
X-928Y-14928D01*
X9940Y-25797D01*
X9797Y-26142D01*
X9684Y-27000D01*
X9797Y-27858D01*
X10063Y-28499D01*
X9639Y-28783D01*
X-3738Y-15406D01*
X-3684Y-15000D01*
X-3797Y-14142D01*
X-4129Y-13342D01*
X-4655Y-12655D01*
X-5342Y-12128D01*
X-6142Y-11797D01*
X-7000Y-11684D01*
X-7858Y-11797D01*
X-8658Y-12128D01*
X-9345Y-12655D01*
X-9871Y-13342D01*
X-10014Y-13687D01*
X-15678D01*
X-18943Y-10423D01*
X-18752Y-9961D01*
X-17079D01*
Y-8813D01*
X-12598D01*
Y-9646D01*
X-3150D01*
Y-4134D01*
X-12598D01*
Y-6187D01*
X-17079D01*
Y-5039D01*
X-20687D01*
Y-2461D01*
X-17079D01*
Y-1313D01*
X-12598D01*
Y-2756D01*
X-3150D01*
Y2756D01*
X-12598D01*
Y1313D01*
X-17079D01*
Y2461D01*
X-21016D01*
Y1079D01*
X-21516Y872D01*
X-21572Y928D01*
X-21998Y1213D01*
X-22500Y1313D01*
X-22984D01*
Y2461D01*
X-26921D01*
Y-2461D01*
X-23313D01*
Y-5039D01*
X-26921D01*
Y-9961D01*
X-26265D01*
Y-13047D01*
X-26165Y-13550D01*
X-25881Y-13975D01*
X-20928Y-18928D01*
X-20502Y-19213D01*
X-20000Y-19313D01*
X-10963D01*
X-10036Y-20239D01*
X-10203Y-20642D01*
X-10316Y-21500D01*
X-10203Y-22358D01*
X-9871Y-23158D01*
X-9345Y-23845D01*
X-8658Y-24372D01*
X-7858Y-24703D01*
X-7000Y-24816D01*
X-6142Y-24703D01*
X-5739Y-24536D01*
X13615Y-43891D01*
X13550Y-44387D01*
X13408Y-44468D01*
X15377Y-47878D01*
X19639Y-45417D01*
X17670Y-42008D01*
X16259Y-42822D01*
X-3917Y-22646D01*
X-3797Y-22358D01*
X-3684Y-21500D01*
X-3797Y-20642D01*
X-4129Y-19842D01*
X-4655Y-19155D01*
X-5342Y-18629D01*
X-5602Y-18521D01*
Y-17979D01*
X-5342Y-17872D01*
X-5140Y-17716D01*
X11572Y-34428D01*
X11998Y-34713D01*
X12500Y-34813D01*
X17456D01*
X21698Y-39054D01*
X21633Y-39550D01*
X20908Y-39968D01*
X22877Y-43378D01*
X27139Y-40917D01*
X25170Y-37508D01*
X24342Y-37986D01*
X18928Y-32572D01*
X18502Y-32287D01*
X18000Y-32187D01*
X13044D01*
X11217Y-30361D01*
X11501Y-29937D01*
X12142Y-30203D01*
X13000Y-30316D01*
X13858Y-30203D01*
X14203Y-30060D01*
X14572Y-30428D01*
X14998Y-30713D01*
X15500Y-30813D01*
X24537D01*
X28615Y-34891D01*
X28550Y-35387D01*
X28408Y-35468D01*
X30377Y-38878D01*
X34639Y-36417D01*
X32670Y-33008D01*
X31259Y-33822D01*
X26009Y-28572D01*
X25583Y-28287D01*
X25081Y-28187D01*
X16546D01*
X16225Y-27687D01*
X16316Y-27000D01*
X16203Y-26142D01*
X15871Y-25342D01*
X15345Y-24655D01*
X14658Y-24128D01*
X13858Y-23797D01*
X13000Y-23684D01*
X12142Y-23797D01*
X11797Y-23940D01*
X1313Y-13456D01*
Y11000D01*
X1213Y11502D01*
X928Y11928D01*
X-72Y12928D01*
X-498Y13213D01*
X-1000Y13313D01*
D02*
G37*
G36*
X-13597Y48748D02*
X-21780Y44024D01*
X-19024Y39250D01*
X-10841Y43975D01*
Y43975D01*
X-10687Y44325D01*
X-7924Y44938D01*
X-3977Y45458D01*
X0Y45631D01*
X3977Y45458D01*
X7924Y44938D01*
X11810Y44076D01*
X15607Y42879D01*
X19285Y41356D01*
X22816Y39518D01*
X26173Y37379D01*
X29331Y34955D01*
X32266Y32266D01*
X34955Y29331D01*
X37379Y26173D01*
X39518Y22816D01*
X41356Y19285D01*
X42879Y15607D01*
X43731Y12907D01*
X43504Y12598D01*
X43504D01*
Y3150D01*
X49016D01*
Y12598D01*
X46580D01*
X45348Y16505D01*
X43737Y20395D01*
X41793Y24129D01*
X39531Y27680D01*
X36968Y31020D01*
X34124Y34124D01*
X31020Y36968D01*
X27680Y39531D01*
X24129Y41793D01*
X20395Y43737D01*
X16505Y45348D01*
X12490Y46614D01*
X8380Y47525D01*
X4206Y48075D01*
X0Y48259D01*
X-4206Y48075D01*
X-8380Y47525D01*
X-12379Y46639D01*
X-13597Y48748D01*
D02*
G37*
G36*
X-10152Y42781D02*
X-18335Y38057D01*
X-15579Y33284D01*
X-7396Y38008D01*
Y38008D01*
X-7328Y38150D01*
X-3809Y38672D01*
X0Y38859D01*
X3809Y38672D01*
X7581Y38113D01*
X11280Y37186D01*
X14871Y35901D01*
X18318Y34271D01*
X21589Y32310D01*
X24652Y30038D01*
X27478Y27478D01*
X30038Y24652D01*
X32310Y21589D01*
X34271Y18318D01*
X35901Y14871D01*
X36680Y12693D01*
X36614Y12598D01*
X36614D01*
Y3150D01*
X42126D01*
Y12598D01*
X39502D01*
X38329Y15876D01*
X36588Y19557D01*
X34495Y23049D01*
X32070Y26319D01*
X29336Y29336D01*
X26319Y32070D01*
X23049Y34495D01*
X19557Y36588D01*
X15876Y38329D01*
X12043Y39701D01*
X8094Y40690D01*
X4066Y41287D01*
X0Y41487D01*
X-4066Y41287D01*
X-8094Y40690D01*
X-8837Y40504D01*
X-10152Y42781D01*
D02*
G37*
G36*
X12598Y2756D02*
X3150D01*
Y-2756D01*
X12598D01*
Y-2608D01*
X13060Y-2417D01*
X13687Y-3044D01*
Y-11500D01*
X13787Y-12002D01*
X14072Y-12428D01*
X18072Y-16428D01*
X18498Y-16713D01*
X19000Y-16813D01*
X36500D01*
X37002Y-16713D01*
X37428Y-16428D01*
X40298Y-13558D01*
X40583Y-13132D01*
X40683Y-12630D01*
Y-12598D01*
X42126D01*
Y-3150D01*
X36614D01*
Y-12598D01*
X36892D01*
X37083Y-13060D01*
X35956Y-14187D01*
X19544D01*
X16313Y-10956D01*
Y-2500D01*
X16213Y-1998D01*
X15928Y-1572D01*
X13428Y928D01*
X13002Y1213D01*
X12598Y1293D01*
Y2756D01*
D02*
G37*
G36*
X49016Y-3150D02*
X43504D01*
Y-12598D01*
X44947D01*
Y-13696D01*
X39956Y-18687D01*
X14544D01*
X9187Y-13330D01*
Y-9646D01*
X12598D01*
Y-4134D01*
X3150D01*
Y-9646D01*
X6561D01*
Y-13874D01*
X6661Y-14376D01*
X6946Y-14802D01*
X13072Y-20928D01*
X13498Y-21213D01*
X14000Y-21313D01*
X40500D01*
X41002Y-21213D01*
X41428Y-20928D01*
X47188Y-15168D01*
X47473Y-14742D01*
X47572Y-14240D01*
Y-12598D01*
X49016D01*
Y-3150D01*
D02*
G37*
G36*
X-90000Y33303D02*
X-110000D01*
X-110307Y33242D01*
X-110568Y33068D01*
X-110742Y32807D01*
X-110803Y32500D01*
Y-5000D01*
X-110742Y-5307D01*
X-110578Y-5552D01*
X-110597Y-5649D01*
X-110743Y-6052D01*
X-142871D01*
X-151737Y2814D01*
Y7059D01*
X-146866D01*
Y32256D01*
X-160252D01*
Y7059D01*
X-155382D01*
Y2059D01*
X-155382Y2059D01*
X-155243Y1362D01*
X-154848Y770D01*
X-144915Y-9163D01*
X-144915Y-9163D01*
X-144323Y-9558D01*
X-143626Y-9697D01*
X-143626Y-9696D01*
X-84449D01*
Y-12598D01*
X-82407D01*
X-81801Y-16271D01*
X-80562Y-21586D01*
X-78977Y-26809D01*
X-77055Y-31917D01*
X-74802Y-36889D01*
X-72230Y-41702D01*
X-69348Y-46336D01*
X-66168Y-50773D01*
X-62706Y-54992D01*
X-58975Y-58975D01*
X-54992Y-62706D01*
X-52114Y-65068D01*
X-53135Y-66836D01*
X-44952Y-71560D01*
X-42196Y-66787D01*
X-50379Y-62062D01*
X-50591Y-62429D01*
X-51083Y-62519D01*
X-53260Y-60732D01*
X-57118Y-57118D01*
X-60732Y-53260D01*
X-64085Y-49174D01*
X-67164Y-44877D01*
X-69955Y-40389D01*
X-72447Y-35727D01*
X-74629Y-30912D01*
X-76490Y-25965D01*
X-78025Y-20907D01*
X-79225Y-15759D01*
X-79684Y-12980D01*
X-79361Y-12598D01*
X-78937D01*
Y-9696D01*
X-77559D01*
Y-12598D01*
X-75466D01*
X-74803Y-16272D01*
X-73452Y-21567D01*
X-71726Y-26752D01*
X-69635Y-31801D01*
X-67189Y-36688D01*
X-64400Y-41388D01*
X-61283Y-45876D01*
X-57855Y-50131D01*
X-54131Y-54131D01*
X-50131Y-57855D01*
X-48643Y-59054D01*
X-49690Y-60869D01*
X-41507Y-65593D01*
X-38751Y-60820D01*
X-46934Y-56095D01*
X-47122Y-56421D01*
X-47613Y-56512D01*
X-48411Y-55870D01*
X-52274Y-52274D01*
X-55870Y-48411D01*
X-59181Y-44302D01*
X-62191Y-39968D01*
X-64883Y-35429D01*
X-67246Y-30710D01*
X-69265Y-25835D01*
X-70932Y-20827D01*
X-72237Y-15714D01*
X-72730Y-12982D01*
X-72409Y-12598D01*
X-72047D01*
Y-9696D01*
X-70669D01*
Y-12598D01*
X-68507D01*
X-68107Y-14816D01*
X-66877Y-19637D01*
X-65306Y-24358D01*
X-63402Y-28954D01*
X-61174Y-33404D01*
X-58635Y-37683D01*
X-55798Y-41770D01*
X-52676Y-45644D01*
X-49285Y-49285D01*
X-45644Y-52676D01*
X-45177Y-53052D01*
X-46245Y-54902D01*
X-38062Y-59627D01*
X-35306Y-54853D01*
X-43489Y-50129D01*
X-43596Y-50313D01*
X-44228Y-50408D01*
X-47428Y-47428D01*
X-50691Y-43924D01*
X-53695Y-40196D01*
X-56426Y-36263D01*
X-58869Y-32145D01*
X-61012Y-27863D01*
X-62845Y-23440D01*
X-64357Y-18897D01*
X-65541Y-14257D01*
X-65771Y-12982D01*
X-65450Y-12598D01*
X-65158D01*
Y-3150D01*
X-70669D01*
Y-6052D01*
X-72047D01*
Y-3150D01*
X-77559D01*
Y-6052D01*
X-78937D01*
Y-3150D01*
X-84449D01*
Y-6052D01*
X-89257D01*
X-89403Y-5649D01*
X-89422Y-5552D01*
X-89258Y-5307D01*
X-89197Y-5000D01*
Y32500D01*
X-89258Y32807D01*
X-89432Y33068D01*
X-89693Y33242D01*
X-90000Y33303D01*
D02*
G37*
G36*
X12598Y9646D02*
X3150D01*
Y4134D01*
X12598D01*
Y5577D01*
X15566D01*
X19187Y1956D01*
Y-6500D01*
X19287Y-7002D01*
X19572Y-7428D01*
X20946Y-8802D01*
X21372Y-9087D01*
X21874Y-9187D01*
X29724D01*
Y-12598D01*
X35236D01*
Y-3150D01*
X29724D01*
Y-6561D01*
X22418D01*
X21813Y-5956D01*
Y2500D01*
X21713Y3002D01*
X21428Y3428D01*
X17038Y7818D01*
X16613Y8102D01*
X16110Y8202D01*
X12598D01*
Y9646D01*
D02*
G37*
G36*
X-35000Y-86351D02*
X-35976Y-86480D01*
X-36886Y-86857D01*
X-37668Y-87456D01*
X-38267Y-88237D01*
X-38644Y-89147D01*
X-38772Y-90124D01*
X-38644Y-91100D01*
X-38267Y-92010D01*
X-37668Y-92791D01*
X-36886Y-93391D01*
X-35976Y-93767D01*
X-35000Y-93896D01*
X-34024Y-93767D01*
X-33114Y-93391D01*
X-32333Y-92791D01*
X-31733Y-92010D01*
X-31356Y-91100D01*
X-31228Y-90124D01*
X-31356Y-89147D01*
X-31733Y-88237D01*
X-32333Y-87456D01*
X-33114Y-86857D01*
X-34024Y-86480D01*
X-35000Y-86351D01*
D02*
G37*
G36*
X73921Y-90500D02*
X70500D01*
Y-93921D01*
X71032Y-93851D01*
X71993Y-93453D01*
X72819Y-92819D01*
X73453Y-91993D01*
X73851Y-91032D01*
X73921Y-90500D01*
D02*
G37*
G36*
X-15000Y-86351D02*
X-15976Y-86480D01*
X-16886Y-86857D01*
X-17668Y-87456D01*
X-18267Y-88237D01*
X-18644Y-89147D01*
X-18772Y-90124D01*
X-18644Y-91100D01*
X-18267Y-92010D01*
X-17668Y-92791D01*
X-16886Y-93391D01*
X-15976Y-93767D01*
X-15000Y-93896D01*
X-14024Y-93767D01*
X-13114Y-93391D01*
X-12332Y-92791D01*
X-11733Y-92010D01*
X-11356Y-91100D01*
X-11228Y-90124D01*
X-11356Y-89147D01*
X-11733Y-88237D01*
X-12332Y-87456D01*
X-13114Y-86857D01*
X-14024Y-86480D01*
X-15000Y-86351D01*
D02*
G37*
G36*
X-25000D02*
X-25976Y-86480D01*
X-26886Y-86857D01*
X-27667Y-87456D01*
X-28267Y-88237D01*
X-28644Y-89147D01*
X-28772Y-90124D01*
X-28644Y-91100D01*
X-28267Y-92010D01*
X-27667Y-92791D01*
X-26886Y-93391D01*
X-25976Y-93767D01*
X-25000Y-93896D01*
X-24024Y-93767D01*
X-23114Y-93391D01*
X-22332Y-92791D01*
X-21733Y-92010D01*
X-21356Y-91100D01*
X-21228Y-90124D01*
X-21356Y-89147D01*
X-21733Y-88237D01*
X-22332Y-87456D01*
X-23114Y-86857D01*
X-24024Y-86480D01*
X-25000Y-86351D01*
D02*
G37*
G36*
X59500Y-90500D02*
X56047D01*
Y-93953D01*
X59500D01*
Y-90500D01*
D02*
G37*
G36*
X-146866Y-70106D02*
X-160252D01*
Y-95303D01*
X-146866D01*
Y-70106D01*
D02*
G37*
G36*
X69500Y-90500D02*
X66079D01*
X66149Y-91032D01*
X66547Y-91993D01*
X67181Y-92819D01*
X68007Y-93453D01*
X68968Y-93851D01*
X69500Y-93921D01*
Y-90500D01*
D02*
G37*
G36*
X63953D02*
X60500D01*
Y-93953D01*
X63953D01*
Y-90500D01*
D02*
G37*
G36*
X-41260Y-86383D02*
X-48740D01*
Y-93864D01*
X-41260D01*
Y-86383D01*
D02*
G37*
G36*
X35000Y-86351D02*
X34024Y-86480D01*
X33114Y-86857D01*
X32333Y-87456D01*
X31733Y-88237D01*
X31356Y-89147D01*
X31228Y-90124D01*
X31356Y-91100D01*
X31733Y-92010D01*
X32333Y-92791D01*
X33114Y-93391D01*
X34024Y-93767D01*
X35000Y-93896D01*
X35976Y-93767D01*
X36886Y-93391D01*
X37668Y-92791D01*
X38267Y-92010D01*
X38644Y-91100D01*
X38772Y-90124D01*
X38644Y-89147D01*
X38267Y-88237D01*
X37668Y-87456D01*
X36886Y-86857D01*
X35976Y-86480D01*
X35000Y-86351D01*
D02*
G37*
G36*
X20623Y-47122D02*
X16361Y-49583D01*
X18164Y-52705D01*
Y-53480D01*
X16072Y-55572D01*
X15787Y-55998D01*
X15687Y-56500D01*
Y-71000D01*
X15787Y-71502D01*
X16072Y-71928D01*
X21572Y-77428D01*
X21998Y-77713D01*
X22500Y-77813D01*
X30378D01*
X31314Y-79434D01*
X39497Y-74710D01*
X36741Y-69936D01*
X28558Y-74661D01*
X28612Y-74754D01*
X28362Y-75187D01*
X23044D01*
X18313Y-70456D01*
Y-57044D01*
X20404Y-54952D01*
X20689Y-54526D01*
X20789Y-54024D01*
Y-51572D01*
X22592Y-50532D01*
X20623Y-47122D01*
D02*
G37*
G36*
X80000Y-83187D02*
X50624D01*
X50121Y-83287D01*
X49696Y-83572D01*
X46550Y-86717D01*
X45976Y-86480D01*
X45000Y-86351D01*
X44024Y-86480D01*
X43114Y-86857D01*
X42333Y-87456D01*
X41733Y-88237D01*
X41356Y-89147D01*
X41228Y-90124D01*
X41356Y-91100D01*
X41733Y-92010D01*
X42333Y-92791D01*
X43114Y-93391D01*
X44024Y-93767D01*
X45000Y-93896D01*
X45976Y-93767D01*
X46886Y-93391D01*
X47668Y-92791D01*
X48267Y-92010D01*
X48644Y-91100D01*
X48772Y-90124D01*
X48644Y-89147D01*
X48406Y-88574D01*
X51167Y-85813D01*
X55644D01*
X56047Y-86047D01*
X56047Y-86313D01*
Y-89500D01*
X63953D01*
Y-86313D01*
X63953Y-86047D01*
X64356Y-85813D01*
X68474D01*
X68573Y-86313D01*
X68007Y-86547D01*
X67181Y-87181D01*
X66547Y-88007D01*
X66149Y-88968D01*
X66079Y-89500D01*
X73921D01*
X73851Y-88968D01*
X73453Y-88007D01*
X72819Y-87181D01*
X71993Y-86547D01*
X71427Y-86313D01*
X71526Y-85813D01*
X79456D01*
X80856Y-87213D01*
X79213Y-88856D01*
Y-92144D01*
X80856Y-93787D01*
X84144D01*
X85787Y-92144D01*
Y-88856D01*
X84144Y-87213D01*
X83813D01*
Y-87000D01*
X83713Y-86498D01*
X83428Y-86072D01*
X80928Y-83572D01*
X80502Y-83287D01*
X80000Y-83187D01*
D02*
G37*
G36*
X5000Y-86351D02*
X4024Y-86480D01*
X3114Y-86857D01*
X2332Y-87456D01*
X1733Y-88237D01*
X1356Y-89147D01*
X1228Y-90124D01*
X1356Y-91100D01*
X1733Y-92010D01*
X2332Y-92791D01*
X3114Y-93391D01*
X4024Y-93767D01*
X5000Y-93896D01*
X5976Y-93767D01*
X6886Y-93391D01*
X7667Y-92791D01*
X8267Y-92010D01*
X8644Y-91100D01*
X8772Y-90124D01*
X8644Y-89147D01*
X8267Y-88237D01*
X7667Y-87456D01*
X6886Y-86857D01*
X5976Y-86480D01*
X5000Y-86351D01*
D02*
G37*
G36*
X-5000D02*
X-5976Y-86480D01*
X-6886Y-86857D01*
X-7667Y-87456D01*
X-8267Y-88237D01*
X-8644Y-89147D01*
X-8772Y-90124D01*
X-8644Y-91100D01*
X-8267Y-92010D01*
X-7667Y-92791D01*
X-6886Y-93391D01*
X-5976Y-93767D01*
X-5000Y-93896D01*
X-4024Y-93767D01*
X-3114Y-93391D01*
X-2332Y-92791D01*
X-1733Y-92010D01*
X-1356Y-91100D01*
X-1228Y-90124D01*
X-1356Y-89147D01*
X-1733Y-88237D01*
X-2332Y-87456D01*
X-3114Y-86857D01*
X-4024Y-86480D01*
X-5000Y-86351D01*
D02*
G37*
G36*
X25000D02*
X24024Y-86480D01*
X23114Y-86857D01*
X22332Y-87456D01*
X21733Y-88237D01*
X21356Y-89147D01*
X21228Y-90124D01*
X21356Y-91100D01*
X21733Y-92010D01*
X22332Y-92791D01*
X23114Y-93391D01*
X24024Y-93767D01*
X25000Y-93896D01*
X25976Y-93767D01*
X26886Y-93391D01*
X27667Y-92791D01*
X28267Y-92010D01*
X28644Y-91100D01*
X28772Y-90124D01*
X28644Y-89147D01*
X28267Y-88237D01*
X27667Y-87456D01*
X26886Y-86857D01*
X25976Y-86480D01*
X25000Y-86351D01*
D02*
G37*
G36*
X15000D02*
X14024Y-86480D01*
X13114Y-86857D01*
X12332Y-87456D01*
X11733Y-88237D01*
X11356Y-89147D01*
X11228Y-90124D01*
X11356Y-91100D01*
X11733Y-92010D01*
X12332Y-92791D01*
X13114Y-93391D01*
X14024Y-93767D01*
X15000Y-93896D01*
X15976Y-93767D01*
X16886Y-93391D01*
X17668Y-92791D01*
X18267Y-92010D01*
X18644Y-91100D01*
X18772Y-90124D01*
X18644Y-89147D01*
X18267Y-88237D01*
X17668Y-87456D01*
X16886Y-86857D01*
X15976Y-86480D01*
X15000Y-86351D01*
D02*
G37*
G36*
X-14984Y93946D02*
X-15973Y93816D01*
X-16894Y93435D01*
X-17685Y92828D01*
X-18293Y92036D01*
X-18674Y91115D01*
X-18804Y90126D01*
X-18674Y89138D01*
X-18293Y88216D01*
X-17685Y87425D01*
X-16894Y86818D01*
X-15973Y86436D01*
X-14984Y86306D01*
X-13995Y86436D01*
X-13074Y86818D01*
X-12283Y87425D01*
X-11676Y88216D01*
X-11294Y89138D01*
X-11164Y90126D01*
X-11294Y91115D01*
X-11676Y92036D01*
X-12283Y92828D01*
X-13074Y93435D01*
X-13995Y93816D01*
X-14984Y93946D01*
D02*
G37*
G36*
X-24974D02*
X-25962Y93816D01*
X-26884Y93435D01*
X-27675Y92828D01*
X-28282Y92036D01*
X-28664Y91115D01*
X-28794Y90126D01*
X-28664Y89138D01*
X-28282Y88216D01*
X-27675Y87425D01*
X-26884Y86818D01*
X-25962Y86436D01*
X-24974Y86306D01*
X-23985Y86436D01*
X-23064Y86818D01*
X-22273Y87425D01*
X-21666Y88216D01*
X-21284Y89138D01*
X-21154Y90126D01*
X-21284Y91115D01*
X-21666Y92036D01*
X-22273Y92828D01*
X-23064Y93435D01*
X-23985Y93816D01*
X-24974Y93946D01*
D02*
G37*
G36*
X4995D02*
X4006Y93816D01*
X3085Y93435D01*
X2294Y92828D01*
X1687Y92036D01*
X1305Y91115D01*
X1175Y90126D01*
X1305Y89138D01*
X1687Y88216D01*
X2294Y87425D01*
X3085Y86818D01*
X4006Y86436D01*
X4995Y86306D01*
X5984Y86436D01*
X6905Y86818D01*
X7696Y87425D01*
X8303Y88216D01*
X8685Y89138D01*
X8815Y90126D01*
X8685Y91115D01*
X8303Y92036D01*
X7696Y92828D01*
X6905Y93435D01*
X5984Y93816D01*
X4995Y93946D01*
D02*
G37*
G36*
X-4995D02*
X-5984Y93816D01*
X-6905Y93435D01*
X-7696Y92828D01*
X-8303Y92036D01*
X-8685Y91115D01*
X-8815Y90126D01*
X-8685Y89138D01*
X-8303Y88216D01*
X-7696Y87425D01*
X-6905Y86818D01*
X-5984Y86436D01*
X-4995Y86306D01*
X-4006Y86436D01*
X-3085Y86818D01*
X-2294Y87425D01*
X-1687Y88216D01*
X-1305Y89138D01*
X-1175Y90126D01*
X-1305Y91115D01*
X-1687Y92036D01*
X-2294Y92828D01*
X-3085Y93435D01*
X-4006Y93816D01*
X-4995Y93946D01*
D02*
G37*
G36*
X44953D02*
X43964Y93816D01*
X43043Y93435D01*
X42252Y92828D01*
X41644Y92036D01*
X41263Y91115D01*
X41133Y90126D01*
X41263Y89138D01*
X41644Y88216D01*
X42252Y87425D01*
X43043Y86818D01*
X43964Y86436D01*
X44953Y86306D01*
X45941Y86436D01*
X46539Y86684D01*
X49410Y83813D01*
X49203Y83313D01*
X43633D01*
X38406Y88540D01*
X38653Y89138D01*
X38783Y90126D01*
X38653Y91115D01*
X38271Y92036D01*
X37664Y92828D01*
X36873Y93435D01*
X35952Y93816D01*
X34963Y93946D01*
X33974Y93816D01*
X33053Y93435D01*
X32262Y92828D01*
X31655Y92036D01*
X31273Y91115D01*
X31143Y90126D01*
X31273Y89138D01*
X31655Y88216D01*
X32262Y87425D01*
X33053Y86818D01*
X33974Y86436D01*
X34963Y86306D01*
X35952Y86436D01*
X36549Y86684D01*
X42162Y81072D01*
X42587Y80787D01*
X43090Y80687D01*
X79500D01*
X80002Y80787D01*
X80428Y81072D01*
X86069Y86713D01*
X89144D01*
X90787Y88356D01*
Y91644D01*
X89144Y93287D01*
X85856D01*
X84213Y91644D01*
Y88569D01*
X78956Y83313D01*
X75876D01*
X75669Y83813D01*
X78569Y86713D01*
X81644D01*
X83287Y88356D01*
Y91644D01*
X81644Y93287D01*
X78356D01*
X76713Y91644D01*
Y88569D01*
X73956Y85813D01*
X71026D01*
X70927Y86313D01*
X71493Y86547D01*
X72319Y87181D01*
X72953Y88007D01*
X73351Y88968D01*
X73421Y89500D01*
X65579D01*
X65649Y88968D01*
X66047Y88007D01*
X66681Y87181D01*
X67507Y86547D01*
X68073Y86313D01*
X67974Y85813D01*
X63856D01*
X63453Y86047D01*
X63453Y86313D01*
Y89500D01*
X55547D01*
Y86313D01*
X55547Y86047D01*
X55144Y85813D01*
X51123D01*
X48395Y88540D01*
X48643Y89138D01*
X48773Y90126D01*
X48643Y91115D01*
X48261Y92036D01*
X47654Y92828D01*
X46863Y93435D01*
X45941Y93816D01*
X44953Y93946D01*
D02*
G37*
G36*
X-105583Y84000D02*
X-112512D01*
X-112457Y83586D01*
X-112104Y82735D01*
X-111544Y82004D01*
X-111189Y81732D01*
Y81232D01*
X-111496Y80996D01*
X-112057Y80265D01*
X-112410Y79414D01*
X-112464Y79000D01*
X-105536D01*
X-105590Y79414D01*
X-105943Y80265D01*
X-106504Y80996D01*
X-106773Y81203D01*
Y81833D01*
X-106551Y82004D01*
X-105990Y82735D01*
X-105637Y83586D01*
X-105583Y84000D01*
D02*
G37*
G36*
X-41079Y89579D02*
X-44500D01*
Y86158D01*
X-43968Y86228D01*
X-43007Y86626D01*
X-42181Y87260D01*
X-41547Y88086D01*
X-41149Y89047D01*
X-41079Y89579D01*
D02*
G37*
G36*
X-45500D02*
X-48921D01*
X-48851Y89047D01*
X-48453Y88086D01*
X-47819Y87260D01*
X-46993Y86626D01*
X-46032Y86228D01*
X-45500Y86158D01*
Y89579D01*
D02*
G37*
G36*
X70000Y93921D02*
Y90500D01*
X73421D01*
X73351Y91032D01*
X72953Y91993D01*
X72319Y92819D01*
X71493Y93453D01*
X70532Y93851D01*
X70000Y93921D01*
D02*
G37*
G36*
X69000D02*
X68468Y93851D01*
X67507Y93453D01*
X66681Y92819D01*
X66047Y91993D01*
X65649Y91032D01*
X65579Y90500D01*
X69000D01*
Y93921D01*
D02*
G37*
G36*
X-44500Y94000D02*
Y90579D01*
X-41079D01*
X-41149Y91111D01*
X-41547Y92073D01*
X-42181Y92898D01*
X-43007Y93532D01*
X-43968Y93930D01*
X-44500Y94000D01*
D02*
G37*
G36*
X-45500D02*
X-46032Y93930D01*
X-46993Y93532D01*
X-47819Y92898D01*
X-48453Y92073D01*
X-48851Y91111D01*
X-48921Y90579D01*
X-45500D01*
Y94000D01*
D02*
G37*
G36*
X24974Y93946D02*
X23985Y93816D01*
X23064Y93435D01*
X22273Y92828D01*
X21666Y92036D01*
X21284Y91115D01*
X21154Y90126D01*
X21284Y89138D01*
X21666Y88216D01*
X22273Y87425D01*
X23064Y86818D01*
X23985Y86436D01*
X24974Y86306D01*
X25962Y86436D01*
X26884Y86818D01*
X27675Y87425D01*
X28282Y88216D01*
X28664Y89138D01*
X28794Y90126D01*
X28664Y91115D01*
X28282Y92036D01*
X27675Y92828D01*
X26884Y93435D01*
X25962Y93816D01*
X24974Y93946D01*
D02*
G37*
G36*
X14984D02*
X13995Y93816D01*
X13074Y93435D01*
X12283Y92828D01*
X11676Y92036D01*
X11294Y91115D01*
X11164Y90126D01*
X11294Y89138D01*
X11676Y88216D01*
X12283Y87425D01*
X13074Y86818D01*
X13995Y86436D01*
X14984Y86306D01*
X15973Y86436D01*
X16894Y86818D01*
X17685Y87425D01*
X18293Y88216D01*
X18674Y89138D01*
X18804Y90126D01*
X18674Y91115D01*
X18293Y92036D01*
X17685Y92828D01*
X16894Y93435D01*
X15973Y93816D01*
X14984Y93946D01*
D02*
G37*
G36*
X63453Y93953D02*
X60000D01*
Y90500D01*
X63453D01*
Y93953D01*
D02*
G37*
G36*
X59000D02*
X55547D01*
Y90500D01*
X59000D01*
Y93953D01*
D02*
G37*
G36*
X-27235Y40874D02*
X-35418Y36150D01*
X-34201Y34040D01*
X-36968Y31020D01*
X-39531Y27680D01*
X-41793Y24129D01*
X-43737Y20395D01*
X-45348Y16505D01*
X-46614Y12490D01*
X-47525Y8380D01*
X-48075Y4206D01*
X-48259Y0D01*
X-48075Y-4206D01*
X-47525Y-8380D01*
X-46614Y-12490D01*
X-45348Y-16505D01*
X-43737Y-20395D01*
X-41793Y-24129D01*
X-39531Y-27680D01*
X-36968Y-31020D01*
X-34201Y-34040D01*
X-35418Y-36150D01*
X-27235Y-40874D01*
X-24480Y-36101D01*
X-32662Y-31376D01*
X-32662Y-31376D01*
X-33043Y-31418D01*
X-34955Y-29331D01*
X-37379Y-26173D01*
X-39518Y-22816D01*
X-41356Y-19285D01*
X-42879Y-15607D01*
X-44076Y-11810D01*
X-44938Y-7924D01*
X-45458Y-3977D01*
X-45631Y0D01*
X-45458Y3977D01*
X-44938Y7924D01*
X-44076Y11810D01*
X-42879Y15607D01*
X-41356Y19285D01*
X-39518Y22816D01*
X-37379Y26173D01*
X-34955Y29331D01*
X-33043Y31418D01*
X-32662Y31376D01*
X-32662Y31376D01*
X-24480Y36101D01*
X-27235Y40874D01*
D02*
G37*
G36*
X-23791Y34907D02*
X-31974Y30183D01*
X-30648Y27888D01*
X-32070Y26319D01*
X-34495Y23049D01*
X-36588Y19557D01*
X-38329Y15876D01*
X-39701Y12043D01*
X-40690Y8094D01*
X-41287Y4066D01*
X-41487Y0D01*
X-41287Y-4066D01*
X-40690Y-8094D01*
X-39701Y-12043D01*
X-38329Y-15876D01*
X-36588Y-19557D01*
X-34495Y-23049D01*
X-32070Y-26319D01*
X-30648Y-27888D01*
X-31974Y-30183D01*
X-23791Y-34907D01*
X-21035Y-30134D01*
X-29218Y-25410D01*
X-29218Y-25410D01*
X-29340Y-25423D01*
X-30038Y-24652D01*
X-32310Y-21589D01*
X-34271Y-18318D01*
X-35901Y-14871D01*
X-37186Y-11280D01*
X-38113Y-7581D01*
X-38672Y-3809D01*
X-38859Y0D01*
X-38672Y3809D01*
X-38113Y7581D01*
X-37186Y11280D01*
X-35901Y14871D01*
X-34271Y18318D01*
X-32310Y21589D01*
X-30038Y24652D01*
X-29340Y25423D01*
X-29218Y25410D01*
X-29218Y25410D01*
X-21035Y30134D01*
X-23791Y34907D01*
D02*
G37*
G36*
X-91331Y43625D02*
X-92050Y43530D01*
X-92721Y43252D01*
X-93296Y42810D01*
X-93738Y42235D01*
X-94016Y41564D01*
X-94031Y41446D01*
X-94536D01*
X-94551Y41564D01*
X-94829Y42235D01*
X-95271Y42810D01*
X-95846Y43252D01*
X-96517Y43530D01*
X-97236Y43625D01*
X-97956Y43530D01*
X-98626Y43252D01*
X-99202Y42810D01*
X-99643Y42235D01*
X-99921Y41564D01*
X-99937Y41446D01*
X-100441D01*
X-100457Y41564D01*
X-100734Y42235D01*
X-101176Y42810D01*
X-101752Y43252D01*
X-102422Y43530D01*
X-103142Y43625D01*
X-103861Y43530D01*
X-104532Y43252D01*
X-105107Y42810D01*
X-105549Y42235D01*
X-105827Y41564D01*
X-105842Y41446D01*
X-106347D01*
X-106362Y41564D01*
X-106640Y42235D01*
X-107082Y42810D01*
X-107657Y43252D01*
X-108328Y43530D01*
X-109047Y43625D01*
X-109767Y43530D01*
X-110437Y43252D01*
X-111013Y42810D01*
X-111454Y42235D01*
X-111732Y41564D01*
X-111748Y41446D01*
X-112252D01*
X-112268Y41564D01*
X-112546Y42235D01*
X-112987Y42810D01*
X-113563Y43252D01*
X-114233Y43530D01*
X-114953Y43625D01*
X-115672Y43530D01*
X-116343Y43252D01*
X-116918Y42810D01*
X-117360Y42235D01*
X-117638Y41564D01*
X-117653Y41446D01*
X-118158D01*
X-118173Y41564D01*
X-118451Y42235D01*
X-118893Y42810D01*
X-119468Y43252D01*
X-120139Y43530D01*
X-120858Y43625D01*
X-121578Y43530D01*
X-122248Y43252D01*
X-122824Y42810D01*
X-123266Y42235D01*
X-123543Y41564D01*
X-123559Y41446D01*
X-124063D01*
X-124079Y41564D01*
X-124356Y42235D01*
X-124798Y42810D01*
X-125374Y43252D01*
X-126044Y43530D01*
X-126764Y43625D01*
X-127483Y43530D01*
X-128154Y43252D01*
X-128729Y42810D01*
X-129171Y42235D01*
X-129449Y41564D01*
X-129464Y41446D01*
X-129969D01*
X-129984Y41564D01*
X-130262Y42235D01*
X-130704Y42810D01*
X-131279Y43252D01*
X-131950Y43530D01*
X-132669Y43625D01*
X-133389Y43530D01*
X-134059Y43252D01*
X-134635Y42810D01*
X-135076Y42235D01*
X-135354Y41564D01*
X-135449Y40845D01*
Y36908D01*
X-135354Y36189D01*
X-135076Y35518D01*
X-134635Y34942D01*
X-134059Y34501D01*
X-133389Y34223D01*
X-132669Y34128D01*
X-131950Y34223D01*
X-131279Y34501D01*
X-130704Y34942D01*
X-130262Y35518D01*
X-129984Y36189D01*
X-129969Y36307D01*
X-129464D01*
X-129449Y36189D01*
X-129171Y35518D01*
X-128729Y34942D01*
X-128373Y34669D01*
X-128422Y34108D01*
X-129108Y33581D01*
X-129635Y32894D01*
X-129966Y32094D01*
X-130079Y31236D01*
X-129966Y30378D01*
X-129635Y29578D01*
X-129108Y28892D01*
X-128422Y28365D01*
X-127622Y28034D01*
X-126764Y27920D01*
X-125906Y28034D01*
X-125106Y28365D01*
X-124419Y28892D01*
X-123892Y29578D01*
X-123561Y30378D01*
X-123448Y31236D01*
X-123561Y32094D01*
X-123892Y32894D01*
X-124419Y33581D01*
X-125106Y34108D01*
X-125154Y34669D01*
X-124798Y34942D01*
X-124356Y35518D01*
X-124079Y36189D01*
X-124063Y36307D01*
X-123559D01*
X-123543Y36189D01*
X-123266Y35518D01*
X-122824Y34942D01*
X-122248Y34501D01*
X-121578Y34223D01*
X-120858Y34128D01*
X-120139Y34223D01*
X-119468Y34501D01*
X-118893Y34942D01*
X-118451Y35518D01*
X-118173Y36189D01*
X-118158Y36307D01*
X-117653D01*
X-117638Y36189D01*
X-117360Y35518D01*
X-116918Y34942D01*
X-116373Y34524D01*
X-116364Y34308D01*
X-116399Y34007D01*
X-116611Y33919D01*
X-117297Y33392D01*
X-117824Y32705D01*
X-118156Y31905D01*
X-118269Y31047D01*
X-118156Y30189D01*
X-117824Y29389D01*
X-117297Y28703D01*
X-116611Y28176D01*
X-115811Y27845D01*
X-114953Y27731D01*
X-114095Y27845D01*
X-113295Y28176D01*
X-112608Y28703D01*
X-112081Y29389D01*
X-111750Y30189D01*
X-111637Y31047D01*
X-111750Y31905D01*
X-112081Y32705D01*
X-112608Y33392D01*
X-113295Y33919D01*
X-113507Y34007D01*
X-113541Y34308D01*
X-113533Y34524D01*
X-112987Y34942D01*
X-112546Y35518D01*
X-112268Y36189D01*
X-112252Y36307D01*
X-111748D01*
X-111732Y36189D01*
X-111454Y35518D01*
X-111013Y34942D01*
X-110437Y34501D01*
X-109767Y34223D01*
X-109047Y34128D01*
X-108328Y34223D01*
X-107657Y34501D01*
X-107082Y34942D01*
X-106640Y35518D01*
X-106362Y36189D01*
X-106347Y36307D01*
X-105842D01*
X-105827Y36189D01*
X-105549Y35518D01*
X-105107Y34942D01*
X-104532Y34501D01*
X-103861Y34223D01*
X-103142Y34128D01*
X-102422Y34223D01*
X-101752Y34501D01*
X-101176Y34942D01*
X-100734Y35518D01*
X-100457Y36189D01*
X-100441Y36307D01*
X-99937D01*
X-99921Y36189D01*
X-99643Y35518D01*
X-99202Y34942D01*
X-98626Y34501D01*
X-97956Y34223D01*
X-97236Y34128D01*
X-96517Y34223D01*
X-95846Y34501D01*
X-95271Y34942D01*
X-94829Y35518D01*
X-94551Y36189D01*
X-94536Y36307D01*
X-94031D01*
X-94016Y36189D01*
X-93738Y35518D01*
X-93296Y34942D01*
X-92721Y34501D01*
X-92050Y34223D01*
X-91331Y34128D01*
X-90611Y34223D01*
X-89941Y34501D01*
X-89365Y34942D01*
X-88924Y35518D01*
X-88646Y36189D01*
X-88551Y36908D01*
Y40845D01*
X-88646Y41564D01*
X-88924Y42235D01*
X-89365Y42810D01*
X-89941Y43252D01*
X-90611Y43530D01*
X-91331Y43625D01*
D02*
G37*
G36*
X-137500Y92500D02*
X-160000D01*
Y38500D01*
X-137500D01*
Y92500D01*
D02*
G37*
G36*
X41507Y65593D02*
X38751Y60820D01*
X46934Y56095D01*
X47122Y56421D01*
X47613Y56512D01*
X48411Y55870D01*
X52274Y52274D01*
X55870Y48411D01*
X59181Y44302D01*
X62191Y39968D01*
X64883Y35429D01*
X67246Y30710D01*
X69265Y25835D01*
X70932Y20827D01*
X72237Y15714D01*
X72730Y12982D01*
X72409Y12598D01*
X72047D01*
Y3150D01*
X77559D01*
Y12598D01*
X75466D01*
X74803Y16272D01*
X73452Y21567D01*
X71726Y26752D01*
X69635Y31801D01*
X67189Y36688D01*
X64400Y41388D01*
X61283Y45876D01*
X57855Y50131D01*
X54131Y54131D01*
X50131Y57855D01*
X48643Y59054D01*
X49690Y60869D01*
X41507Y65593D01*
D02*
G37*
G36*
X38062Y59627D02*
X35306Y54853D01*
X43489Y50129D01*
X43596Y50313D01*
X44228Y50408D01*
X47428Y47428D01*
X50691Y43924D01*
X53695Y40196D01*
X56426Y36263D01*
X58869Y32145D01*
X61012Y27863D01*
X62845Y23440D01*
X64357Y18897D01*
X65541Y14257D01*
X65771Y12982D01*
X65450Y12598D01*
X65158D01*
Y3150D01*
X70669D01*
Y12598D01*
X68507D01*
X68107Y14816D01*
X66877Y19637D01*
X65306Y24358D01*
X63402Y28954D01*
X61174Y33404D01*
X58635Y37683D01*
X55798Y41770D01*
X52676Y45644D01*
X49285Y49285D01*
X45644Y52676D01*
X45177Y53052D01*
X46245Y54902D01*
X38062Y59627D01*
D02*
G37*
G36*
X-17079Y9961D02*
X-21016D01*
Y5039D01*
X-17079D01*
Y6187D01*
X-12598D01*
Y4134D01*
X-3150D01*
Y9646D01*
X-12598D01*
Y8813D01*
X-17079D01*
Y9961D01*
D02*
G37*
G36*
X44952Y71560D02*
X42196Y66787D01*
X50379Y62062D01*
X50591Y62429D01*
X51083Y62519D01*
X53260Y60732D01*
X57118Y57118D01*
X60732Y53260D01*
X64085Y49174D01*
X67164Y44877D01*
X69955Y40389D01*
X72447Y35727D01*
X74629Y30912D01*
X76490Y25965D01*
X78025Y20907D01*
X79225Y15759D01*
X79684Y12980D01*
X79361Y12598D01*
X78937D01*
Y3150D01*
X84449D01*
Y12598D01*
X82407D01*
X81801Y16271D01*
X80562Y21586D01*
X78977Y26809D01*
X77055Y31917D01*
X74802Y36889D01*
X72230Y41702D01*
X69348Y46336D01*
X66168Y50773D01*
X62706Y54992D01*
X58975Y58975D01*
X54992Y62706D01*
X52114Y65068D01*
X53135Y66836D01*
X44952Y71560D01*
D02*
G37*
G36*
X0Y83404D02*
X-5455Y83225D01*
X-10886Y82690D01*
X-16271Y81801D01*
X-21586Y80562D01*
X-26809Y78977D01*
X-30293Y77666D01*
X-31314Y79434D01*
X-39497Y74710D01*
X-36741Y69936D01*
X-28558Y74661D01*
X-28770Y75028D01*
X-28601Y75498D01*
X-25965Y76490D01*
X-20907Y78025D01*
X-15759Y79225D01*
X-10544Y80086D01*
X-5283Y80604D01*
X0Y80777D01*
X5283Y80604D01*
X10544Y80086D01*
X15759Y79225D01*
X20907Y78025D01*
X25965Y76490D01*
X28601Y75498D01*
X28770Y75028D01*
X28558Y74661D01*
X36741Y69936D01*
X39497Y74710D01*
X31314Y79434D01*
X30293Y77666D01*
X26809Y78977D01*
X21586Y80562D01*
X16271Y81801D01*
X10886Y82690D01*
X5455Y83225D01*
X0Y83404D01*
D02*
G37*
G36*
Y69700D02*
X-4972Y69523D01*
X-9919Y68991D01*
X-14816Y68107D01*
X-19637Y66877D01*
X-23350Y65641D01*
X-24424Y67501D01*
X-32607Y62776D01*
X-29851Y58003D01*
X-21668Y62727D01*
X-21813Y62978D01*
X-21635Y63445D01*
X-18897Y64357D01*
X-14257Y65541D01*
X-9546Y66391D01*
X-4785Y66903D01*
X0Y67074D01*
X4785Y66903D01*
X9546Y66391D01*
X14257Y65541D01*
X18897Y64357D01*
X21635Y63445D01*
X21813Y62978D01*
X21668Y62727D01*
X29851Y58003D01*
X32607Y62776D01*
X24424Y67501D01*
X23350Y65641D01*
X19637Y66877D01*
X14816Y68107D01*
X9919Y68991D01*
X4972Y69523D01*
X0Y69700D01*
D02*
G37*
G36*
X-105536Y78000D02*
X-108500D01*
Y75036D01*
X-108086Y75090D01*
X-107235Y75443D01*
X-106504Y76004D01*
X-105943Y76735D01*
X-105590Y77586D01*
X-105536Y78000D01*
D02*
G37*
G36*
X-109500D02*
X-112464D01*
X-112410Y77586D01*
X-112057Y76735D01*
X-111496Y76004D01*
X-110765Y75443D01*
X-109914Y75090D01*
X-109500Y75036D01*
Y78000D01*
D02*
G37*
G36*
X-41507Y65593D02*
X-49690Y60869D01*
X-48643Y59054D01*
X-50131Y57855D01*
X-54131Y54131D01*
X-57855Y50131D01*
X-61283Y45876D01*
X-64400Y41388D01*
X-67189Y36688D01*
X-69635Y31801D01*
X-71726Y26752D01*
X-73452Y21567D01*
X-74803Y16272D01*
X-75466Y12598D01*
X-77559D01*
Y3150D01*
X-72047D01*
Y12598D01*
X-72409D01*
X-72730Y12982D01*
X-72237Y15714D01*
X-70932Y20827D01*
X-69265Y25835D01*
X-67246Y30710D01*
X-64883Y35429D01*
X-62191Y39968D01*
X-59181Y44302D01*
X-55870Y48411D01*
X-52274Y52274D01*
X-48411Y55870D01*
X-47613Y56512D01*
X-47122Y56421D01*
X-46934Y56095D01*
X-38751Y60820D01*
X-41507Y65593D01*
D02*
G37*
G36*
X-38062Y59627D02*
X-46245Y54902D01*
X-45177Y53052D01*
X-45644Y52676D01*
X-49285Y49285D01*
X-52676Y45644D01*
X-55798Y41770D01*
X-58635Y37683D01*
X-61174Y33404D01*
X-63402Y28954D01*
X-65306Y24358D01*
X-66877Y19637D01*
X-68107Y14816D01*
X-68507Y12598D01*
X-70669D01*
Y3150D01*
X-65158D01*
Y12598D01*
X-65450D01*
X-65771Y12982D01*
X-65541Y14257D01*
X-64357Y18897D01*
X-62845Y23440D01*
X-61012Y27863D01*
X-58869Y32145D01*
X-56426Y36263D01*
X-53695Y40196D01*
X-50691Y43924D01*
X-47428Y47428D01*
X-44228Y50408D01*
X-43596Y50313D01*
X-43489Y50129D01*
X-35306Y54853D01*
X-38062Y59627D01*
D02*
G37*
G36*
X0Y76553D02*
X-5461Y76358D01*
X-10895Y75773D01*
X-16272Y74803D01*
X-21567Y73452D01*
X-26752Y71726D01*
X-26842Y71689D01*
X-27869Y73467D01*
X-36052Y68743D01*
X-33296Y63970D01*
X-25113Y68694D01*
X-25308Y69032D01*
X-25131Y69499D01*
X-20827Y70932D01*
X-15714Y72237D01*
X-10521Y73174D01*
X-5274Y73738D01*
X0Y73926D01*
X5274Y73738D01*
X10521Y73174D01*
X15714Y72237D01*
X20827Y70932D01*
X25131Y69499D01*
X25308Y69032D01*
X25113Y68694D01*
X33296Y63970D01*
X36052Y68743D01*
X27869Y73467D01*
X26842Y71689D01*
X26752Y71726D01*
X21567Y73452D01*
X16272Y74803D01*
X10895Y75773D01*
X5461Y76358D01*
X0Y76553D01*
D02*
G37*
G36*
X-44952Y71560D02*
X-53135Y66836D01*
X-52114Y65068D01*
X-54992Y62706D01*
X-58975Y58975D01*
X-62706Y54992D01*
X-66168Y50773D01*
X-69348Y46336D01*
X-72230Y41702D01*
X-74802Y36889D01*
X-77055Y31917D01*
X-78977Y26809D01*
X-80562Y21586D01*
X-81801Y16271D01*
X-82407Y12598D01*
X-84449D01*
Y3150D01*
X-78937D01*
Y12598D01*
X-79361D01*
X-79684Y12980D01*
X-79225Y15759D01*
X-78025Y20907D01*
X-76490Y25965D01*
X-74629Y30912D01*
X-72447Y35727D01*
X-69955Y40389D01*
X-67164Y44877D01*
X-64085Y49174D01*
X-60732Y53260D01*
X-57118Y57118D01*
X-53260Y60732D01*
X-51083Y62519D01*
X-50591Y62429D01*
X-50379Y62062D01*
X-42196Y66787D01*
X-44952Y71560D01*
D02*
G37*
%LPD*%
D10*
X-67913Y-7874D02*
G03*
X-40776Y-54878I67913J7874D01*
G01*
X-74803Y-7874D02*
G03*
X-44221Y-60844I74803J7874D01*
G01*
X-81693Y-7874D02*
G03*
X-47666Y-66811I81693J7874D01*
G01*
X-23059Y24192D02*
G03*
X-23059Y-24192I23059J-24192D01*
G01*
X-25801Y30762D02*
G03*
X-26504Y-30158I25801J-30762D01*
G01*
X-29949Y36125D02*
G03*
X-29949Y-36125I29949J-36125D01*
G01*
X46260Y7874D02*
G03*
X-16311Y43999I-46260J-7874D01*
G01*
X39370Y7874D02*
G03*
X-12866Y38032I-39370J-7874D01*
G01*
X32480Y7874D02*
G03*
X-10113Y31855I-32480J-7874D01*
G01*
X47666Y-66811D02*
G03*
X81693Y-7874I-47666J66811D01*
G01*
X44221Y-60844D02*
G03*
X74803Y-7874I-44221J60844D01*
G01*
X40776Y-54878D02*
G03*
X67913Y-7874I-40776J54878D01*
G01*
X81693Y7874D02*
G03*
X47666Y66811I-81693J-7874D01*
G01*
X74803Y7874D02*
G03*
X44221Y60844I-74803J-7874D01*
G01*
X67913Y7874D02*
G03*
X40212Y55292I-67913J-7874D01*
G01*
X34027Y74685D02*
G03*
X-34679Y74385I-34027J-74685D01*
G01*
X30582Y68718D02*
G03*
X-30582Y68718I-30582J-68718D01*
G01*
X27138Y62752D02*
G03*
X-28139Y62309I-27138J-62752D01*
G01*
X-40776Y54878D02*
G03*
X-67913Y7874I40776J-54878D01*
G01*
X-44221Y60844D02*
G03*
X-74803Y7874I44221J-60844D01*
G01*
X-47666Y66811D02*
G03*
X-81693Y7874I47666J-66811D01*
G01*
X45000Y-90124D02*
X50624Y-84500D01*
X80000D01*
X82500Y-87000D01*
Y-90500D02*
Y-87000D01*
X-27138Y-62752D02*
X-16311Y-43999D01*
X-23500Y-73000D02*
X-5000Y-42500D01*
X-12866Y-38032D02*
X-5000Y-42500D01*
X-30000Y-69301D02*
X-23500Y-73000D01*
X7874Y-13874D02*
Y-6890D01*
X12500Y0D02*
X15000Y-2500D01*
X7874Y0D02*
X12500D01*
X21874Y-7874D02*
X32480D01*
X20500Y-6500D02*
X21874Y-7874D01*
X20500Y-6500D02*
Y2500D01*
X16110Y6890D02*
X20500Y2500D01*
X7874Y6890D02*
X16110D01*
X15000Y-11500D02*
Y-2500D01*
Y-11500D02*
X19000Y-15500D01*
X36500D01*
X39370Y-12630D01*
Y-7874D01*
X46260Y-14240D02*
Y-7874D01*
X40500Y-20000D02*
X46260Y-14240D01*
X7874Y-13874D02*
X14000Y-20000D01*
X40500D01*
X-9421Y-32066D02*
X2000Y-39000D01*
X-34027Y-74685D02*
X-23500Y-80500D01*
X2000Y-39000D01*
X26976Y-51024D02*
Y-45557D01*
X20500Y-68500D02*
Y-57500D01*
X17000Y-71000D02*
Y-56500D01*
Y-71000D02*
X22500Y-76500D01*
X32212D01*
X34027Y-74685D01*
X20500Y-68500D02*
X22500Y-70500D01*
X28801D01*
X30582Y-68718D01*
X26500Y-62114D02*
X27138Y-62752D01*
X26500Y-62114D02*
Y-56500D01*
X17000D02*
X19476Y-54024D01*
Y-50057D01*
X20500Y-57500D02*
X26976Y-51024D01*
X26500Y-56500D02*
X34476Y-48524D01*
Y-41057D01*
X-19047Y7500D02*
X-8484D01*
X-7874Y6890D01*
X-19047Y0D02*
X-7874D01*
X-19047Y-7500D02*
X-8484D01*
X-7874Y-6890D01*
X25081Y-29500D02*
X31524Y-35943D01*
X15500Y-29500D02*
X25081D01*
X0Y-14000D02*
Y11000D01*
X-1000Y12000D02*
X0Y11000D01*
X-24000Y12000D02*
X-1000D01*
X-24953Y11047D02*
X-24000Y12000D01*
X-24953Y7500D02*
Y11047D01*
X-22500Y0D02*
X-22000Y-500D01*
X-24953Y0D02*
X-22500D01*
X-24953Y-13047D02*
X-20000Y-18000D01*
X-24953Y-13047D02*
Y-7500D01*
X-20000Y-18000D02*
X-10419D01*
X18000Y-33500D02*
X24024Y-39524D01*
Y-40443D02*
Y-39524D01*
X-126764Y31236D02*
Y38876D01*
X-114953Y31047D02*
Y38876D01*
X12500Y-33500D02*
X18000D01*
X-22000Y-9222D02*
Y-500D01*
X-16222Y-15000D02*
X-7000D01*
X-6000D02*
X12500Y-33500D01*
X-7000Y-15000D02*
X-6000D01*
X-22000Y-9222D02*
X-16222Y-15000D01*
X0Y-14000D02*
X13000Y-27000D01*
X15500Y-29500D01*
X-10419Y-18000D02*
X16524Y-44943D01*
X34963Y90126D02*
X43090Y82000D01*
X79500D01*
X87500Y90000D01*
X44953Y90126D02*
X50579Y84500D01*
X74500D01*
X80000Y90000D01*
D11*
X-153559Y-82705D02*
D03*
X-98441D02*
D03*
Y19658D02*
D03*
X-153559D02*
D03*
D12*
X-132669Y92076D02*
D03*
X-126764D02*
D03*
X-120858D02*
D03*
X-114953D02*
D03*
X-109047D02*
D03*
X-103142D02*
D03*
X-97236D02*
D03*
X-91331D02*
D03*
Y38876D02*
D03*
X-97236D02*
D03*
X-103142D02*
D03*
X-109047D02*
D03*
X-114953D02*
D03*
X-120858D02*
D03*
X-126764D02*
D03*
X-132669D02*
D03*
D13*
X-16311Y43999D02*
D03*
X-12866Y38032D02*
D03*
X-9421Y32066D02*
D03*
X-23059Y24192D02*
D03*
X-26504Y30158D02*
D03*
X-29949Y36125D02*
D03*
X34027Y-74685D02*
D03*
X30582Y-68718D02*
D03*
X27138Y-62752D02*
D03*
X40776Y-54878D02*
D03*
X44221Y-60844D02*
D03*
X47666Y-66811D02*
D03*
X-47666Y66811D02*
D03*
X-44221Y60844D02*
D03*
X-40776Y54878D02*
D03*
X-27138Y62752D02*
D03*
X-30582Y68718D02*
D03*
X-34027Y74685D02*
D03*
D14*
X47666Y66811D02*
D03*
X44221Y60844D02*
D03*
X40776Y54878D02*
D03*
X27138Y62752D02*
D03*
X30582Y68718D02*
D03*
X34027Y74685D02*
D03*
X-27138Y-62752D02*
D03*
X-30582Y-68718D02*
D03*
X-34027Y-74685D02*
D03*
X-47666Y-66811D02*
D03*
X-44221Y-60844D02*
D03*
X-40776Y-54878D02*
D03*
X-29949Y-36125D02*
D03*
X-26504Y-30158D02*
D03*
X-23059Y-24192D02*
D03*
X-9421Y-32066D02*
D03*
X-12866Y-38032D02*
D03*
X-16311Y-43999D02*
D03*
D15*
X-81693Y-7874D02*
D03*
X-74803D02*
D03*
X-67913D02*
D03*
Y7874D02*
D03*
X-74803D02*
D03*
X-81693D02*
D03*
X81693Y-7874D02*
D03*
X74803D02*
D03*
X67913D02*
D03*
Y7874D02*
D03*
X74803D02*
D03*
X81693D02*
D03*
X46260Y-7874D02*
D03*
X39370D02*
D03*
X32480D02*
D03*
Y7874D02*
D03*
X39370D02*
D03*
X46260D02*
D03*
D16*
X34476Y-41057D02*
D03*
X31524Y-35943D02*
D03*
X26976Y-45557D02*
D03*
X24024Y-40443D02*
D03*
X19476Y-50057D02*
D03*
X16524Y-44943D02*
D03*
D17*
X-19047Y7500D02*
D03*
X-24953D02*
D03*
X-19047Y0D02*
D03*
X-24953D02*
D03*
X-19047Y-7500D02*
D03*
X-24953D02*
D03*
D18*
X-7874Y-6890D02*
D03*
Y0D02*
D03*
Y6890D02*
D03*
X7874D02*
D03*
Y0D02*
D03*
Y-6890D02*
D03*
D19*
X-74803Y-7874D02*
X-67913D01*
X-143626D02*
X-81693D01*
X-74803D01*
X-153559Y2059D02*
X-143626Y-7874D01*
X-153559Y2059D02*
Y19658D01*
X-109047Y84500D02*
Y92076D01*
Y84500D02*
X-109000Y84453D01*
Y78500D02*
Y84453D01*
D20*
X-91331Y82169D02*
Y92076D01*
X-34963Y85037D02*
Y90126D01*
X-44000Y76000D02*
X-34963Y85037D01*
X-99000Y76000D02*
X-44000D01*
X-103142Y80142D02*
X-99000Y76000D01*
X-103142Y80142D02*
Y92076D01*
D21*
X-93750Y-83750D02*
D03*
D22*
X-100000Y13750D02*
D03*
D23*
X70000Y-90000D02*
D03*
X-25000Y-90124D02*
D03*
X45000D02*
D03*
X35000D02*
D03*
X25000D02*
D03*
X15000D02*
D03*
X5000D02*
D03*
X-5000D02*
D03*
X-15000D02*
D03*
X-35000D02*
D03*
X-45000Y90079D02*
D03*
X69500Y90000D02*
D03*
D24*
X60000Y-90000D02*
D03*
X-45000Y-90124D02*
D03*
X59500Y90000D02*
D03*
D25*
X-34963Y90126D02*
D03*
X-24974D02*
D03*
X-14984D02*
D03*
X-4995D02*
D03*
X4995D02*
D03*
X14984D02*
D03*
X24974D02*
D03*
X34963D02*
D03*
X44953D02*
D03*
D26*
X87500Y90000D02*
D03*
X80000D02*
D03*
X82500Y-90500D02*
D03*
D27*
X-87500Y-74000D02*
D03*
Y-80000D02*
D03*
Y-86000D02*
D03*
Y-92000D02*
D03*
X-126764Y31236D02*
D03*
X-114953Y31047D02*
D03*
X-91331Y82169D02*
D03*
X-7000Y-21500D02*
D03*
Y-15000D02*
D03*
X13000Y-27000D02*
D03*
X-109047Y84500D02*
D03*
X-109000Y78500D02*
D03*
X-106500Y1000D02*
D03*
X-100000D02*
D03*
X-93500D02*
D03*
M02*
