G04 Layer_Color=65535*
%FSLAX25Y25*%
%MOIN*%
G70*
G01*
G75*
%ADD10C,0.01000*%
%ADD29C,0.00787*%
G36*
X-43993Y-15239D02*
Y-15252D01*
Y-15271D01*
Y-15304D01*
Y-15342D01*
Y-15381D01*
X-44000Y-15485D01*
Y-15615D01*
Y-15751D01*
Y-15900D01*
Y-16055D01*
Y-16062D01*
Y-16075D01*
Y-16094D01*
Y-16127D01*
Y-16165D01*
Y-16211D01*
Y-16315D01*
Y-16438D01*
Y-16580D01*
X-43993Y-16723D01*
Y-16878D01*
X-44130Y-16891D01*
X-44227Y-16535D01*
X-44233Y-16522D01*
X-44240Y-16502D01*
X-44266Y-16477D01*
X-44311Y-16464D01*
X-44356D01*
X-44395Y-16457D01*
X-45899D01*
X-46015Y-16464D01*
X-46249Y-16470D01*
X-46352Y-16872D01*
X-46469Y-16891D01*
Y-16885D01*
X-46475Y-16859D01*
X-46482Y-16826D01*
X-46488Y-16775D01*
X-46495Y-16716D01*
X-46508Y-16645D01*
X-46521Y-16567D01*
X-46534Y-16477D01*
X-46566Y-16289D01*
X-46599Y-16088D01*
X-46637Y-15880D01*
X-46683Y-15679D01*
X-46657Y-15647D01*
X-46553D01*
X-46514Y-15653D01*
X-46287D01*
X-46151Y-15660D01*
X-44305D01*
X-44279Y-15647D01*
X-44246Y-15628D01*
X-44227Y-15589D01*
X-44130Y-15239D01*
X-43993Y-15232D01*
Y-15239D01*
D02*
G37*
G36*
X-52491Y-45512D02*
Y-45530D01*
Y-45558D01*
Y-45604D01*
Y-45651D01*
Y-45715D01*
X-52500Y-45873D01*
Y-46048D01*
Y-46261D01*
Y-46492D01*
Y-46742D01*
Y-46751D01*
Y-46770D01*
Y-46807D01*
Y-46862D01*
Y-46918D01*
Y-46992D01*
Y-47158D01*
Y-47352D01*
Y-47565D01*
X-52491Y-47778D01*
Y-47991D01*
X-52694Y-48009D01*
X-52833Y-47473D01*
Y-47464D01*
X-52842Y-47454D01*
X-52861Y-47417D01*
X-52907Y-47380D01*
X-52962Y-47362D01*
X-53388D01*
X-53443Y-47352D01*
X-57171D01*
X-57301Y-47362D01*
X-57615D01*
X-57652Y-47380D01*
X-57699Y-47408D01*
X-57736Y-47464D01*
X-57893Y-48000D01*
X-58096Y-48009D01*
Y-48000D01*
Y-47982D01*
Y-47954D01*
Y-47908D01*
Y-47861D01*
X-58087Y-47796D01*
Y-47649D01*
Y-47464D01*
X-58078Y-47260D01*
Y-47029D01*
Y-46779D01*
Y-46770D01*
Y-46751D01*
Y-46714D01*
Y-46659D01*
Y-46603D01*
Y-46529D01*
Y-46363D01*
X-58087Y-46169D01*
Y-45956D01*
Y-45743D01*
X-58096Y-45530D01*
X-57893Y-45502D01*
X-57745Y-46039D01*
X-57736Y-46058D01*
X-57717Y-46095D01*
X-57680Y-46132D01*
X-57625Y-46150D01*
X-52953D01*
X-52916Y-46132D01*
X-52870Y-46085D01*
X-52851Y-46058D01*
X-52833Y-46011D01*
X-52694Y-45521D01*
X-52491Y-45502D01*
Y-45512D01*
D02*
G37*
G36*
X-46287Y-12666D02*
X-46275Y-12660D01*
X-46249Y-12634D01*
X-46197Y-12601D01*
X-46132Y-12563D01*
X-46054Y-12524D01*
X-45957Y-12491D01*
X-45860Y-12465D01*
X-45750Y-12459D01*
X-45704D01*
X-45672Y-12465D01*
X-45639Y-12472D01*
X-45594Y-12478D01*
X-45490Y-12498D01*
X-45374Y-12537D01*
X-45257Y-12595D01*
X-45192Y-12634D01*
X-45140Y-12679D01*
X-45082Y-12731D01*
X-45030Y-12789D01*
Y-12796D01*
X-45017Y-12802D01*
X-45004Y-12822D01*
X-44991Y-12848D01*
X-44972Y-12880D01*
X-44946Y-12919D01*
X-44920Y-12964D01*
X-44901Y-13016D01*
X-44849Y-13139D01*
X-44804Y-13288D01*
X-44778Y-13457D01*
X-44765Y-13645D01*
Y-13651D01*
Y-13658D01*
Y-13677D01*
Y-13703D01*
X-44771Y-13761D01*
X-44778Y-13839D01*
X-44784Y-13930D01*
X-44804Y-14027D01*
X-44823Y-14131D01*
X-44855Y-14228D01*
X-44849Y-14234D01*
X-44823Y-14247D01*
X-44784Y-14260D01*
X-44739Y-14280D01*
X-44635Y-14319D01*
X-44577Y-14332D01*
X-44525Y-14338D01*
X-44512D01*
X-44486Y-14332D01*
X-44454Y-14306D01*
X-44441Y-14293D01*
X-44428Y-14267D01*
Y-14260D01*
Y-14254D01*
X-44421Y-14228D01*
Y-14196D01*
X-44415Y-14157D01*
Y-14105D01*
X-44408Y-14033D01*
Y-13956D01*
Y-13949D01*
Y-13923D01*
Y-13891D01*
Y-13839D01*
Y-13781D01*
Y-13710D01*
Y-13632D01*
Y-13547D01*
Y-13535D01*
Y-13509D01*
Y-13457D01*
X-44415Y-13398D01*
Y-13327D01*
Y-13256D01*
Y-13100D01*
Y-13094D01*
Y-13081D01*
Y-13055D01*
Y-13023D01*
X-44408Y-12984D01*
Y-12938D01*
X-44395Y-12835D01*
X-44369Y-12718D01*
X-44343Y-12595D01*
X-44298Y-12478D01*
X-44240Y-12375D01*
X-44233Y-12362D01*
X-44207Y-12336D01*
X-44168Y-12290D01*
X-44110Y-12245D01*
X-44032Y-12200D01*
X-43942Y-12154D01*
X-43838Y-12128D01*
X-43715Y-12115D01*
X-43689D01*
X-43663Y-12122D01*
X-43631D01*
X-43585Y-12128D01*
X-43533Y-12141D01*
X-43410Y-12180D01*
X-43345Y-12206D01*
X-43281Y-12245D01*
X-43209Y-12284D01*
X-43138Y-12336D01*
X-43067Y-12394D01*
X-43002Y-12465D01*
X-42937Y-12550D01*
X-42873Y-12640D01*
X-42866Y-12647D01*
X-42860Y-12666D01*
X-42847Y-12692D01*
X-42821Y-12731D01*
X-42801Y-12783D01*
X-42775Y-12841D01*
X-42743Y-12906D01*
X-42717Y-12984D01*
X-42685Y-13061D01*
X-42659Y-13152D01*
X-42626Y-13249D01*
X-42607Y-13353D01*
X-42568Y-13573D01*
X-42561Y-13690D01*
X-42555Y-13813D01*
Y-13820D01*
Y-13839D01*
Y-13865D01*
Y-13904D01*
X-42561Y-13949D01*
Y-14001D01*
X-42574Y-14124D01*
X-42594Y-14260D01*
X-42626Y-14403D01*
X-42665Y-14539D01*
X-42717Y-14669D01*
Y-14675D01*
X-42723Y-14682D01*
X-42749Y-14714D01*
X-42782Y-14766D01*
X-42834Y-14824D01*
X-42892Y-14882D01*
X-42963Y-14928D01*
X-43047Y-14967D01*
X-43093Y-14973D01*
X-43138Y-14980D01*
X-43171D01*
X-43196Y-14973D01*
X-43261Y-14954D01*
X-43345Y-14928D01*
X-43449Y-14876D01*
X-43508Y-14837D01*
X-43566Y-14798D01*
X-43624Y-14746D01*
X-43689Y-14688D01*
X-43754Y-14623D01*
X-43819Y-14545D01*
X-43825Y-14558D01*
X-43838Y-14591D01*
X-43870Y-14636D01*
X-43903Y-14688D01*
X-43955Y-14746D01*
X-44013Y-14792D01*
X-44084Y-14824D01*
X-44123Y-14831D01*
X-44162Y-14837D01*
X-44175D01*
X-44214Y-14831D01*
X-44279Y-14818D01*
X-44363Y-14785D01*
X-44473Y-14733D01*
X-44538Y-14701D01*
X-44609Y-14662D01*
X-44687Y-14610D01*
X-44765Y-14552D01*
X-44855Y-14487D01*
X-44946Y-14416D01*
Y-14422D01*
X-44959Y-14435D01*
X-44972Y-14455D01*
X-44991Y-14481D01*
X-45050Y-14552D01*
X-45134Y-14623D01*
X-45238Y-14701D01*
X-45367Y-14772D01*
X-45439Y-14798D01*
X-45516Y-14818D01*
X-45601Y-14831D01*
X-45691Y-14837D01*
X-45730D01*
X-45763Y-14831D01*
X-45801Y-14824D01*
X-45840Y-14818D01*
X-45944Y-14798D01*
X-46054Y-14759D01*
X-46171Y-14701D01*
X-46229Y-14662D01*
X-46287Y-14617D01*
X-46339Y-14571D01*
X-46391Y-14513D01*
X-46398Y-14507D01*
X-46404Y-14500D01*
X-46417Y-14481D01*
X-46437Y-14455D01*
X-46456Y-14422D01*
X-46475Y-14383D01*
X-46501Y-14332D01*
X-46527Y-14280D01*
X-46553Y-14221D01*
X-46579Y-14157D01*
X-46618Y-14001D01*
X-46650Y-13833D01*
X-46663Y-13632D01*
Y-13625D01*
Y-13606D01*
Y-13573D01*
X-46657Y-13528D01*
Y-13470D01*
X-46650Y-13405D01*
X-46637Y-13327D01*
X-46624Y-13237D01*
Y-13224D01*
X-46618Y-13198D01*
X-46611Y-13152D01*
X-46605Y-13100D01*
X-46592Y-12977D01*
X-46586Y-12919D01*
Y-12867D01*
Y-12861D01*
Y-12848D01*
Y-12822D01*
Y-12789D01*
Y-12751D01*
Y-12699D01*
Y-12588D01*
X-46592Y-12465D01*
Y-12323D01*
Y-12180D01*
X-46599Y-12038D01*
X-46456Y-12018D01*
X-46287Y-12666D01*
D02*
G37*
G36*
X-43993Y23875D02*
Y23862D01*
Y23842D01*
Y23810D01*
Y23777D01*
Y23732D01*
X-44000Y23628D01*
Y23512D01*
Y23376D01*
Y23226D01*
Y23077D01*
Y23071D01*
Y23058D01*
Y23039D01*
Y23006D01*
Y22967D01*
Y22928D01*
Y22825D01*
Y22708D01*
Y22579D01*
X-43993Y22449D01*
Y22319D01*
X-44130Y22306D01*
X-44207Y22585D01*
X-44214Y22598D01*
X-44227Y22617D01*
X-44253Y22643D01*
X-44292Y22656D01*
X-44298D01*
X-44330Y22663D01*
X-45698D01*
X-45756Y22656D01*
X-45827Y22643D01*
X-45912Y22630D01*
X-45989Y22604D01*
X-46067Y22572D01*
X-46132Y22527D01*
X-46138Y22520D01*
X-46158Y22501D01*
X-46184Y22468D01*
X-46210Y22423D01*
X-46236Y22371D01*
X-46262Y22300D01*
X-46281Y22216D01*
X-46287Y22125D01*
Y22112D01*
Y22086D01*
X-46281Y22041D01*
X-46268Y21976D01*
X-46255Y21905D01*
X-46229Y21827D01*
X-46197Y21736D01*
X-46151Y21645D01*
X-44298D01*
X-44272Y21658D01*
X-44240Y21678D01*
X-44214Y21710D01*
X-44130Y22002D01*
X-43993Y22008D01*
Y22002D01*
Y21995D01*
Y21976D01*
Y21950D01*
Y21879D01*
X-44000Y21788D01*
Y21671D01*
Y21542D01*
Y21399D01*
Y21250D01*
Y21244D01*
Y21231D01*
Y21211D01*
Y21179D01*
Y21140D01*
Y21101D01*
Y20991D01*
Y20868D01*
Y20732D01*
X-43993Y20583D01*
Y20434D01*
X-44130Y20414D01*
X-44227Y20777D01*
X-44233Y20790D01*
X-44240Y20809D01*
X-44266Y20829D01*
X-44311Y20842D01*
X-44376D01*
X-44421Y20848D01*
X-45899D01*
X-46009Y20842D01*
X-46249Y20835D01*
X-46352Y20434D01*
X-46469Y20414D01*
Y20421D01*
X-46475Y20440D01*
Y20479D01*
X-46488Y20524D01*
X-46495Y20583D01*
X-46501Y20647D01*
X-46514Y20725D01*
X-46527Y20803D01*
X-46560Y20991D01*
X-46599Y21185D01*
X-46637Y21393D01*
X-46683Y21600D01*
X-46657Y21645D01*
X-46359D01*
X-46365Y21652D01*
X-46372Y21665D01*
X-46391Y21691D01*
X-46411Y21730D01*
X-46430Y21768D01*
X-46462Y21820D01*
X-46488Y21879D01*
X-46521Y21937D01*
X-46579Y22080D01*
X-46624Y22242D01*
X-46663Y22403D01*
X-46670Y22494D01*
X-46676Y22579D01*
Y22585D01*
Y22598D01*
Y22617D01*
X-46670Y22650D01*
X-46663Y22721D01*
X-46650Y22818D01*
X-46618Y22922D01*
X-46579Y23026D01*
X-46527Y23129D01*
X-46449Y23226D01*
X-46437Y23239D01*
X-46411Y23265D01*
X-46359Y23298D01*
X-46287Y23343D01*
X-46197Y23389D01*
X-46093Y23421D01*
X-45963Y23447D01*
X-45821Y23460D01*
X-44305D01*
X-44279Y23473D01*
X-44246Y23499D01*
X-44227Y23538D01*
X-44130Y23875D01*
X-43993Y23881D01*
Y23875D01*
D02*
G37*
G36*
X-46287Y26408D02*
X-46275Y26415D01*
X-46249Y26441D01*
X-46197Y26473D01*
X-46132Y26512D01*
X-46054Y26551D01*
X-45957Y26583D01*
X-45860Y26609D01*
X-45750Y26616D01*
X-45704D01*
X-45672Y26609D01*
X-45639Y26603D01*
X-45594Y26596D01*
X-45490Y26577D01*
X-45374Y26538D01*
X-45257Y26479D01*
X-45192Y26441D01*
X-45140Y26395D01*
X-45082Y26343D01*
X-45030Y26285D01*
Y26279D01*
X-45017Y26272D01*
X-45004Y26253D01*
X-44991Y26227D01*
X-44972Y26194D01*
X-44946Y26155D01*
X-44920Y26110D01*
X-44901Y26058D01*
X-44849Y25935D01*
X-44804Y25786D01*
X-44778Y25618D01*
X-44765Y25430D01*
Y25423D01*
Y25417D01*
Y25397D01*
Y25371D01*
X-44771Y25313D01*
X-44778Y25235D01*
X-44784Y25145D01*
X-44804Y25047D01*
X-44823Y24944D01*
X-44855Y24847D01*
X-44849Y24840D01*
X-44823Y24827D01*
X-44784Y24814D01*
X-44739Y24795D01*
X-44635Y24756D01*
X-44577Y24743D01*
X-44525Y24736D01*
X-44512D01*
X-44486Y24743D01*
X-44454Y24769D01*
X-44441Y24782D01*
X-44428Y24808D01*
Y24814D01*
Y24821D01*
X-44421Y24847D01*
Y24879D01*
X-44415Y24918D01*
Y24970D01*
X-44408Y25041D01*
Y25119D01*
Y25125D01*
Y25151D01*
Y25183D01*
Y25235D01*
Y25294D01*
Y25365D01*
Y25443D01*
Y25527D01*
Y25540D01*
Y25566D01*
Y25618D01*
X-44415Y25676D01*
Y25747D01*
Y25818D01*
Y25974D01*
Y25980D01*
Y25993D01*
Y26019D01*
Y26052D01*
X-44408Y26091D01*
Y26136D01*
X-44395Y26240D01*
X-44369Y26356D01*
X-44343Y26479D01*
X-44298Y26596D01*
X-44240Y26700D01*
X-44233Y26713D01*
X-44207Y26739D01*
X-44168Y26784D01*
X-44110Y26829D01*
X-44032Y26875D01*
X-43942Y26920D01*
X-43838Y26946D01*
X-43715Y26959D01*
X-43689D01*
X-43663Y26952D01*
X-43631D01*
X-43585Y26946D01*
X-43533Y26933D01*
X-43410Y26894D01*
X-43345Y26868D01*
X-43281Y26829D01*
X-43209Y26790D01*
X-43138Y26739D01*
X-43067Y26680D01*
X-43002Y26609D01*
X-42937Y26525D01*
X-42873Y26434D01*
X-42866Y26428D01*
X-42860Y26408D01*
X-42847Y26382D01*
X-42821Y26343D01*
X-42801Y26291D01*
X-42775Y26233D01*
X-42743Y26168D01*
X-42717Y26091D01*
X-42685Y26013D01*
X-42659Y25922D01*
X-42626Y25825D01*
X-42607Y25721D01*
X-42568Y25501D01*
X-42561Y25384D01*
X-42555Y25261D01*
Y25255D01*
Y25235D01*
Y25209D01*
Y25170D01*
X-42561Y25125D01*
Y25073D01*
X-42574Y24950D01*
X-42594Y24814D01*
X-42626Y24671D01*
X-42665Y24535D01*
X-42717Y24406D01*
Y24399D01*
X-42723Y24393D01*
X-42749Y24361D01*
X-42782Y24309D01*
X-42834Y24250D01*
X-42892Y24192D01*
X-42963Y24147D01*
X-43047Y24108D01*
X-43093Y24101D01*
X-43138Y24095D01*
X-43171D01*
X-43196Y24101D01*
X-43261Y24121D01*
X-43345Y24147D01*
X-43449Y24198D01*
X-43508Y24237D01*
X-43566Y24276D01*
X-43624Y24328D01*
X-43689Y24386D01*
X-43754Y24451D01*
X-43819Y24529D01*
X-43825Y24516D01*
X-43838Y24484D01*
X-43870Y24438D01*
X-43903Y24386D01*
X-43955Y24328D01*
X-44013Y24283D01*
X-44084Y24250D01*
X-44123Y24244D01*
X-44162Y24237D01*
X-44175D01*
X-44214Y24244D01*
X-44279Y24257D01*
X-44363Y24289D01*
X-44473Y24341D01*
X-44538Y24373D01*
X-44609Y24412D01*
X-44687Y24464D01*
X-44765Y24522D01*
X-44855Y24587D01*
X-44946Y24659D01*
Y24652D01*
X-44959Y24639D01*
X-44972Y24620D01*
X-44991Y24594D01*
X-45050Y24522D01*
X-45134Y24451D01*
X-45238Y24373D01*
X-45367Y24302D01*
X-45439Y24276D01*
X-45516Y24257D01*
X-45601Y24244D01*
X-45691Y24237D01*
X-45730D01*
X-45763Y24244D01*
X-45801Y24250D01*
X-45840Y24257D01*
X-45944Y24276D01*
X-46054Y24315D01*
X-46171Y24373D01*
X-46229Y24412D01*
X-46287Y24458D01*
X-46339Y24503D01*
X-46391Y24561D01*
X-46398Y24568D01*
X-46404Y24574D01*
X-46417Y24594D01*
X-46437Y24620D01*
X-46456Y24652D01*
X-46475Y24691D01*
X-46501Y24743D01*
X-46527Y24795D01*
X-46553Y24853D01*
X-46579Y24918D01*
X-46618Y25073D01*
X-46650Y25242D01*
X-46663Y25443D01*
Y25449D01*
Y25469D01*
Y25501D01*
X-46657Y25546D01*
Y25605D01*
X-46650Y25669D01*
X-46637Y25747D01*
X-46624Y25838D01*
Y25851D01*
X-46618Y25877D01*
X-46611Y25922D01*
X-46605Y25974D01*
X-46592Y26097D01*
X-46586Y26155D01*
Y26207D01*
Y26214D01*
Y26227D01*
Y26253D01*
Y26285D01*
Y26324D01*
Y26376D01*
Y26486D01*
X-46592Y26609D01*
Y26752D01*
Y26894D01*
X-46599Y27037D01*
X-46456Y27056D01*
X-46287Y26408D01*
D02*
G37*
G36*
X-53971Y-24375D02*
X-53897Y-24385D01*
X-53823Y-24394D01*
X-53638Y-24440D01*
X-53434Y-24514D01*
X-53333Y-24561D01*
X-53231Y-24625D01*
X-53120Y-24690D01*
X-53018Y-24773D01*
X-52925Y-24866D01*
X-52833Y-24977D01*
X-52824Y-24986D01*
X-52815Y-25005D01*
X-52787Y-25041D01*
X-52759Y-25088D01*
X-52722Y-25153D01*
X-52685Y-25227D01*
X-52648Y-25310D01*
X-52602Y-25411D01*
X-52556Y-25523D01*
X-52518Y-25643D01*
X-52482Y-25772D01*
X-52444Y-25920D01*
X-52417Y-26068D01*
X-52389Y-26235D01*
X-52380Y-26410D01*
X-52371Y-26596D01*
Y-26605D01*
Y-26623D01*
Y-26669D01*
Y-26716D01*
X-52380Y-26781D01*
Y-26864D01*
X-52389Y-26947D01*
X-52398Y-27040D01*
X-52426Y-27261D01*
X-52463Y-27502D01*
X-52518Y-27761D01*
X-52592Y-28020D01*
X-52630Y-28048D01*
X-54072Y-27835D01*
X-54110Y-27585D01*
X-52889Y-27280D01*
X-52879Y-27271D01*
X-52870Y-27234D01*
X-52851Y-27169D01*
X-52824Y-27095D01*
X-52796Y-26993D01*
X-52777Y-26891D01*
X-52768Y-26771D01*
X-52759Y-26642D01*
Y-26632D01*
Y-26623D01*
Y-26596D01*
Y-26559D01*
X-52768Y-26466D01*
X-52787Y-26346D01*
X-52824Y-26216D01*
X-52861Y-26087D01*
X-52925Y-25948D01*
X-53009Y-25828D01*
X-53018Y-25818D01*
X-53055Y-25782D01*
X-53110Y-25726D01*
X-53194Y-25670D01*
X-53295Y-25615D01*
X-53407Y-25559D01*
X-53545Y-25523D01*
X-53702Y-25513D01*
X-53740D01*
X-53786Y-25523D01*
X-53841D01*
X-53980Y-25559D01*
X-54045Y-25578D01*
X-54110Y-25615D01*
X-54119D01*
X-54137Y-25633D01*
X-54174Y-25652D01*
X-54211Y-25680D01*
X-54313Y-25763D01*
X-54415Y-25874D01*
X-54424Y-25883D01*
X-54443Y-25902D01*
X-54461Y-25939D01*
X-54498Y-25985D01*
X-54535Y-26041D01*
X-54572Y-26105D01*
X-54655Y-26253D01*
X-54664Y-26263D01*
X-54674Y-26290D01*
X-54692Y-26327D01*
X-54720Y-26383D01*
X-54748Y-26447D01*
X-54785Y-26522D01*
X-54868Y-26679D01*
X-54877Y-26688D01*
X-54887Y-26716D01*
X-54914Y-26771D01*
X-54942Y-26827D01*
X-54979Y-26901D01*
X-55016Y-26984D01*
X-55108Y-27169D01*
X-55118Y-27178D01*
X-55136Y-27206D01*
X-55164Y-27252D01*
X-55201Y-27317D01*
X-55303Y-27456D01*
X-55432Y-27604D01*
X-55441Y-27613D01*
X-55469Y-27632D01*
X-55506Y-27668D01*
X-55562Y-27715D01*
X-55626Y-27761D01*
X-55710Y-27817D01*
X-55885Y-27918D01*
X-55895D01*
X-55932Y-27937D01*
X-55987Y-27955D01*
X-56061Y-27974D01*
X-56154Y-27992D01*
X-56265Y-28011D01*
X-56385Y-28020D01*
X-56515Y-28029D01*
X-56589D01*
X-56644Y-28020D01*
X-56709Y-28011D01*
X-56783Y-28001D01*
X-56959Y-27955D01*
X-57153Y-27891D01*
X-57254Y-27835D01*
X-57356Y-27779D01*
X-57458Y-27715D01*
X-57551Y-27641D01*
X-57643Y-27548D01*
X-57736Y-27446D01*
X-57745Y-27437D01*
X-57754Y-27419D01*
X-57782Y-27382D01*
X-57810Y-27345D01*
X-57837Y-27280D01*
X-57884Y-27215D01*
X-57920Y-27132D01*
X-57967Y-27040D01*
X-58004Y-26938D01*
X-58050Y-26818D01*
X-58087Y-26697D01*
X-58115Y-26568D01*
X-58152Y-26420D01*
X-58170Y-26272D01*
X-58179Y-26105D01*
X-58189Y-25939D01*
Y-25929D01*
Y-25911D01*
Y-25883D01*
Y-25837D01*
X-58179Y-25782D01*
Y-25708D01*
X-58170Y-25633D01*
Y-25550D01*
X-58143Y-25347D01*
X-58115Y-25115D01*
X-58069Y-24866D01*
X-58004Y-24588D01*
X-57967Y-24561D01*
X-56681Y-24810D01*
X-56644Y-25032D01*
X-57717Y-25319D01*
X-57726Y-25328D01*
X-57736Y-25365D01*
X-57754Y-25421D01*
X-57772Y-25486D01*
X-57791Y-25569D01*
X-57800Y-25661D01*
X-57819Y-25763D01*
Y-25874D01*
Y-25892D01*
Y-25948D01*
X-57810Y-26022D01*
X-57791Y-26124D01*
X-57754Y-26235D01*
X-57717Y-26355D01*
X-57652Y-26475D01*
X-57569Y-26596D01*
X-57560Y-26605D01*
X-57523Y-26642D01*
X-57467Y-26688D01*
X-57393Y-26734D01*
X-57301Y-26790D01*
X-57190Y-26836D01*
X-57060Y-26873D01*
X-56921Y-26882D01*
X-56884D01*
X-56838Y-26873D01*
X-56783D01*
X-56653Y-26845D01*
X-56524Y-26790D01*
X-56515D01*
X-56496Y-26771D01*
X-56468Y-26753D01*
X-56422Y-26725D01*
X-56330Y-26642D01*
X-56218Y-26540D01*
X-56209Y-26531D01*
X-56200Y-26512D01*
X-56172Y-26475D01*
X-56144Y-26429D01*
X-56107Y-26373D01*
X-56071Y-26309D01*
X-55987Y-26170D01*
Y-26161D01*
X-55969Y-26133D01*
X-55950Y-26096D01*
X-55923Y-26041D01*
X-55895Y-25976D01*
X-55858Y-25902D01*
X-55774Y-25745D01*
X-55765Y-25735D01*
X-55756Y-25698D01*
X-55728Y-25652D01*
X-55700Y-25596D01*
X-55664Y-25523D01*
X-55626Y-25439D01*
X-55525Y-25254D01*
X-55515Y-25245D01*
X-55497Y-25208D01*
X-55469Y-25162D01*
X-55432Y-25106D01*
X-55330Y-24958D01*
X-55192Y-24810D01*
X-55182Y-24801D01*
X-55155Y-24773D01*
X-55118Y-24746D01*
X-55062Y-24699D01*
X-54997Y-24644D01*
X-54923Y-24598D01*
X-54831Y-24542D01*
X-54738Y-24496D01*
X-54729Y-24487D01*
X-54692Y-24477D01*
X-54637Y-24459D01*
X-54563Y-24431D01*
X-54470Y-24403D01*
X-54359Y-24385D01*
X-54239Y-24375D01*
X-54100Y-24366D01*
X-54026D01*
X-53971Y-24375D01*
D02*
G37*
G36*
X-52491Y-16541D02*
Y-16559D01*
Y-16587D01*
Y-16633D01*
Y-16680D01*
Y-16744D01*
X-52500Y-16892D01*
Y-17059D01*
Y-17253D01*
Y-17466D01*
Y-17679D01*
Y-17688D01*
Y-17706D01*
Y-17734D01*
Y-17780D01*
Y-17836D01*
Y-17891D01*
Y-18039D01*
Y-18206D01*
Y-18382D01*
X-52491Y-18566D01*
Y-18742D01*
X-52685Y-18761D01*
X-52796Y-18382D01*
X-52805Y-18363D01*
X-52824Y-18335D01*
X-52861Y-18298D01*
X-52916Y-18280D01*
X-52925D01*
X-52972Y-18271D01*
X-54923D01*
X-55007Y-18280D01*
X-55108Y-18289D01*
X-55229Y-18317D01*
X-55340Y-18345D01*
X-55451Y-18391D01*
X-55543Y-18455D01*
X-55553Y-18465D01*
X-55580Y-18493D01*
X-55617Y-18530D01*
X-55654Y-18594D01*
X-55691Y-18668D01*
X-55728Y-18761D01*
X-55756Y-18872D01*
X-55765Y-19001D01*
Y-19020D01*
Y-19057D01*
X-55756Y-19121D01*
X-55738Y-19214D01*
X-55710Y-19316D01*
X-55664Y-19436D01*
X-55608Y-19566D01*
X-55534Y-19704D01*
X-55525D01*
X-55497Y-19695D01*
X-55460Y-19686D01*
X-55405Y-19667D01*
X-55340Y-19658D01*
X-55266Y-19649D01*
X-55099Y-19639D01*
X-52925D01*
X-52889Y-19621D01*
X-52842Y-19593D01*
X-52805Y-19547D01*
X-52685Y-19140D01*
X-52491D01*
Y-19149D01*
Y-19159D01*
Y-19186D01*
Y-19223D01*
Y-19316D01*
X-52500Y-19445D01*
Y-19602D01*
Y-19778D01*
Y-19973D01*
Y-20185D01*
Y-20195D01*
Y-20213D01*
Y-20241D01*
Y-20287D01*
Y-20343D01*
Y-20398D01*
Y-20546D01*
Y-20712D01*
Y-20888D01*
X-52491Y-21073D01*
Y-21249D01*
X-52685Y-21258D01*
X-52796Y-20888D01*
X-52805Y-20870D01*
X-52824Y-20842D01*
X-52861Y-20805D01*
X-52916Y-20786D01*
X-52925D01*
X-52972Y-20777D01*
X-54923D01*
X-55007Y-20786D01*
X-55108Y-20796D01*
X-55229Y-20823D01*
X-55340Y-20851D01*
X-55451Y-20898D01*
X-55543Y-20962D01*
X-55553Y-20971D01*
X-55580Y-20999D01*
X-55617Y-21036D01*
X-55654Y-21101D01*
X-55691Y-21175D01*
X-55728Y-21268D01*
X-55756Y-21378D01*
X-55765Y-21508D01*
Y-21517D01*
Y-21564D01*
X-55756Y-21619D01*
X-55738Y-21702D01*
X-55719Y-21795D01*
X-55682Y-21906D01*
X-55636Y-22026D01*
X-55571Y-22146D01*
X-52925D01*
X-52889Y-22128D01*
X-52842Y-22100D01*
X-52805Y-22054D01*
X-52685Y-21647D01*
X-52491D01*
Y-21656D01*
Y-21665D01*
Y-21693D01*
Y-21730D01*
Y-21823D01*
X-52500Y-21952D01*
Y-22109D01*
Y-22294D01*
Y-22498D01*
Y-22711D01*
Y-22720D01*
Y-22738D01*
Y-22766D01*
Y-22812D01*
Y-22868D01*
Y-22923D01*
Y-23080D01*
Y-23256D01*
Y-23450D01*
X-52491Y-23663D01*
Y-23876D01*
X-52685Y-23904D01*
X-52824Y-23386D01*
X-52833Y-23367D01*
X-52842Y-23339D01*
X-52879Y-23312D01*
X-52944Y-23293D01*
X-53036D01*
X-53101Y-23284D01*
X-55210D01*
X-55367Y-23293D01*
X-55710Y-23302D01*
X-55858Y-23876D01*
X-56024Y-23904D01*
Y-23895D01*
X-56033Y-23867D01*
Y-23811D01*
X-56052Y-23746D01*
X-56061Y-23663D01*
X-56071Y-23571D01*
X-56089Y-23460D01*
X-56107Y-23349D01*
X-56154Y-23080D01*
X-56209Y-22803D01*
X-56265Y-22507D01*
X-56330Y-22211D01*
X-56292Y-22155D01*
X-55867D01*
X-55876Y-22146D01*
X-55885Y-22128D01*
X-55913Y-22091D01*
X-55941Y-22045D01*
X-55969Y-21980D01*
X-56015Y-21915D01*
X-56052Y-21832D01*
X-56098Y-21748D01*
X-56182Y-21545D01*
X-56246Y-21332D01*
X-56302Y-21092D01*
X-56311Y-20971D01*
X-56320Y-20851D01*
Y-20842D01*
Y-20823D01*
Y-20786D01*
X-56311Y-20731D01*
X-56302Y-20675D01*
X-56292Y-20602D01*
X-56256Y-20453D01*
X-56191Y-20278D01*
X-56144Y-20195D01*
X-56098Y-20102D01*
X-56033Y-20019D01*
X-55959Y-19945D01*
X-55876Y-19871D01*
X-55784Y-19806D01*
X-55793Y-19797D01*
X-55812Y-19769D01*
X-55830Y-19732D01*
X-55867Y-19677D01*
X-55904Y-19612D01*
X-55950Y-19529D01*
X-56006Y-19445D01*
X-56052Y-19343D01*
X-56154Y-19121D01*
X-56237Y-18881D01*
X-56274Y-18752D01*
X-56302Y-18622D01*
X-56311Y-18483D01*
X-56320Y-18354D01*
Y-18345D01*
Y-18326D01*
Y-18298D01*
X-56311Y-18261D01*
X-56302Y-18159D01*
X-56283Y-18030D01*
X-56237Y-17891D01*
X-56182Y-17743D01*
X-56107Y-17595D01*
X-55997Y-17466D01*
X-55978Y-17447D01*
X-55941Y-17410D01*
X-55867Y-17364D01*
X-55765Y-17299D01*
X-55636Y-17234D01*
X-55488Y-17188D01*
X-55303Y-17151D01*
X-55099Y-17133D01*
X-52935D01*
X-52898Y-17114D01*
X-52851Y-17077D01*
X-52824Y-17022D01*
X-52685Y-16541D01*
X-52491Y-16532D01*
Y-16541D01*
D02*
G37*
G36*
X-52509Y-30832D02*
X-52491Y-30860D01*
Y-30869D01*
Y-30906D01*
Y-30961D01*
Y-31026D01*
Y-31119D01*
Y-31230D01*
Y-31341D01*
X-52500Y-31479D01*
Y-31618D01*
Y-31776D01*
Y-32099D01*
Y-32451D01*
Y-32802D01*
Y-33866D01*
Y-33875D01*
Y-33885D01*
Y-33922D01*
Y-33959D01*
Y-34005D01*
Y-34060D01*
Y-34190D01*
Y-34356D01*
Y-34532D01*
X-52491Y-34726D01*
Y-34930D01*
X-52694Y-34948D01*
X-52833Y-34412D01*
Y-34402D01*
X-52842Y-34393D01*
X-52861Y-34356D01*
X-52907Y-34319D01*
X-52962Y-34301D01*
X-53388D01*
X-53443Y-34291D01*
X-57171D01*
X-57301Y-34301D01*
X-57615D01*
X-57652Y-34319D01*
X-57699Y-34347D01*
X-57736Y-34402D01*
X-57893Y-34939D01*
X-58096Y-34948D01*
Y-34939D01*
Y-34920D01*
Y-34893D01*
Y-34856D01*
Y-34800D01*
X-58087Y-34745D01*
Y-34606D01*
Y-34440D01*
X-58078Y-34264D01*
Y-33885D01*
Y-32867D01*
Y-32858D01*
Y-32821D01*
Y-32774D01*
Y-32700D01*
Y-32608D01*
Y-32506D01*
Y-32386D01*
Y-32247D01*
Y-32109D01*
Y-31951D01*
Y-31785D01*
Y-31609D01*
X-58087Y-31239D01*
Y-30860D01*
X-58059Y-30823D01*
X-56727Y-31073D01*
X-56700Y-31295D01*
X-57671Y-31544D01*
Y-33089D01*
X-55553D01*
Y-32876D01*
Y-32858D01*
Y-32811D01*
Y-32747D01*
Y-32654D01*
Y-32543D01*
Y-32414D01*
Y-32275D01*
Y-32127D01*
Y-32118D01*
Y-32109D01*
X-55571Y-32072D01*
X-55608Y-32025D01*
X-55664Y-31997D01*
X-56209Y-31850D01*
X-56218Y-31591D01*
X-55895D01*
X-55756Y-31600D01*
X-54877D01*
X-54702Y-31591D01*
X-54498D01*
X-54479Y-31850D01*
X-55044Y-31997D01*
X-55053D01*
X-55062Y-32007D01*
X-55099Y-32025D01*
X-55146Y-32062D01*
X-55155Y-32090D01*
X-55164Y-32118D01*
Y-32136D01*
Y-32192D01*
Y-32266D01*
X-55173Y-32368D01*
Y-32488D01*
Y-32617D01*
Y-32886D01*
Y-33089D01*
X-52925D01*
Y-31489D01*
X-53971Y-30980D01*
X-54008Y-30740D01*
X-52509Y-30832D01*
D02*
G37*
G36*
Y-40692D02*
X-52491Y-40720D01*
Y-40729D01*
Y-40767D01*
Y-40822D01*
Y-40887D01*
Y-40979D01*
Y-41090D01*
Y-41201D01*
X-52500Y-41340D01*
Y-41479D01*
Y-41636D01*
Y-41960D01*
Y-42311D01*
Y-42663D01*
Y-43727D01*
Y-43736D01*
Y-43745D01*
Y-43782D01*
Y-43819D01*
Y-43865D01*
Y-43921D01*
Y-44050D01*
Y-44217D01*
Y-44392D01*
X-52491Y-44587D01*
Y-44790D01*
X-52694Y-44809D01*
X-52833Y-44272D01*
Y-44263D01*
X-52842Y-44254D01*
X-52861Y-44217D01*
X-52907Y-44180D01*
X-52962Y-44161D01*
X-53388D01*
X-53443Y-44152D01*
X-57171D01*
X-57301Y-44161D01*
X-57615D01*
X-57652Y-44180D01*
X-57699Y-44208D01*
X-57736Y-44263D01*
X-57893Y-44800D01*
X-58096Y-44809D01*
Y-44800D01*
Y-44781D01*
Y-44753D01*
Y-44716D01*
Y-44661D01*
X-58087Y-44605D01*
Y-44467D01*
Y-44300D01*
X-58078Y-44124D01*
Y-43745D01*
Y-42728D01*
Y-42718D01*
Y-42681D01*
Y-42635D01*
Y-42561D01*
Y-42469D01*
Y-42367D01*
Y-42246D01*
Y-42108D01*
Y-41969D01*
Y-41812D01*
Y-41645D01*
Y-41469D01*
X-58087Y-41100D01*
Y-40720D01*
X-58059Y-40683D01*
X-56727Y-40933D01*
X-56700Y-41155D01*
X-57671Y-41405D01*
Y-42950D01*
X-55553D01*
Y-42737D01*
Y-42718D01*
Y-42672D01*
Y-42607D01*
Y-42515D01*
Y-42404D01*
Y-42274D01*
Y-42136D01*
Y-41987D01*
Y-41978D01*
Y-41969D01*
X-55571Y-41932D01*
X-55608Y-41886D01*
X-55664Y-41858D01*
X-56209Y-41710D01*
X-56218Y-41451D01*
X-55895D01*
X-55756Y-41460D01*
X-54877D01*
X-54702Y-41451D01*
X-54498D01*
X-54479Y-41710D01*
X-55044Y-41858D01*
X-55053D01*
X-55062Y-41867D01*
X-55099Y-41886D01*
X-55146Y-41923D01*
X-55155Y-41951D01*
X-55164Y-41978D01*
Y-41997D01*
Y-42052D01*
Y-42126D01*
X-55173Y-42228D01*
Y-42348D01*
Y-42478D01*
Y-42746D01*
Y-42950D01*
X-52925D01*
Y-41349D01*
X-53971Y-40841D01*
X-54008Y-40600D01*
X-52509Y-40692D01*
D02*
G37*
G36*
Y-35762D02*
X-52491Y-35790D01*
Y-35799D01*
Y-35836D01*
Y-35892D01*
Y-35956D01*
Y-36049D01*
Y-36160D01*
Y-36271D01*
X-52500Y-36410D01*
Y-36549D01*
Y-36706D01*
Y-37029D01*
Y-37381D01*
Y-37732D01*
Y-38796D01*
Y-38805D01*
Y-38815D01*
Y-38852D01*
Y-38889D01*
Y-38935D01*
Y-38991D01*
Y-39120D01*
Y-39287D01*
Y-39462D01*
X-52491Y-39656D01*
Y-39860D01*
X-52694Y-39878D01*
X-52833Y-39342D01*
Y-39333D01*
X-52842Y-39323D01*
X-52861Y-39287D01*
X-52907Y-39250D01*
X-52962Y-39231D01*
X-53388D01*
X-53443Y-39222D01*
X-57171D01*
X-57301Y-39231D01*
X-57615D01*
X-57652Y-39250D01*
X-57699Y-39277D01*
X-57736Y-39333D01*
X-57893Y-39869D01*
X-58096Y-39878D01*
Y-39869D01*
Y-39851D01*
Y-39823D01*
Y-39786D01*
Y-39731D01*
X-58087Y-39675D01*
Y-39536D01*
Y-39370D01*
X-58078Y-39194D01*
Y-38815D01*
Y-37797D01*
Y-37788D01*
Y-37751D01*
Y-37705D01*
Y-37631D01*
Y-37538D01*
Y-37437D01*
Y-37316D01*
Y-37178D01*
Y-37039D01*
Y-36882D01*
Y-36715D01*
Y-36539D01*
X-58087Y-36169D01*
Y-35790D01*
X-58059Y-35753D01*
X-56727Y-36003D01*
X-56700Y-36225D01*
X-57671Y-36474D01*
Y-38019D01*
X-55553D01*
Y-37806D01*
Y-37788D01*
Y-37742D01*
Y-37677D01*
Y-37584D01*
Y-37473D01*
Y-37344D01*
Y-37205D01*
Y-37057D01*
Y-37048D01*
Y-37039D01*
X-55571Y-37002D01*
X-55608Y-36955D01*
X-55664Y-36928D01*
X-56209Y-36780D01*
X-56218Y-36521D01*
X-55895D01*
X-55756Y-36530D01*
X-54877D01*
X-54702Y-36521D01*
X-54498D01*
X-54479Y-36780D01*
X-55044Y-36928D01*
X-55053D01*
X-55062Y-36937D01*
X-55099Y-36955D01*
X-55146Y-36992D01*
X-55155Y-37020D01*
X-55164Y-37048D01*
Y-37067D01*
Y-37122D01*
Y-37196D01*
X-55173Y-37298D01*
Y-37418D01*
Y-37547D01*
Y-37816D01*
Y-38019D01*
X-52925D01*
Y-36419D01*
X-53971Y-35910D01*
X-54008Y-35670D01*
X-52509Y-35762D01*
D02*
G37*
G36*
X-46398Y5918D02*
Y5912D01*
X-46391Y5905D01*
X-46372Y5867D01*
X-46339Y5828D01*
X-46287Y5789D01*
X-46275Y5782D01*
X-46249Y5769D01*
X-46197Y5750D01*
X-46138Y5724D01*
X-46061Y5692D01*
X-45970Y5659D01*
X-45873Y5620D01*
X-45769Y5575D01*
X-45763Y5568D01*
X-45730Y5562D01*
X-45685Y5543D01*
X-45627Y5517D01*
X-45549Y5484D01*
X-45465Y5452D01*
X-45367Y5413D01*
X-45264Y5368D01*
X-45153Y5322D01*
X-45037Y5277D01*
X-44791Y5180D01*
X-44551Y5089D01*
X-44434Y5044D01*
X-44324Y5005D01*
X-44317D01*
X-44305Y4998D01*
X-44285Y4992D01*
X-44259Y4985D01*
X-44227Y4972D01*
X-44188Y4959D01*
X-44091Y4933D01*
X-43981Y4895D01*
X-43851Y4856D01*
X-43715Y4817D01*
X-43572Y4778D01*
X-43566D01*
X-43553Y4771D01*
X-43533Y4765D01*
X-43508Y4758D01*
X-43436Y4739D01*
X-43339Y4720D01*
X-43235Y4694D01*
X-43119Y4661D01*
X-43002Y4635D01*
X-42885Y4609D01*
X-42879D01*
X-42860Y4603D01*
X-42834Y4597D01*
X-42801Y4583D01*
X-42730Y4545D01*
X-42698Y4525D01*
X-42672Y4493D01*
Y4486D01*
X-42659Y4473D01*
X-42652Y4454D01*
X-42639Y4415D01*
X-42626Y4363D01*
X-42620Y4298D01*
X-42607Y4214D01*
Y4117D01*
Y4110D01*
Y4104D01*
Y4065D01*
Y4007D01*
X-42613Y3929D01*
Y3838D01*
X-42620Y3735D01*
X-42633Y3527D01*
X-42756Y3514D01*
Y3521D01*
Y3527D01*
X-42762Y3566D01*
X-42775Y3624D01*
X-42795Y3696D01*
X-42821Y3767D01*
X-42853Y3845D01*
X-42892Y3910D01*
X-42937Y3968D01*
X-42950Y3974D01*
X-42963Y3987D01*
X-42983Y4000D01*
X-43009Y4026D01*
X-43041Y4046D01*
X-43086Y4078D01*
X-43138Y4110D01*
X-43203Y4149D01*
X-43281Y4188D01*
X-43365Y4234D01*
X-43462Y4285D01*
X-43572Y4344D01*
X-43695Y4402D01*
X-43832Y4467D01*
X-43981Y4538D01*
X-44032Y4558D01*
X-44071Y4409D01*
X-44078D01*
X-44084Y4402D01*
X-44104Y4396D01*
X-44130Y4389D01*
X-44194Y4357D01*
X-44279Y4324D01*
X-44389Y4279D01*
X-44518Y4227D01*
X-44661Y4169D01*
X-44816Y4104D01*
X-44978Y4039D01*
X-45160Y3961D01*
X-45341Y3890D01*
X-45529Y3812D01*
X-45912Y3650D01*
X-46099Y3573D01*
X-46281Y3495D01*
X-46287D01*
X-46294Y3488D01*
X-46333Y3463D01*
X-46372Y3424D01*
X-46398Y3365D01*
X-46475Y3106D01*
X-46611Y3093D01*
Y3100D01*
Y3113D01*
Y3132D01*
Y3158D01*
X-46605Y3223D01*
Y3313D01*
Y3417D01*
X-46599Y3527D01*
Y3761D01*
Y3767D01*
Y3780D01*
Y3799D01*
Y3832D01*
Y3864D01*
Y3910D01*
Y4013D01*
X-46605Y4136D01*
Y4279D01*
Y4434D01*
X-46611Y4597D01*
X-46475Y4609D01*
X-46385Y4259D01*
X-46372Y4266D01*
X-46339Y4279D01*
X-46281Y4298D01*
X-46216Y4324D01*
X-46132Y4357D01*
X-46041Y4396D01*
X-45853Y4467D01*
X-45840Y4473D01*
X-45808Y4486D01*
X-45756Y4506D01*
X-45685Y4538D01*
X-45594Y4571D01*
X-45490Y4616D01*
X-45367Y4668D01*
X-45231Y4726D01*
X-45225Y4733D01*
X-45205Y4739D01*
X-45166Y4752D01*
X-45121Y4771D01*
X-45069Y4797D01*
X-45004Y4823D01*
X-44933Y4849D01*
X-44855Y4882D01*
X-44868Y4888D01*
X-44894Y4895D01*
X-44940Y4914D01*
X-44991Y4933D01*
X-45056Y4959D01*
X-45134Y4992D01*
X-45289Y5057D01*
X-45296D01*
X-45315Y5069D01*
X-45348Y5076D01*
X-45393Y5095D01*
X-45445Y5115D01*
X-45503Y5141D01*
X-45575Y5167D01*
X-45652Y5193D01*
X-45821Y5257D01*
X-46009Y5329D01*
X-46197Y5400D01*
X-46391Y5471D01*
X-46475Y5180D01*
X-46611Y5167D01*
Y5180D01*
Y5206D01*
X-46605Y5251D01*
Y5316D01*
Y5393D01*
X-46599Y5478D01*
Y5575D01*
Y5685D01*
Y5698D01*
Y5731D01*
Y5776D01*
Y5841D01*
X-46605Y5918D01*
Y6003D01*
X-46611Y6178D01*
X-46475Y6191D01*
X-46398Y5918D01*
D02*
G37*
G36*
X-43993Y-8402D02*
Y-8415D01*
Y-8435D01*
Y-8467D01*
Y-8500D01*
Y-8545D01*
X-44000Y-8649D01*
Y-8765D01*
Y-8901D01*
Y-9050D01*
Y-9199D01*
Y-9206D01*
Y-9219D01*
Y-9238D01*
Y-9271D01*
Y-9310D01*
Y-9348D01*
Y-9452D01*
Y-9569D01*
Y-9698D01*
X-43993Y-9828D01*
Y-9958D01*
X-44130Y-9971D01*
X-44207Y-9692D01*
X-44214Y-9679D01*
X-44227Y-9659D01*
X-44253Y-9634D01*
X-44292Y-9621D01*
X-44298D01*
X-44330Y-9614D01*
X-45698D01*
X-45756Y-9621D01*
X-45827Y-9634D01*
X-45912Y-9647D01*
X-45989Y-9673D01*
X-46067Y-9705D01*
X-46132Y-9750D01*
X-46138Y-9757D01*
X-46158Y-9776D01*
X-46184Y-9809D01*
X-46210Y-9854D01*
X-46236Y-9906D01*
X-46262Y-9977D01*
X-46281Y-10061D01*
X-46287Y-10152D01*
Y-10165D01*
Y-10191D01*
X-46281Y-10236D01*
X-46268Y-10301D01*
X-46255Y-10372D01*
X-46229Y-10450D01*
X-46197Y-10541D01*
X-46151Y-10632D01*
X-44298D01*
X-44272Y-10619D01*
X-44240Y-10599D01*
X-44214Y-10567D01*
X-44130Y-10275D01*
X-43993Y-10269D01*
Y-10275D01*
Y-10282D01*
Y-10301D01*
Y-10327D01*
Y-10398D01*
X-44000Y-10489D01*
Y-10606D01*
Y-10735D01*
Y-10878D01*
Y-11027D01*
Y-11033D01*
Y-11046D01*
Y-11066D01*
Y-11098D01*
Y-11137D01*
Y-11176D01*
Y-11286D01*
Y-11409D01*
Y-11545D01*
X-43993Y-11694D01*
Y-11843D01*
X-44130Y-11863D01*
X-44227Y-11500D01*
X-44233Y-11487D01*
X-44240Y-11467D01*
X-44266Y-11448D01*
X-44311Y-11435D01*
X-44376D01*
X-44421Y-11429D01*
X-45899D01*
X-46009Y-11435D01*
X-46249Y-11441D01*
X-46352Y-11843D01*
X-46469Y-11863D01*
Y-11856D01*
X-46475Y-11837D01*
Y-11798D01*
X-46488Y-11753D01*
X-46495Y-11694D01*
X-46501Y-11629D01*
X-46514Y-11552D01*
X-46527Y-11474D01*
X-46560Y-11286D01*
X-46599Y-11092D01*
X-46637Y-10884D01*
X-46683Y-10677D01*
X-46657Y-10632D01*
X-46359D01*
X-46365Y-10625D01*
X-46372Y-10612D01*
X-46391Y-10586D01*
X-46411Y-10547D01*
X-46430Y-10508D01*
X-46462Y-10457D01*
X-46488Y-10398D01*
X-46521Y-10340D01*
X-46579Y-10197D01*
X-46624Y-10035D01*
X-46663Y-9873D01*
X-46670Y-9783D01*
X-46676Y-9698D01*
Y-9692D01*
Y-9679D01*
Y-9659D01*
X-46670Y-9627D01*
X-46663Y-9556D01*
X-46650Y-9459D01*
X-46618Y-9355D01*
X-46579Y-9251D01*
X-46527Y-9148D01*
X-46449Y-9050D01*
X-46437Y-9037D01*
X-46411Y-9012D01*
X-46359Y-8979D01*
X-46287Y-8934D01*
X-46197Y-8888D01*
X-46093Y-8856D01*
X-45963Y-8830D01*
X-45821Y-8817D01*
X-44305D01*
X-44279Y-8804D01*
X-44246Y-8778D01*
X-44227Y-8739D01*
X-44130Y-8402D01*
X-43993Y-8396D01*
Y-8402D01*
D02*
G37*
G36*
X-45367Y-5454D02*
Y-7243D01*
X-45315D01*
X-45277Y-7236D01*
X-45231D01*
X-45179Y-7230D01*
X-45056Y-7210D01*
X-44920Y-7178D01*
X-44791Y-7126D01*
X-44661Y-7061D01*
X-44609Y-7016D01*
X-44557Y-6970D01*
Y-6964D01*
X-44544Y-6957D01*
X-44538Y-6938D01*
X-44518Y-6919D01*
X-44499Y-6886D01*
X-44480Y-6847D01*
X-44460Y-6802D01*
X-44434Y-6750D01*
X-44408Y-6692D01*
X-44389Y-6627D01*
X-44369Y-6549D01*
X-44350Y-6471D01*
X-44337Y-6381D01*
X-44324Y-6283D01*
X-44311Y-6180D01*
Y-6063D01*
Y-6057D01*
Y-6050D01*
Y-6011D01*
Y-5953D01*
X-44317Y-5875D01*
X-44324Y-5785D01*
X-44330Y-5687D01*
X-44363Y-5480D01*
X-44181Y-5460D01*
Y-5467D01*
X-44168Y-5486D01*
X-44155Y-5512D01*
X-44143Y-5551D01*
X-44123Y-5597D01*
X-44097Y-5655D01*
X-44078Y-5720D01*
X-44052Y-5791D01*
X-44026Y-5869D01*
X-44006Y-5953D01*
X-43961Y-6141D01*
X-43935Y-6335D01*
X-43922Y-6549D01*
Y-6556D01*
Y-6582D01*
Y-6614D01*
X-43929Y-6666D01*
X-43935Y-6724D01*
X-43942Y-6789D01*
X-43948Y-6867D01*
X-43968Y-6944D01*
X-44006Y-7126D01*
X-44065Y-7314D01*
X-44104Y-7405D01*
X-44149Y-7495D01*
X-44201Y-7586D01*
X-44259Y-7670D01*
X-44266Y-7677D01*
X-44272Y-7690D01*
X-44292Y-7709D01*
X-44324Y-7735D01*
X-44356Y-7767D01*
X-44402Y-7806D01*
X-44454Y-7845D01*
X-44512Y-7884D01*
X-44577Y-7923D01*
X-44648Y-7962D01*
X-44732Y-8001D01*
X-44823Y-8033D01*
X-44914Y-8059D01*
X-45017Y-8078D01*
X-45134Y-8091D01*
X-45251Y-8098D01*
X-45309D01*
X-45354Y-8091D01*
X-45406Y-8085D01*
X-45471Y-8078D01*
X-45542Y-8065D01*
X-45614Y-8046D01*
X-45775Y-7994D01*
X-45860Y-7962D01*
X-45950Y-7923D01*
X-46035Y-7878D01*
X-46119Y-7819D01*
X-46197Y-7754D01*
X-46275Y-7683D01*
X-46281Y-7677D01*
X-46294Y-7664D01*
X-46313Y-7638D01*
X-46339Y-7605D01*
X-46365Y-7566D01*
X-46404Y-7515D01*
X-46437Y-7463D01*
X-46475Y-7398D01*
X-46514Y-7320D01*
X-46547Y-7243D01*
X-46586Y-7158D01*
X-46611Y-7061D01*
X-46637Y-6964D01*
X-46657Y-6854D01*
X-46670Y-6743D01*
X-46676Y-6627D01*
Y-6620D01*
Y-6601D01*
Y-6575D01*
X-46670Y-6536D01*
Y-6484D01*
X-46663Y-6432D01*
X-46637Y-6309D01*
X-46605Y-6167D01*
X-46547Y-6024D01*
X-46475Y-5882D01*
X-46424Y-5817D01*
X-46372Y-5759D01*
X-46365Y-5752D01*
X-46359Y-5746D01*
X-46339Y-5733D01*
X-46313Y-5707D01*
X-46287Y-5687D01*
X-46249Y-5661D01*
X-46203Y-5629D01*
X-46151Y-5603D01*
X-46035Y-5545D01*
X-45886Y-5493D01*
X-45717Y-5460D01*
X-45627Y-5454D01*
X-45529Y-5447D01*
X-45426D01*
X-45367Y-5454D01*
D02*
G37*
G36*
X-44058Y-1825D02*
X-44052Y-1838D01*
X-44045Y-1858D01*
X-44039Y-1884D01*
X-44013Y-1961D01*
X-43993Y-2059D01*
X-43968Y-2169D01*
X-43942Y-2285D01*
X-43929Y-2402D01*
X-43922Y-2512D01*
Y-2519D01*
Y-2525D01*
Y-2544D01*
X-43929Y-2570D01*
X-43942Y-2635D01*
X-43961Y-2713D01*
X-44000Y-2797D01*
X-44052Y-2875D01*
X-44130Y-2953D01*
X-44175Y-2979D01*
X-44227Y-3005D01*
Y-3011D01*
X-44214Y-3024D01*
X-44201Y-3043D01*
X-44181Y-3069D01*
X-44155Y-3102D01*
X-44130Y-3147D01*
X-44078Y-3244D01*
X-44019Y-3367D01*
X-43968Y-3503D01*
X-43935Y-3659D01*
X-43929Y-3737D01*
X-43922Y-3821D01*
Y-3827D01*
Y-3847D01*
Y-3873D01*
X-43929Y-3912D01*
X-43935Y-3957D01*
X-43942Y-4009D01*
X-43968Y-4139D01*
X-44013Y-4275D01*
X-44078Y-4424D01*
X-44117Y-4495D01*
X-44168Y-4566D01*
X-44220Y-4631D01*
X-44285Y-4696D01*
X-44292Y-4702D01*
X-44305Y-4709D01*
X-44324Y-4722D01*
X-44350Y-4748D01*
X-44389Y-4767D01*
X-44428Y-4793D01*
X-44480Y-4825D01*
X-44538Y-4851D01*
X-44667Y-4910D01*
X-44823Y-4961D01*
X-45004Y-5000D01*
X-45095Y-5007D01*
X-45199Y-5013D01*
X-45264D01*
X-45315Y-5007D01*
X-45374Y-5000D01*
X-45439Y-4994D01*
X-45516Y-4981D01*
X-45594Y-4961D01*
X-45769Y-4910D01*
X-45860Y-4877D01*
X-45950Y-4838D01*
X-46041Y-4793D01*
X-46125Y-4735D01*
X-46203Y-4670D01*
X-46281Y-4599D01*
X-46287Y-4592D01*
X-46300Y-4579D01*
X-46313Y-4553D01*
X-46339Y-4521D01*
X-46372Y-4482D01*
X-46404Y-4430D01*
X-46437Y-4365D01*
X-46475Y-4301D01*
X-46508Y-4223D01*
X-46540Y-4132D01*
X-46573Y-4035D01*
X-46605Y-3931D01*
X-46631Y-3821D01*
X-46644Y-3704D01*
X-46657Y-3575D01*
X-46663Y-3439D01*
Y-3432D01*
Y-3406D01*
Y-3367D01*
X-46657Y-3316D01*
Y-3257D01*
X-46650Y-3186D01*
X-46644Y-3108D01*
X-46631Y-3031D01*
X-47169D01*
X-47363Y-3037D01*
X-47564D01*
X-47771Y-3043D01*
X-47888Y-3458D01*
X-48005Y-3478D01*
Y-3471D01*
X-48011Y-3445D01*
X-48018Y-3413D01*
X-48024Y-3361D01*
X-48031Y-3303D01*
X-48044Y-3231D01*
X-48057Y-3154D01*
X-48069Y-3069D01*
X-48102Y-2875D01*
X-48134Y-2674D01*
X-48173Y-2467D01*
X-48219Y-2259D01*
X-48193Y-2221D01*
X-48089D01*
X-48031Y-2227D01*
X-47810D01*
X-47713Y-2233D01*
X-47396D01*
X-47156Y-2240D01*
X-44473D01*
X-44395Y-2233D01*
X-44382D01*
X-44350Y-2221D01*
X-44305Y-2207D01*
X-44266Y-2182D01*
X-44259Y-2175D01*
X-44240Y-2149D01*
X-44220Y-2117D01*
X-44201Y-2065D01*
Y-2059D01*
Y-2052D01*
X-44194Y-2033D01*
Y-2007D01*
Y-1974D01*
X-44188Y-1935D01*
Y-1884D01*
Y-1832D01*
X-44058Y-1819D01*
Y-1825D01*
D02*
G37*
G36*
X-45277Y2963D02*
X-45218Y2957D01*
X-45153Y2944D01*
X-45076Y2931D01*
X-44998Y2912D01*
X-44907Y2892D01*
X-44823Y2860D01*
X-44732Y2827D01*
X-44642Y2782D01*
X-44551Y2730D01*
X-44460Y2672D01*
X-44382Y2601D01*
X-44305Y2523D01*
X-44298Y2516D01*
X-44285Y2503D01*
X-44272Y2478D01*
X-44246Y2445D01*
X-44214Y2400D01*
X-44181Y2341D01*
X-44149Y2277D01*
X-44117Y2205D01*
X-44078Y2121D01*
X-44045Y2030D01*
X-44013Y1933D01*
X-43981Y1823D01*
X-43955Y1706D01*
X-43942Y1583D01*
X-43929Y1447D01*
X-43922Y1305D01*
Y1298D01*
Y1285D01*
Y1253D01*
Y1220D01*
X-43929Y1169D01*
X-43935Y1117D01*
Y1052D01*
X-43948Y981D01*
X-43955Y903D01*
X-43968Y812D01*
X-44000Y624D01*
X-44045Y410D01*
X-44104Y184D01*
X-47389D01*
X-47583Y177D01*
X-47771D01*
X-47888Y-238D01*
X-48005Y-251D01*
Y-244D01*
X-48011Y-218D01*
X-48018Y-186D01*
X-48024Y-134D01*
X-48031Y-76D01*
X-48044Y-4D01*
X-48057Y73D01*
X-48069Y164D01*
X-48102Y352D01*
X-48134Y553D01*
X-48173Y767D01*
X-48219Y968D01*
X-48193Y1000D01*
X-48069D01*
X-48018Y994D01*
X-47707D01*
X-47603Y987D01*
X-46411D01*
Y994D01*
X-46424Y1007D01*
X-46437Y1032D01*
X-46449Y1058D01*
X-46475Y1097D01*
X-46495Y1143D01*
X-46547Y1253D01*
X-46592Y1376D01*
X-46637Y1519D01*
X-46663Y1667D01*
X-46676Y1817D01*
Y1823D01*
Y1843D01*
Y1868D01*
X-46670Y1907D01*
X-46663Y1953D01*
X-46657Y2004D01*
X-46631Y2121D01*
X-46592Y2257D01*
X-46527Y2393D01*
X-46488Y2465D01*
X-46437Y2536D01*
X-46385Y2601D01*
X-46320Y2659D01*
X-46313Y2665D01*
X-46300Y2672D01*
X-46281Y2685D01*
X-46255Y2711D01*
X-46223Y2730D01*
X-46177Y2756D01*
X-46125Y2789D01*
X-46074Y2815D01*
X-46009Y2847D01*
X-45937Y2873D01*
X-45782Y2925D01*
X-45594Y2957D01*
X-45497Y2963D01*
X-45393Y2970D01*
X-45328D01*
X-45277Y2963D01*
D02*
G37*
G36*
X-47538Y19747D02*
X-47493Y19740D01*
X-47447Y19721D01*
X-47396Y19701D01*
X-47344Y19669D01*
X-47292Y19624D01*
X-47285Y19617D01*
X-47272Y19604D01*
X-47253Y19572D01*
X-47234Y19539D01*
X-47214Y19488D01*
X-47195Y19436D01*
X-47182Y19371D01*
X-47175Y19300D01*
Y19293D01*
Y19267D01*
X-47182Y19235D01*
X-47188Y19189D01*
X-47201Y19144D01*
X-47221Y19092D01*
X-47247Y19040D01*
X-47285Y18995D01*
X-47292Y18989D01*
X-47305Y18976D01*
X-47331Y18956D01*
X-47363Y18937D01*
X-47402Y18917D01*
X-47454Y18898D01*
X-47512Y18885D01*
X-47577Y18878D01*
X-47609D01*
X-47648Y18885D01*
X-47694Y18891D01*
X-47745Y18911D01*
X-47797Y18930D01*
X-47849Y18963D01*
X-47894Y19002D01*
X-47901Y19008D01*
X-47914Y19027D01*
X-47933Y19053D01*
X-47953Y19092D01*
X-47972Y19138D01*
X-47992Y19196D01*
X-48005Y19261D01*
X-48011Y19332D01*
Y19339D01*
Y19364D01*
X-48005Y19397D01*
X-47998Y19436D01*
X-47985Y19488D01*
X-47966Y19533D01*
X-47940Y19585D01*
X-47901Y19630D01*
X-47894Y19637D01*
X-47881Y19649D01*
X-47856Y19669D01*
X-47823Y19695D01*
X-47784Y19714D01*
X-47732Y19734D01*
X-47674Y19747D01*
X-47603Y19753D01*
X-47570D01*
X-47538Y19747D01*
D02*
G37*
G36*
X-43993Y20168D02*
Y20155D01*
Y20135D01*
Y20103D01*
Y20064D01*
Y20025D01*
X-44000Y19922D01*
Y19792D01*
Y19656D01*
Y19507D01*
Y19351D01*
Y19345D01*
Y19332D01*
Y19313D01*
Y19280D01*
Y19241D01*
Y19196D01*
Y19092D01*
Y18969D01*
Y18827D01*
X-43993Y18684D01*
Y18529D01*
X-44130Y18516D01*
X-44227Y18872D01*
X-44233Y18885D01*
X-44240Y18904D01*
X-44266Y18930D01*
X-44311Y18943D01*
X-44356D01*
X-44395Y18950D01*
X-45899D01*
X-46015Y18943D01*
X-46249Y18937D01*
X-46352Y18535D01*
X-46469Y18516D01*
Y18522D01*
X-46475Y18548D01*
X-46482Y18580D01*
X-46488Y18632D01*
X-46495Y18690D01*
X-46508Y18762D01*
X-46521Y18839D01*
X-46534Y18930D01*
X-46566Y19118D01*
X-46599Y19319D01*
X-46637Y19526D01*
X-46683Y19727D01*
X-46657Y19760D01*
X-46553D01*
X-46514Y19753D01*
X-46287D01*
X-46151Y19747D01*
X-44305D01*
X-44279Y19760D01*
X-44246Y19779D01*
X-44227Y19818D01*
X-44130Y20168D01*
X-43993Y20174D01*
Y20168D01*
D02*
G37*
G36*
Y18308D02*
Y18295D01*
Y18276D01*
Y18243D01*
Y18211D01*
Y18166D01*
X-44000Y18062D01*
Y17945D01*
Y17809D01*
Y17660D01*
Y17511D01*
Y17505D01*
Y17492D01*
Y17472D01*
Y17440D01*
Y17401D01*
Y17362D01*
Y17258D01*
Y17142D01*
Y17012D01*
X-43993Y16883D01*
Y16753D01*
X-44130Y16740D01*
X-44207Y17019D01*
X-44214Y17032D01*
X-44227Y17051D01*
X-44253Y17077D01*
X-44292Y17090D01*
X-44298D01*
X-44330Y17096D01*
X-45698D01*
X-45756Y17090D01*
X-45827Y17077D01*
X-45912Y17064D01*
X-45989Y17038D01*
X-46067Y17006D01*
X-46132Y16960D01*
X-46138Y16954D01*
X-46158Y16934D01*
X-46184Y16902D01*
X-46210Y16857D01*
X-46236Y16805D01*
X-46262Y16734D01*
X-46281Y16649D01*
X-46287Y16559D01*
Y16546D01*
Y16520D01*
X-46281Y16474D01*
X-46268Y16409D01*
X-46255Y16338D01*
X-46229Y16261D01*
X-46197Y16170D01*
X-46151Y16079D01*
X-44298D01*
X-44272Y16092D01*
X-44240Y16111D01*
X-44214Y16144D01*
X-44130Y16435D01*
X-43993Y16442D01*
Y16435D01*
Y16429D01*
Y16409D01*
Y16384D01*
Y16312D01*
X-44000Y16222D01*
Y16105D01*
Y15975D01*
Y15833D01*
Y15684D01*
Y15677D01*
Y15664D01*
Y15645D01*
Y15612D01*
Y15574D01*
Y15535D01*
Y15425D01*
Y15301D01*
Y15165D01*
X-43993Y15016D01*
Y14867D01*
X-44130Y14848D01*
X-44227Y15211D01*
X-44233Y15224D01*
X-44240Y15243D01*
X-44266Y15263D01*
X-44311Y15276D01*
X-44376D01*
X-44421Y15282D01*
X-45899D01*
X-46009Y15276D01*
X-46249Y15269D01*
X-46352Y14867D01*
X-46469Y14848D01*
Y14854D01*
X-46475Y14874D01*
Y14913D01*
X-46488Y14958D01*
X-46495Y15016D01*
X-46501Y15081D01*
X-46514Y15159D01*
X-46527Y15237D01*
X-46560Y15425D01*
X-46599Y15619D01*
X-46637Y15826D01*
X-46683Y16034D01*
X-46657Y16079D01*
X-46359D01*
X-46365Y16085D01*
X-46372Y16098D01*
X-46391Y16124D01*
X-46411Y16163D01*
X-46430Y16202D01*
X-46462Y16254D01*
X-46488Y16312D01*
X-46521Y16371D01*
X-46579Y16513D01*
X-46624Y16675D01*
X-46663Y16837D01*
X-46670Y16928D01*
X-46676Y17012D01*
Y17019D01*
Y17032D01*
Y17051D01*
X-46670Y17083D01*
X-46663Y17155D01*
X-46650Y17252D01*
X-46618Y17356D01*
X-46579Y17459D01*
X-46527Y17563D01*
X-46449Y17660D01*
X-46437Y17673D01*
X-46411Y17699D01*
X-46359Y17731D01*
X-46287Y17777D01*
X-46197Y17822D01*
X-46093Y17855D01*
X-45963Y17880D01*
X-45821Y17893D01*
X-44305D01*
X-44279Y17906D01*
X-44246Y17932D01*
X-44227Y17971D01*
X-44130Y18308D01*
X-43993Y18315D01*
Y18308D01*
D02*
G37*
G36*
X-45063Y11051D02*
X-45011Y11044D01*
X-44959Y11031D01*
X-44836Y10999D01*
X-44765Y10979D01*
X-44693Y10947D01*
X-44622Y10908D01*
X-44551Y10869D01*
X-44480Y10811D01*
X-44408Y10752D01*
X-44343Y10681D01*
X-44285Y10603D01*
Y10597D01*
X-44272Y10584D01*
X-44259Y10558D01*
X-44240Y10519D01*
X-44214Y10474D01*
X-44188Y10415D01*
X-44162Y10351D01*
X-44136Y10279D01*
X-44104Y10189D01*
X-44078Y10098D01*
X-44052Y9988D01*
X-44026Y9878D01*
X-44006Y9755D01*
X-43993Y9618D01*
X-43987Y9476D01*
X-43981Y9327D01*
Y9320D01*
Y9301D01*
Y9269D01*
Y9223D01*
X-43987Y9171D01*
Y9113D01*
X-43993Y8983D01*
Y8977D01*
Y8951D01*
Y8912D01*
X-44000Y8860D01*
Y8802D01*
Y8724D01*
Y8640D01*
Y8543D01*
Y8536D01*
Y8523D01*
Y8504D01*
Y8472D01*
Y8439D01*
Y8394D01*
Y8290D01*
Y8173D01*
Y8037D01*
X-43993Y7895D01*
Y7752D01*
X-44136Y7739D01*
X-44233Y8115D01*
Y8122D01*
X-44240Y8128D01*
X-44253Y8154D01*
X-44285Y8180D01*
X-44324Y8193D01*
X-44622D01*
X-44661Y8199D01*
X-47272D01*
X-47363Y8193D01*
X-47583D01*
X-47609Y8180D01*
X-47642Y8161D01*
X-47668Y8122D01*
X-47778Y7746D01*
X-47920Y7739D01*
Y7746D01*
Y7759D01*
Y7778D01*
Y7811D01*
Y7843D01*
X-47914Y7888D01*
Y7992D01*
Y8109D01*
X-47907Y8251D01*
Y8394D01*
Y8549D01*
Y8556D01*
Y8575D01*
Y8614D01*
X-47914Y8666D01*
Y8731D01*
X-47920Y8809D01*
Y8906D01*
X-47927Y9016D01*
Y9022D01*
Y9029D01*
Y9068D01*
X-47933Y9126D01*
Y9191D01*
Y9269D01*
X-47940Y9340D01*
Y9411D01*
Y9463D01*
Y9469D01*
Y9495D01*
Y9528D01*
X-47933Y9580D01*
Y9638D01*
X-47927Y9703D01*
X-47920Y9781D01*
X-47914Y9865D01*
X-47881Y10033D01*
X-47843Y10215D01*
X-47784Y10383D01*
X-47745Y10461D01*
X-47707Y10532D01*
Y10539D01*
X-47694Y10545D01*
X-47668Y10590D01*
X-47609Y10649D01*
X-47538Y10714D01*
X-47447Y10778D01*
X-47337Y10837D01*
X-47201Y10882D01*
X-47130Y10889D01*
X-47052Y10895D01*
X-47020D01*
X-46987Y10889D01*
X-46942Y10882D01*
X-46890Y10869D01*
X-46825Y10856D01*
X-46754Y10830D01*
X-46683Y10798D01*
X-46605Y10752D01*
X-46527Y10701D01*
X-46449Y10636D01*
X-46378Y10558D01*
X-46307Y10467D01*
X-46236Y10364D01*
X-46177Y10241D01*
X-46125Y10098D01*
Y10104D01*
Y10117D01*
X-46119Y10143D01*
X-46112Y10176D01*
X-46099Y10215D01*
X-46093Y10260D01*
X-46061Y10357D01*
X-46015Y10474D01*
X-45963Y10590D01*
X-45892Y10701D01*
X-45801Y10804D01*
X-45788Y10817D01*
X-45756Y10843D01*
X-45698Y10882D01*
X-45627Y10934D01*
X-45529Y10979D01*
X-45419Y11018D01*
X-45296Y11044D01*
X-45153Y11057D01*
X-45102D01*
X-45063Y11051D01*
D02*
G37*
G36*
X-45244Y14491D02*
X-45186Y14485D01*
X-45127Y14479D01*
X-45056Y14466D01*
X-44978Y14446D01*
X-44816Y14394D01*
X-44732Y14362D01*
X-44648Y14317D01*
X-44557Y14271D01*
X-44473Y14213D01*
X-44395Y14148D01*
X-44317Y14070D01*
X-44311Y14064D01*
X-44298Y14051D01*
X-44279Y14025D01*
X-44259Y13993D01*
X-44227Y13954D01*
X-44194Y13902D01*
X-44155Y13837D01*
X-44123Y13772D01*
X-44084Y13694D01*
X-44045Y13610D01*
X-44013Y13519D01*
X-43987Y13422D01*
X-43961Y13319D01*
X-43942Y13208D01*
X-43929Y13085D01*
X-43922Y12962D01*
Y12956D01*
Y12930D01*
Y12897D01*
X-43929Y12852D01*
X-43935Y12794D01*
X-43942Y12729D01*
X-43955Y12658D01*
X-43968Y12580D01*
X-44013Y12411D01*
X-44045Y12321D01*
X-44078Y12230D01*
X-44123Y12146D01*
X-44168Y12061D01*
X-44227Y11977D01*
X-44292Y11899D01*
X-44298Y11893D01*
X-44311Y11880D01*
X-44330Y11861D01*
X-44363Y11841D01*
X-44395Y11809D01*
X-44441Y11776D01*
X-44493Y11744D01*
X-44557Y11705D01*
X-44622Y11666D01*
X-44693Y11634D01*
X-44778Y11601D01*
X-44862Y11569D01*
X-44959Y11549D01*
X-45056Y11530D01*
X-45160Y11517D01*
X-45270Y11511D01*
X-45328D01*
X-45374Y11517D01*
X-45426Y11524D01*
X-45484Y11530D01*
X-45555Y11543D01*
X-45627Y11563D01*
X-45788Y11608D01*
X-45873Y11647D01*
X-45957Y11686D01*
X-46041Y11731D01*
X-46125Y11783D01*
X-46203Y11848D01*
X-46281Y11919D01*
X-46287Y11925D01*
X-46300Y11938D01*
X-46320Y11964D01*
X-46346Y11997D01*
X-46372Y12036D01*
X-46404Y12087D01*
X-46443Y12146D01*
X-46482Y12217D01*
X-46514Y12288D01*
X-46553Y12372D01*
X-46586Y12470D01*
X-46618Y12567D01*
X-46637Y12677D01*
X-46657Y12787D01*
X-46670Y12910D01*
X-46676Y13040D01*
Y13046D01*
Y13072D01*
Y13105D01*
X-46670Y13150D01*
X-46663Y13208D01*
X-46657Y13273D01*
X-46644Y13344D01*
X-46631Y13429D01*
X-46586Y13597D01*
X-46521Y13772D01*
X-46482Y13863D01*
X-46437Y13947D01*
X-46378Y14025D01*
X-46313Y14103D01*
X-46307Y14109D01*
X-46294Y14122D01*
X-46275Y14141D01*
X-46249Y14167D01*
X-46210Y14193D01*
X-46164Y14226D01*
X-46112Y14265D01*
X-46054Y14303D01*
X-45989Y14336D01*
X-45918Y14375D01*
X-45840Y14407D01*
X-45756Y14440D01*
X-45659Y14459D01*
X-45562Y14479D01*
X-45458Y14491D01*
X-45348Y14498D01*
X-45289D01*
X-45244Y14491D01*
D02*
G37*
G36*
X-47538Y-15660D02*
X-47493Y-15666D01*
X-47447Y-15686D01*
X-47396Y-15705D01*
X-47344Y-15738D01*
X-47292Y-15783D01*
X-47285Y-15790D01*
X-47272Y-15803D01*
X-47253Y-15835D01*
X-47234Y-15867D01*
X-47214Y-15919D01*
X-47195Y-15971D01*
X-47182Y-16036D01*
X-47175Y-16107D01*
Y-16114D01*
Y-16139D01*
X-47182Y-16172D01*
X-47188Y-16217D01*
X-47201Y-16263D01*
X-47221Y-16315D01*
X-47247Y-16366D01*
X-47285Y-16412D01*
X-47292Y-16418D01*
X-47305Y-16431D01*
X-47331Y-16451D01*
X-47363Y-16470D01*
X-47402Y-16489D01*
X-47454Y-16509D01*
X-47512Y-16522D01*
X-47577Y-16528D01*
X-47609D01*
X-47648Y-16522D01*
X-47694Y-16515D01*
X-47745Y-16496D01*
X-47797Y-16477D01*
X-47849Y-16444D01*
X-47894Y-16405D01*
X-47901Y-16399D01*
X-47914Y-16379D01*
X-47933Y-16353D01*
X-47953Y-16315D01*
X-47972Y-16269D01*
X-47992Y-16211D01*
X-48005Y-16146D01*
X-48011Y-16075D01*
Y-16068D01*
Y-16042D01*
X-48005Y-16010D01*
X-47998Y-15971D01*
X-47985Y-15919D01*
X-47966Y-15874D01*
X-47940Y-15822D01*
X-47901Y-15777D01*
X-47894Y-15770D01*
X-47881Y-15757D01*
X-47856Y-15738D01*
X-47823Y-15712D01*
X-47784Y-15692D01*
X-47732Y-15673D01*
X-47674Y-15660D01*
X-47603Y-15653D01*
X-47570D01*
X-47538Y-15660D01*
D02*
G37*
G36*
X-54276Y33770D02*
X-54193Y33761D01*
X-54110Y33751D01*
X-54008Y33733D01*
X-53897Y33705D01*
X-53666Y33631D01*
X-53545Y33585D01*
X-53425Y33520D01*
X-53295Y33456D01*
X-53175Y33372D01*
X-53064Y33280D01*
X-52953Y33169D01*
X-52944Y33160D01*
X-52925Y33141D01*
X-52898Y33104D01*
X-52870Y33058D01*
X-52824Y33002D01*
X-52777Y32928D01*
X-52722Y32836D01*
X-52676Y32743D01*
X-52620Y32632D01*
X-52565Y32512D01*
X-52518Y32383D01*
X-52482Y32244D01*
X-52444Y32096D01*
X-52417Y31938D01*
X-52398Y31763D01*
X-52389Y31587D01*
Y31578D01*
Y31541D01*
Y31495D01*
X-52398Y31430D01*
X-52407Y31346D01*
X-52417Y31254D01*
X-52435Y31152D01*
X-52454Y31041D01*
X-52518Y30801D01*
X-52565Y30671D01*
X-52611Y30542D01*
X-52676Y30422D01*
X-52741Y30301D01*
X-52824Y30181D01*
X-52916Y30070D01*
X-52925Y30061D01*
X-52944Y30042D01*
X-52972Y30015D01*
X-53018Y29987D01*
X-53064Y29941D01*
X-53129Y29894D01*
X-53203Y29848D01*
X-53295Y29792D01*
X-53388Y29737D01*
X-53490Y29691D01*
X-53610Y29645D01*
X-53730Y29598D01*
X-53869Y29570D01*
X-54008Y29543D01*
X-54156Y29524D01*
X-54313Y29515D01*
X-54396D01*
X-54461Y29524D01*
X-54535Y29533D01*
X-54618Y29543D01*
X-54720Y29561D01*
X-54822Y29589D01*
X-55053Y29654D01*
X-55173Y29709D01*
X-55294Y29765D01*
X-55414Y29829D01*
X-55534Y29904D01*
X-55645Y29996D01*
X-55756Y30098D01*
X-55765Y30107D01*
X-55784Y30125D01*
X-55812Y30163D01*
X-55848Y30209D01*
X-55885Y30264D01*
X-55932Y30338D01*
X-55987Y30422D01*
X-56043Y30523D01*
X-56089Y30625D01*
X-56144Y30745D01*
X-56191Y30884D01*
X-56237Y31023D01*
X-56265Y31180D01*
X-56292Y31337D01*
X-56311Y31513D01*
X-56320Y31698D01*
Y31707D01*
Y31744D01*
Y31791D01*
X-56311Y31855D01*
X-56302Y31938D01*
X-56292Y32031D01*
X-56274Y32133D01*
X-56256Y32253D01*
X-56191Y32493D01*
X-56098Y32743D01*
X-56043Y32873D01*
X-55978Y32993D01*
X-55895Y33104D01*
X-55802Y33215D01*
X-55793Y33224D01*
X-55774Y33243D01*
X-55747Y33270D01*
X-55710Y33307D01*
X-55654Y33345D01*
X-55589Y33391D01*
X-55515Y33446D01*
X-55432Y33502D01*
X-55340Y33548D01*
X-55238Y33604D01*
X-55127Y33650D01*
X-55007Y33696D01*
X-54868Y33724D01*
X-54729Y33751D01*
X-54581Y33770D01*
X-54424Y33779D01*
X-54341D01*
X-54276Y33770D01*
D02*
G37*
G36*
X-56098Y35990D02*
X-55784D01*
X-55599Y35981D01*
X-52944D01*
X-52889Y35972D01*
X-52815D01*
X-52741Y35962D01*
X-52648Y35944D01*
X-52556Y35925D01*
X-52343Y35879D01*
X-52121Y35796D01*
X-51908Y35694D01*
X-51797Y35620D01*
X-51695Y35546D01*
X-51686Y35537D01*
X-51667Y35528D01*
X-51640Y35500D01*
X-51603Y35463D01*
X-51547Y35416D01*
X-51492Y35361D01*
X-51418Y35296D01*
X-51344Y35222D01*
X-51261Y35139D01*
X-51168Y35046D01*
X-51066Y34945D01*
X-50955Y34824D01*
X-50844Y34704D01*
X-50733Y34575D01*
X-50613Y34427D01*
X-50484Y34279D01*
X-50687Y34066D01*
X-50696Y34075D01*
X-50724Y34094D01*
X-50761Y34122D01*
X-50807Y34149D01*
X-50872Y34196D01*
X-50946Y34242D01*
X-51113Y34353D01*
X-51288Y34464D01*
X-51473Y34575D01*
X-51649Y34667D01*
X-51732Y34695D01*
X-51806Y34723D01*
X-51825Y34732D01*
X-51871Y34741D01*
X-51954Y34760D01*
X-52074Y34787D01*
X-52223Y34806D01*
X-52398Y34824D01*
X-52602Y34834D01*
X-52833Y34843D01*
X-55210D01*
X-55367Y34834D01*
X-55534D01*
X-55710Y34824D01*
X-55858Y34251D01*
X-56024Y34223D01*
Y34233D01*
X-56033Y34269D01*
X-56043Y34316D01*
X-56052Y34390D01*
X-56061Y34473D01*
X-56080Y34575D01*
X-56098Y34686D01*
X-56117Y34815D01*
X-56163Y35083D01*
X-56209Y35370D01*
X-56265Y35666D01*
X-56330Y35953D01*
X-56292Y35999D01*
X-56154D01*
X-56098Y35990D01*
D02*
G37*
G36*
X-45367Y-19853D02*
Y-21641D01*
X-45315D01*
X-45277Y-21635D01*
X-45231D01*
X-45179Y-21628D01*
X-45056Y-21609D01*
X-44920Y-21576D01*
X-44791Y-21524D01*
X-44661Y-21460D01*
X-44609Y-21414D01*
X-44557Y-21369D01*
Y-21362D01*
X-44544Y-21356D01*
X-44538Y-21337D01*
X-44518Y-21317D01*
X-44499Y-21285D01*
X-44480Y-21246D01*
X-44460Y-21200D01*
X-44434Y-21149D01*
X-44408Y-21090D01*
X-44389Y-21025D01*
X-44369Y-20948D01*
X-44350Y-20870D01*
X-44337Y-20779D01*
X-44324Y-20682D01*
X-44311Y-20578D01*
Y-20462D01*
Y-20455D01*
Y-20449D01*
Y-20410D01*
Y-20351D01*
X-44317Y-20274D01*
X-44324Y-20183D01*
X-44330Y-20086D01*
X-44363Y-19879D01*
X-44181Y-19859D01*
Y-19865D01*
X-44168Y-19885D01*
X-44155Y-19911D01*
X-44143Y-19950D01*
X-44123Y-19995D01*
X-44097Y-20053D01*
X-44078Y-20118D01*
X-44052Y-20189D01*
X-44026Y-20267D01*
X-44006Y-20351D01*
X-43961Y-20539D01*
X-43935Y-20734D01*
X-43922Y-20948D01*
Y-20954D01*
Y-20980D01*
Y-21012D01*
X-43929Y-21064D01*
X-43935Y-21123D01*
X-43942Y-21187D01*
X-43948Y-21265D01*
X-43968Y-21343D01*
X-44006Y-21524D01*
X-44065Y-21712D01*
X-44104Y-21803D01*
X-44149Y-21894D01*
X-44201Y-21984D01*
X-44259Y-22069D01*
X-44266Y-22075D01*
X-44272Y-22088D01*
X-44292Y-22108D01*
X-44324Y-22133D01*
X-44356Y-22166D01*
X-44402Y-22205D01*
X-44454Y-22244D01*
X-44512Y-22283D01*
X-44577Y-22321D01*
X-44648Y-22360D01*
X-44732Y-22399D01*
X-44823Y-22432D01*
X-44914Y-22457D01*
X-45017Y-22477D01*
X-45134Y-22490D01*
X-45251Y-22496D01*
X-45309D01*
X-45354Y-22490D01*
X-45406Y-22483D01*
X-45471Y-22477D01*
X-45542Y-22464D01*
X-45614Y-22445D01*
X-45775Y-22393D01*
X-45860Y-22360D01*
X-45950Y-22321D01*
X-46035Y-22276D01*
X-46119Y-22218D01*
X-46197Y-22153D01*
X-46275Y-22082D01*
X-46281Y-22075D01*
X-46294Y-22062D01*
X-46313Y-22036D01*
X-46339Y-22004D01*
X-46365Y-21965D01*
X-46404Y-21913D01*
X-46437Y-21861D01*
X-46475Y-21797D01*
X-46514Y-21719D01*
X-46547Y-21641D01*
X-46586Y-21557D01*
X-46611Y-21460D01*
X-46637Y-21362D01*
X-46657Y-21252D01*
X-46670Y-21142D01*
X-46676Y-21025D01*
Y-21019D01*
Y-21000D01*
Y-20974D01*
X-46670Y-20935D01*
Y-20883D01*
X-46663Y-20831D01*
X-46637Y-20708D01*
X-46605Y-20565D01*
X-46547Y-20423D01*
X-46475Y-20280D01*
X-46424Y-20215D01*
X-46372Y-20157D01*
X-46365Y-20151D01*
X-46359Y-20144D01*
X-46339Y-20131D01*
X-46313Y-20105D01*
X-46287Y-20086D01*
X-46249Y-20060D01*
X-46203Y-20028D01*
X-46151Y-20002D01*
X-46035Y-19943D01*
X-45886Y-19891D01*
X-45717Y-19859D01*
X-45627Y-19853D01*
X-45529Y-19846D01*
X-45426D01*
X-45367Y-19853D01*
D02*
G37*
G36*
X-56265Y29071D02*
X-56228D01*
X-56182Y29062D01*
X-56126Y29043D01*
X-56052Y29034D01*
X-55969Y29015D01*
X-55885Y28997D01*
X-55682Y28960D01*
X-55451Y28923D01*
X-55201Y28877D01*
X-54933Y28831D01*
X-54887Y28599D01*
X-54905D01*
X-54951Y28581D01*
X-55025Y28562D01*
X-55108Y28534D01*
X-55210Y28507D01*
X-55312Y28470D01*
X-55414Y28433D01*
X-55497Y28396D01*
X-55506D01*
X-55534Y28377D01*
X-55562Y28350D01*
X-55608Y28322D01*
X-55645Y28275D01*
X-55673Y28220D01*
X-55700Y28155D01*
X-55710Y28081D01*
Y28072D01*
Y28044D01*
X-55700Y27998D01*
X-55691Y27942D01*
X-55673Y27869D01*
X-55654Y27785D01*
X-55617Y27693D01*
X-55571Y27582D01*
X-52953D01*
X-52916Y27600D01*
X-52870Y27628D01*
X-52833Y27683D01*
X-52685Y28257D01*
X-52491Y28266D01*
Y28257D01*
Y28238D01*
Y28201D01*
Y28155D01*
Y28100D01*
Y28026D01*
X-52500Y27859D01*
Y27665D01*
Y27452D01*
Y27230D01*
Y26999D01*
Y26990D01*
Y26971D01*
Y26943D01*
Y26897D01*
Y26851D01*
Y26786D01*
Y26638D01*
Y26472D01*
Y26278D01*
X-52491Y26065D01*
Y25852D01*
X-52685Y25824D01*
X-52824Y26333D01*
Y26342D01*
X-52833Y26351D01*
X-52851Y26388D01*
X-52889Y26416D01*
X-52916Y26435D01*
X-53018D01*
X-53064Y26444D01*
X-55275D01*
X-55432Y26435D01*
X-55580D01*
X-55710Y26425D01*
X-55858Y25852D01*
X-56024Y25824D01*
Y25833D01*
X-56033Y25861D01*
Y25917D01*
X-56052Y25982D01*
X-56061Y26065D01*
X-56071Y26157D01*
X-56089Y26268D01*
X-56107Y26379D01*
X-56154Y26647D01*
X-56209Y26925D01*
X-56265Y27221D01*
X-56330Y27517D01*
X-56292Y27582D01*
X-55867D01*
X-55876Y27591D01*
X-55885Y27610D01*
X-55913Y27656D01*
X-55941Y27702D01*
X-55969Y27767D01*
X-56015Y27841D01*
X-56052Y27933D01*
X-56098Y28026D01*
X-56182Y28248D01*
X-56246Y28497D01*
X-56302Y28766D01*
X-56311Y28914D01*
X-56320Y29052D01*
X-56292Y29080D01*
X-56283D01*
X-56265Y29071D01*
D02*
G37*
G36*
X-57551Y35981D02*
X-57486Y35972D01*
X-57421Y35944D01*
X-57347Y35916D01*
X-57273Y35870D01*
X-57199Y35805D01*
X-57190Y35796D01*
X-57171Y35777D01*
X-57143Y35731D01*
X-57116Y35685D01*
X-57088Y35611D01*
X-57060Y35537D01*
X-57042Y35444D01*
X-57033Y35342D01*
Y35333D01*
Y35296D01*
X-57042Y35250D01*
X-57051Y35185D01*
X-57069Y35120D01*
X-57097Y35046D01*
X-57134Y34973D01*
X-57190Y34908D01*
X-57199Y34898D01*
X-57218Y34880D01*
X-57254Y34852D01*
X-57301Y34824D01*
X-57356Y34797D01*
X-57430Y34769D01*
X-57513Y34751D01*
X-57606Y34741D01*
X-57652D01*
X-57708Y34751D01*
X-57772Y34760D01*
X-57846Y34787D01*
X-57920Y34815D01*
X-57995Y34861D01*
X-58059Y34917D01*
X-58069Y34926D01*
X-58087Y34954D01*
X-58115Y34991D01*
X-58143Y35046D01*
X-58170Y35111D01*
X-58198Y35195D01*
X-58217Y35287D01*
X-58226Y35389D01*
Y35398D01*
Y35435D01*
X-58217Y35481D01*
X-58207Y35537D01*
X-58189Y35611D01*
X-58161Y35675D01*
X-58124Y35750D01*
X-58069Y35814D01*
X-58059Y35824D01*
X-58041Y35842D01*
X-58004Y35870D01*
X-57958Y35907D01*
X-57902Y35934D01*
X-57828Y35962D01*
X-57745Y35981D01*
X-57643Y35990D01*
X-57597D01*
X-57551Y35981D01*
D02*
G37*
G36*
X-52759Y44750D02*
X-52741Y44731D01*
X-52722Y44694D01*
X-52703Y44648D01*
X-52676Y44583D01*
X-52639Y44509D01*
X-52611Y44426D01*
X-52574Y44343D01*
X-52509Y44130D01*
X-52444Y43899D01*
X-52407Y43649D01*
X-52389Y43390D01*
Y43381D01*
Y43353D01*
Y43307D01*
X-52398Y43242D01*
X-52407Y43168D01*
X-52417Y43085D01*
X-52435Y42983D01*
X-52454Y42881D01*
X-52509Y42650D01*
X-52602Y42410D01*
X-52657Y42289D01*
X-52722Y42169D01*
X-52805Y42058D01*
X-52889Y41947D01*
X-52898Y41938D01*
X-52916Y41919D01*
X-52944Y41892D01*
X-52981Y41864D01*
X-53036Y41818D01*
X-53092Y41771D01*
X-53166Y41725D01*
X-53249Y41669D01*
X-53342Y41614D01*
X-53443Y41568D01*
X-53554Y41521D01*
X-53675Y41475D01*
X-53804Y41447D01*
X-53943Y41420D01*
X-54091Y41401D01*
X-54248Y41392D01*
X-54341D01*
X-54405Y41401D01*
X-54479Y41410D01*
X-54572Y41429D01*
X-54674Y41447D01*
X-54785Y41466D01*
X-55025Y41540D01*
X-55146Y41586D01*
X-55275Y41651D01*
X-55395Y41716D01*
X-55515Y41799D01*
X-55636Y41892D01*
X-55747Y42002D01*
X-55756Y42012D01*
X-55774Y42030D01*
X-55802Y42067D01*
X-55839Y42114D01*
X-55876Y42169D01*
X-55932Y42243D01*
X-55978Y42336D01*
X-56033Y42428D01*
X-56089Y42539D01*
X-56135Y42650D01*
X-56191Y42779D01*
X-56228Y42918D01*
X-56265Y43066D01*
X-56292Y43224D01*
X-56311Y43390D01*
X-56320Y43566D01*
Y43575D01*
Y43593D01*
Y43621D01*
Y43668D01*
X-56311Y43723D01*
Y43788D01*
X-56292Y43936D01*
X-56265Y44111D01*
X-56218Y44315D01*
X-56163Y44519D01*
X-56089Y44731D01*
X-56080D01*
X-56061Y44722D01*
X-56033Y44713D01*
X-55987Y44704D01*
X-55941Y44694D01*
X-55876Y44676D01*
X-55728Y44648D01*
X-55553Y44602D01*
X-55349Y44556D01*
X-55136Y44519D01*
X-54905Y44472D01*
X-54868Y44260D01*
X-55867Y43945D01*
X-55876Y43927D01*
X-55895Y43871D01*
X-55904Y43778D01*
X-55913Y43658D01*
Y43649D01*
Y43640D01*
X-55904Y43584D01*
X-55895Y43501D01*
X-55867Y43399D01*
X-55812Y43279D01*
X-55738Y43150D01*
X-55645Y43029D01*
X-55580Y42965D01*
X-55506Y42909D01*
X-55488Y42900D01*
X-55432Y42863D01*
X-55349Y42816D01*
X-55229Y42770D01*
X-55072Y42715D01*
X-54887Y42669D01*
X-54683Y42632D01*
X-54443Y42622D01*
X-54369D01*
X-54313Y42632D01*
X-54248D01*
X-54174Y42641D01*
X-54008Y42669D01*
X-53823Y42715D01*
X-53628Y42770D01*
X-53453Y42863D01*
X-53369Y42918D01*
X-53295Y42983D01*
X-53277Y43001D01*
X-53240Y43048D01*
X-53175Y43140D01*
X-53110Y43251D01*
X-53046Y43399D01*
X-52981Y43584D01*
X-52944Y43797D01*
X-52925Y44038D01*
Y44056D01*
Y44093D01*
Y44158D01*
X-52935Y44250D01*
X-52944Y44352D01*
X-52953Y44472D01*
X-52972Y44602D01*
X-53000Y44731D01*
X-52759Y44759D01*
Y44750D01*
D02*
G37*
G36*
X-52694Y48043D02*
X-52685Y48024D01*
X-52666Y47987D01*
X-52648Y47941D01*
X-52620Y47886D01*
X-52602Y47821D01*
X-52546Y47664D01*
X-52482Y47479D01*
X-52435Y47284D01*
X-52398Y47071D01*
X-52389Y46859D01*
Y46850D01*
Y46831D01*
Y46803D01*
Y46766D01*
X-52398Y46665D01*
X-52417Y46544D01*
X-52444Y46406D01*
X-52491Y46257D01*
X-52546Y46128D01*
X-52620Y45998D01*
X-52630Y45989D01*
X-52666Y45952D01*
X-52722Y45906D01*
X-52796Y45851D01*
X-52898Y45786D01*
X-53018Y45739D01*
X-53157Y45702D01*
X-53323Y45693D01*
X-54100D01*
X-54285Y45702D01*
X-55192D01*
X-55469Y45712D01*
X-55756D01*
X-55895Y45175D01*
X-56107Y45138D01*
X-56172Y45804D01*
X-57107Y46183D01*
Y46202D01*
X-57116Y46239D01*
X-57125Y46304D01*
X-57143Y46387D01*
X-57162Y46489D01*
X-57181Y46591D01*
X-57227Y46803D01*
X-57190Y46859D01*
X-56884D01*
X-56727Y46850D01*
X-56172D01*
Y47969D01*
X-55738D01*
Y46850D01*
X-55423D01*
X-55294Y46840D01*
X-54664D01*
X-54313Y46831D01*
X-53554D01*
X-53480Y46840D01*
X-53397Y46850D01*
X-53212Y46887D01*
X-53129Y46914D01*
X-53055Y46951D01*
X-53046Y46960D01*
X-53036Y46979D01*
X-53009Y47007D01*
X-52981Y47053D01*
X-52953Y47118D01*
X-52935Y47201D01*
X-52916Y47303D01*
X-52907Y47423D01*
Y47432D01*
Y47469D01*
Y47525D01*
Y47599D01*
X-52916Y47691D01*
Y47793D01*
X-52935Y48015D01*
X-52694Y48052D01*
Y48043D01*
D02*
G37*
G36*
X-54452Y40763D02*
Y38210D01*
X-54378D01*
X-54322Y38219D01*
X-54258D01*
X-54184Y38228D01*
X-54008Y38256D01*
X-53813Y38302D01*
X-53628Y38377D01*
X-53443Y38469D01*
X-53369Y38534D01*
X-53295Y38598D01*
Y38608D01*
X-53277Y38617D01*
X-53268Y38645D01*
X-53240Y38673D01*
X-53212Y38719D01*
X-53184Y38774D01*
X-53157Y38839D01*
X-53120Y38913D01*
X-53083Y38996D01*
X-53055Y39089D01*
X-53027Y39200D01*
X-53000Y39311D01*
X-52981Y39440D01*
X-52962Y39579D01*
X-52944Y39727D01*
Y39893D01*
Y39903D01*
Y39912D01*
Y39968D01*
Y40051D01*
X-52953Y40162D01*
X-52962Y40291D01*
X-52972Y40430D01*
X-53018Y40726D01*
X-52759Y40754D01*
Y40745D01*
X-52741Y40717D01*
X-52722Y40680D01*
X-52703Y40624D01*
X-52676Y40560D01*
X-52639Y40476D01*
X-52611Y40384D01*
X-52574Y40282D01*
X-52537Y40171D01*
X-52509Y40051D01*
X-52444Y39783D01*
X-52407Y39505D01*
X-52389Y39200D01*
Y39191D01*
Y39154D01*
Y39107D01*
X-52398Y39033D01*
X-52407Y38950D01*
X-52417Y38857D01*
X-52426Y38747D01*
X-52454Y38636D01*
X-52509Y38377D01*
X-52592Y38108D01*
X-52648Y37979D01*
X-52713Y37849D01*
X-52787Y37720D01*
X-52870Y37600D01*
X-52879Y37590D01*
X-52889Y37572D01*
X-52916Y37544D01*
X-52962Y37507D01*
X-53009Y37461D01*
X-53074Y37405D01*
X-53148Y37350D01*
X-53231Y37294D01*
X-53323Y37239D01*
X-53425Y37183D01*
X-53545Y37128D01*
X-53675Y37082D01*
X-53804Y37045D01*
X-53952Y37017D01*
X-54119Y36998D01*
X-54285Y36989D01*
X-54369D01*
X-54433Y36998D01*
X-54507Y37007D01*
X-54600Y37017D01*
X-54702Y37035D01*
X-54803Y37063D01*
X-55035Y37137D01*
X-55155Y37183D01*
X-55284Y37239D01*
X-55405Y37304D01*
X-55525Y37387D01*
X-55636Y37479D01*
X-55747Y37581D01*
X-55756Y37590D01*
X-55774Y37609D01*
X-55802Y37646D01*
X-55839Y37692D01*
X-55876Y37747D01*
X-55932Y37821D01*
X-55978Y37896D01*
X-56033Y37988D01*
X-56089Y38099D01*
X-56135Y38210D01*
X-56191Y38330D01*
X-56228Y38469D01*
X-56265Y38608D01*
X-56292Y38765D01*
X-56311Y38922D01*
X-56320Y39089D01*
Y39098D01*
Y39126D01*
Y39163D01*
X-56311Y39218D01*
Y39292D01*
X-56302Y39366D01*
X-56265Y39542D01*
X-56218Y39746D01*
X-56135Y39949D01*
X-56033Y40152D01*
X-55959Y40245D01*
X-55885Y40328D01*
X-55876Y40337D01*
X-55867Y40347D01*
X-55839Y40365D01*
X-55802Y40402D01*
X-55765Y40430D01*
X-55710Y40467D01*
X-55645Y40513D01*
X-55571Y40550D01*
X-55405Y40633D01*
X-55192Y40707D01*
X-54951Y40754D01*
X-54822Y40763D01*
X-54683Y40772D01*
X-54535D01*
X-54452Y40763D01*
D02*
G37*
G36*
X-46067Y-23008D02*
X-45996D01*
X-45905Y-23021D01*
X-45801Y-23034D01*
X-45691Y-23054D01*
X-45575Y-23073D01*
X-45445Y-23106D01*
X-45309Y-23144D01*
X-45179Y-23196D01*
X-45043Y-23248D01*
X-44914Y-23319D01*
X-44784Y-23397D01*
X-44661Y-23488D01*
X-44551Y-23592D01*
X-44544Y-23598D01*
X-44525Y-23617D01*
X-44499Y-23650D01*
X-44460Y-23702D01*
X-44421Y-23760D01*
X-44369Y-23831D01*
X-44317Y-23915D01*
X-44266Y-24013D01*
X-44214Y-24123D01*
X-44162Y-24246D01*
X-44110Y-24382D01*
X-44071Y-24531D01*
X-44032Y-24687D01*
X-44006Y-24855D01*
X-43987Y-25037D01*
X-43981Y-25231D01*
Y-25244D01*
Y-25283D01*
Y-25335D01*
Y-25406D01*
X-43987Y-25484D01*
Y-25574D01*
X-43993Y-25749D01*
Y-25762D01*
Y-25788D01*
Y-25834D01*
X-44000Y-25898D01*
Y-25970D01*
Y-26054D01*
Y-26151D01*
Y-26248D01*
Y-26255D01*
Y-26261D01*
Y-26287D01*
Y-26313D01*
Y-26346D01*
Y-26384D01*
Y-26475D01*
Y-26592D01*
Y-26715D01*
X-43993Y-26851D01*
Y-26994D01*
X-44136Y-27007D01*
X-44233Y-26631D01*
Y-26624D01*
X-44240Y-26618D01*
X-44253Y-26592D01*
X-44285Y-26566D01*
X-44324Y-26553D01*
X-44622D01*
X-44661Y-26546D01*
X-47272D01*
X-47363Y-26553D01*
X-47583D01*
X-47609Y-26566D01*
X-47642Y-26585D01*
X-47668Y-26624D01*
X-47778Y-27000D01*
X-47920Y-27007D01*
Y-27000D01*
Y-26987D01*
Y-26968D01*
Y-26942D01*
Y-26903D01*
X-47914Y-26864D01*
Y-26767D01*
Y-26650D01*
X-47907Y-26520D01*
Y-26391D01*
Y-26255D01*
Y-26248D01*
Y-26242D01*
Y-26203D01*
Y-26145D01*
Y-26067D01*
X-47914Y-25983D01*
Y-25885D01*
X-47920Y-25678D01*
Y-25672D01*
Y-25665D01*
X-47927Y-25633D01*
Y-25574D01*
X-47933Y-25503D01*
Y-25412D01*
X-47940Y-25315D01*
Y-25212D01*
Y-25101D01*
Y-25088D01*
Y-25056D01*
Y-25004D01*
X-47933Y-24933D01*
X-47927Y-24842D01*
X-47914Y-24745D01*
X-47901Y-24635D01*
X-47881Y-24512D01*
X-47862Y-24389D01*
X-47830Y-24259D01*
X-47791Y-24129D01*
X-47752Y-24000D01*
X-47694Y-23870D01*
X-47635Y-23753D01*
X-47564Y-23637D01*
X-47486Y-23533D01*
X-47480Y-23527D01*
X-47467Y-23507D01*
X-47441Y-23481D01*
X-47402Y-23449D01*
X-47357Y-23410D01*
X-47298Y-23365D01*
X-47234Y-23319D01*
X-47156Y-23268D01*
X-47065Y-23216D01*
X-46968Y-23170D01*
X-46858Y-23125D01*
X-46741Y-23086D01*
X-46611Y-23054D01*
X-46475Y-23021D01*
X-46326Y-23008D01*
X-46164Y-23002D01*
X-46119D01*
X-46067Y-23008D01*
D02*
G37*
G36*
X-56487Y25399D02*
X-56413Y25390D01*
X-56330Y25380D01*
X-56237Y25362D01*
X-56135Y25334D01*
X-55923Y25269D01*
X-55812Y25223D01*
X-55700Y25158D01*
X-55589Y25093D01*
X-55479Y25019D01*
X-55377Y24927D01*
X-55284Y24825D01*
X-55275Y24816D01*
X-55266Y24798D01*
X-55238Y24770D01*
X-55210Y24724D01*
X-55173Y24659D01*
X-55136Y24585D01*
X-55090Y24501D01*
X-55044Y24409D01*
X-54997Y24298D01*
X-54951Y24178D01*
X-54914Y24048D01*
X-54877Y23900D01*
X-54849Y23743D01*
X-54822Y23576D01*
X-54813Y23401D01*
X-54803Y23207D01*
Y23197D01*
Y23160D01*
Y23096D01*
X-54813Y23021D01*
Y22929D01*
X-54822Y22827D01*
X-54831Y22716D01*
X-54840Y22596D01*
X-52972D01*
X-52935Y22614D01*
X-52898Y22651D01*
X-52861Y22707D01*
X-52694Y23290D01*
X-52491Y23299D01*
Y23290D01*
Y23271D01*
Y23234D01*
Y23188D01*
Y23133D01*
Y23068D01*
Y22994D01*
X-52500Y22901D01*
Y22707D01*
Y22494D01*
Y22254D01*
Y22004D01*
Y21995D01*
Y21976D01*
Y21939D01*
Y21884D01*
Y21828D01*
Y21754D01*
Y21588D01*
Y21394D01*
Y21181D01*
X-52491Y20968D01*
Y20755D01*
X-52694Y20737D01*
X-52833Y21273D01*
Y21283D01*
X-52842Y21292D01*
X-52861Y21329D01*
X-52907Y21366D01*
X-52962Y21384D01*
X-53388D01*
X-53443Y21394D01*
X-57171D01*
X-57301Y21384D01*
X-57615D01*
X-57652Y21366D01*
X-57699Y21338D01*
X-57736Y21283D01*
X-57893Y20746D01*
X-58096Y20737D01*
Y20746D01*
Y20764D01*
Y20792D01*
Y20829D01*
Y20885D01*
X-58087Y20940D01*
Y21088D01*
Y21255D01*
X-58078Y21440D01*
Y21643D01*
Y21847D01*
Y21865D01*
Y21912D01*
Y21985D01*
Y22078D01*
X-58087Y22189D01*
Y22309D01*
X-58096Y22568D01*
Y22587D01*
Y22633D01*
X-58105Y22698D01*
Y22781D01*
Y22883D01*
X-58115Y22994D01*
Y23216D01*
Y23225D01*
Y23262D01*
Y23317D01*
X-58105Y23392D01*
Y23484D01*
X-58096Y23586D01*
X-58087Y23706D01*
X-58069Y23826D01*
X-58022Y24094D01*
X-57958Y24363D01*
X-57865Y24622D01*
X-57800Y24742D01*
X-57736Y24853D01*
Y24862D01*
X-57717Y24881D01*
X-57699Y24908D01*
X-57671Y24936D01*
X-57578Y25029D01*
X-57458Y25131D01*
X-57301Y25232D01*
X-57116Y25325D01*
X-57005Y25352D01*
X-56884Y25380D01*
X-56764Y25399D01*
X-56625Y25408D01*
X-56542D01*
X-56487Y25399D01*
D02*
G37*
G36*
X-52694Y-5487D02*
X-52685Y-5505D01*
X-52666Y-5542D01*
X-52648Y-5589D01*
X-52620Y-5644D01*
X-52602Y-5709D01*
X-52546Y-5866D01*
X-52482Y-6051D01*
X-52435Y-6245D01*
X-52398Y-6458D01*
X-52389Y-6671D01*
Y-6680D01*
Y-6699D01*
Y-6726D01*
Y-6763D01*
X-52398Y-6865D01*
X-52417Y-6985D01*
X-52444Y-7124D01*
X-52491Y-7272D01*
X-52546Y-7402D01*
X-52620Y-7531D01*
X-52630Y-7541D01*
X-52666Y-7577D01*
X-52722Y-7624D01*
X-52796Y-7679D01*
X-52898Y-7744D01*
X-53018Y-7790D01*
X-53157Y-7827D01*
X-53323Y-7836D01*
X-54100D01*
X-54285Y-7827D01*
X-55192D01*
X-55469Y-7818D01*
X-55756D01*
X-55895Y-8354D01*
X-56107Y-8392D01*
X-56172Y-7726D01*
X-57107Y-7346D01*
Y-7328D01*
X-57116Y-7291D01*
X-57125Y-7226D01*
X-57143Y-7143D01*
X-57162Y-7041D01*
X-57181Y-6939D01*
X-57227Y-6726D01*
X-57190Y-6671D01*
X-56884D01*
X-56727Y-6680D01*
X-56172D01*
Y-5561D01*
X-55738D01*
Y-6680D01*
X-55423D01*
X-55294Y-6690D01*
X-54664D01*
X-54313Y-6699D01*
X-53554D01*
X-53480Y-6690D01*
X-53397Y-6680D01*
X-53212Y-6643D01*
X-53129Y-6616D01*
X-53055Y-6578D01*
X-53046Y-6569D01*
X-53036Y-6551D01*
X-53009Y-6523D01*
X-52981Y-6477D01*
X-52953Y-6412D01*
X-52935Y-6329D01*
X-52916Y-6227D01*
X-52907Y-6107D01*
Y-6098D01*
Y-6061D01*
Y-6005D01*
Y-5931D01*
X-52916Y-5838D01*
Y-5737D01*
X-52935Y-5515D01*
X-52694Y-5478D01*
Y-5487D01*
D02*
G37*
G36*
X-52574Y5604D02*
X-52565Y5585D01*
X-52556Y5557D01*
X-52546Y5520D01*
X-52518Y5419D01*
X-52482Y5289D01*
X-52444Y5132D01*
X-52417Y4975D01*
X-52398Y4808D01*
X-52389Y4651D01*
Y4642D01*
Y4632D01*
Y4605D01*
X-52398Y4568D01*
X-52407Y4475D01*
X-52444Y4364D01*
X-52491Y4244D01*
X-52565Y4124D01*
X-52676Y4022D01*
X-52741Y3976D01*
X-52815Y3939D01*
Y3929D01*
X-52796Y3920D01*
X-52777Y3892D01*
X-52750Y3846D01*
X-52713Y3800D01*
X-52676Y3745D01*
X-52602Y3615D01*
X-52528Y3458D01*
X-52454Y3273D01*
X-52407Y3078D01*
X-52398Y2967D01*
X-52389Y2866D01*
Y2857D01*
Y2838D01*
Y2810D01*
X-52398Y2773D01*
X-52407Y2671D01*
X-52426Y2542D01*
X-52454Y2394D01*
X-52509Y2246D01*
X-52574Y2089D01*
X-52666Y1950D01*
X-52676Y1932D01*
X-52722Y1894D01*
X-52777Y1839D01*
X-52870Y1774D01*
X-52981Y1709D01*
X-53110Y1654D01*
X-53268Y1617D01*
X-53443Y1599D01*
X-53508D01*
X-53545Y1608D01*
X-53656Y1626D01*
X-53795Y1672D01*
X-53943Y1737D01*
X-54026Y1784D01*
X-54100Y1839D01*
X-54174Y1904D01*
X-54248Y1987D01*
X-54313Y2070D01*
X-54369Y2172D01*
Y2181D01*
X-54378Y2200D01*
X-54396Y2237D01*
X-54415Y2283D01*
X-54433Y2338D01*
X-54461Y2422D01*
X-54489Y2505D01*
X-54517Y2607D01*
X-54544Y2727D01*
X-54572Y2857D01*
X-54600Y2995D01*
X-54618Y3153D01*
X-54637Y3328D01*
X-54655Y3513D01*
X-54664Y3708D01*
Y3920D01*
X-55035D01*
X-55108Y3911D01*
X-55201Y3892D01*
X-55303Y3865D01*
X-55405Y3828D01*
X-55506Y3782D01*
X-55589Y3708D01*
X-55599Y3698D01*
X-55617Y3670D01*
X-55654Y3624D01*
X-55691Y3550D01*
X-55728Y3458D01*
X-55765Y3347D01*
X-55784Y3217D01*
X-55793Y3060D01*
Y3042D01*
Y2986D01*
X-55784Y2903D01*
X-55774Y2782D01*
X-55747Y2644D01*
X-55719Y2468D01*
X-55673Y2283D01*
X-55617Y2070D01*
X-55932Y1959D01*
X-55941Y1969D01*
X-55950Y1996D01*
X-55969Y2042D01*
X-55997Y2107D01*
X-56024Y2181D01*
X-56052Y2274D01*
X-56089Y2376D01*
X-56126Y2486D01*
X-56200Y2736D01*
X-56256Y3014D01*
X-56302Y3300D01*
X-56320Y3596D01*
Y3606D01*
Y3624D01*
Y3661D01*
X-56311Y3717D01*
Y3772D01*
X-56302Y3846D01*
X-56283Y4003D01*
X-56237Y4179D01*
X-56182Y4355D01*
X-56107Y4521D01*
X-55997Y4670D01*
X-55978Y4688D01*
X-55941Y4725D01*
X-55867Y4781D01*
X-55756Y4854D01*
X-55626Y4919D01*
X-55469Y4975D01*
X-55284Y5012D01*
X-55072Y5030D01*
X-53407Y5012D01*
X-53055D01*
X-53009Y5030D01*
X-52944Y5049D01*
X-52889Y5086D01*
X-52879Y5095D01*
X-52851Y5132D01*
X-52824Y5187D01*
X-52796Y5262D01*
Y5271D01*
Y5280D01*
X-52787Y5308D01*
Y5345D01*
X-52777Y5391D01*
Y5446D01*
X-52768Y5520D01*
Y5595D01*
X-52574Y5613D01*
Y5604D01*
D02*
G37*
G36*
X-52509Y1127D02*
X-52491Y1099D01*
Y1090D01*
Y1053D01*
Y997D01*
Y933D01*
Y840D01*
Y738D01*
Y618D01*
X-52500Y489D01*
Y341D01*
Y192D01*
Y-131D01*
Y-483D01*
Y-834D01*
Y-1824D01*
Y-1833D01*
Y-1852D01*
Y-1880D01*
Y-1926D01*
Y-1981D01*
Y-2037D01*
Y-2185D01*
Y-2361D01*
Y-2545D01*
X-52491Y-2730D01*
Y-2925D01*
X-52694Y-2953D01*
X-52833Y-2453D01*
Y-2444D01*
X-52842Y-2434D01*
X-52861Y-2397D01*
X-52907Y-2361D01*
X-52962Y-2342D01*
X-53388D01*
X-53443Y-2333D01*
X-57171D01*
X-57301Y-2342D01*
X-57615D01*
X-57652Y-2361D01*
X-57699Y-2388D01*
X-57736Y-2444D01*
X-57893Y-2934D01*
X-58096Y-2953D01*
Y-2943D01*
Y-2925D01*
Y-2897D01*
Y-2860D01*
Y-2814D01*
X-58087Y-2749D01*
Y-2610D01*
Y-2434D01*
X-58078Y-2231D01*
Y-2000D01*
Y-1759D01*
Y-1750D01*
Y-1732D01*
Y-1695D01*
Y-1639D01*
Y-1584D01*
Y-1510D01*
Y-1343D01*
X-58087Y-1158D01*
Y-955D01*
Y-742D01*
X-58096Y-548D01*
X-57893Y-529D01*
X-57745Y-1019D01*
X-57736Y-1038D01*
X-57717Y-1075D01*
X-57680Y-1112D01*
X-57625Y-1130D01*
X-52925D01*
Y433D01*
X-54054Y988D01*
X-54091Y1228D01*
X-52509Y1127D01*
D02*
G37*
G36*
X-44719Y-17241D02*
X-44648Y-17254D01*
X-44557Y-17280D01*
X-44454Y-17319D01*
X-44343Y-17384D01*
X-44292Y-17423D01*
X-44240Y-17468D01*
X-44194Y-17520D01*
X-44149Y-17585D01*
Y-17591D01*
X-44143Y-17597D01*
X-44130Y-17617D01*
X-44117Y-17649D01*
X-44097Y-17682D01*
X-44078Y-17721D01*
X-44058Y-17773D01*
X-44039Y-17824D01*
X-44013Y-17889D01*
X-43993Y-17954D01*
X-43961Y-18109D01*
X-43935Y-18291D01*
X-43922Y-18492D01*
Y-18498D01*
Y-18511D01*
Y-18537D01*
Y-18570D01*
X-43929Y-18615D01*
X-43935Y-18660D01*
Y-18719D01*
X-43948Y-18783D01*
X-43968Y-18919D01*
X-44000Y-19075D01*
X-44045Y-19243D01*
X-44110Y-19412D01*
X-44117D01*
X-44130Y-19405D01*
X-44149D01*
X-44175Y-19392D01*
X-44207Y-19386D01*
X-44246Y-19379D01*
X-44343Y-19354D01*
X-44454Y-19334D01*
X-44577Y-19308D01*
X-44706Y-19282D01*
X-44842Y-19256D01*
X-44862Y-19114D01*
X-44253Y-18913D01*
Y-18906D01*
X-44246Y-18881D01*
X-44233Y-18842D01*
X-44227Y-18796D01*
X-44214Y-18732D01*
X-44201Y-18660D01*
X-44194Y-18576D01*
Y-18485D01*
Y-18472D01*
Y-18446D01*
X-44201Y-18401D01*
X-44207Y-18343D01*
X-44214Y-18278D01*
X-44233Y-18213D01*
X-44253Y-18148D01*
X-44285Y-18090D01*
X-44292Y-18083D01*
X-44305Y-18064D01*
X-44324Y-18038D01*
X-44350Y-18012D01*
X-44389Y-17986D01*
X-44434Y-17960D01*
X-44486Y-17941D01*
X-44544Y-17934D01*
X-44570D01*
X-44590Y-17941D01*
X-44622Y-17947D01*
X-44661Y-17960D01*
X-44700Y-17973D01*
X-44739Y-17999D01*
X-44771Y-18032D01*
X-44778Y-18038D01*
X-44791Y-18051D01*
X-44810Y-18077D01*
X-44829Y-18109D01*
X-44862Y-18161D01*
X-44894Y-18220D01*
X-44927Y-18297D01*
X-44959Y-18388D01*
X-45076Y-18732D01*
Y-18738D01*
X-45082Y-18744D01*
X-45095Y-18783D01*
X-45121Y-18842D01*
X-45160Y-18919D01*
X-45199Y-18997D01*
X-45251Y-19081D01*
X-45309Y-19159D01*
X-45374Y-19224D01*
X-45380Y-19230D01*
X-45406Y-19250D01*
X-45445Y-19276D01*
X-45503Y-19302D01*
X-45568Y-19334D01*
X-45646Y-19360D01*
X-45730Y-19379D01*
X-45827Y-19386D01*
X-45866D01*
X-45892Y-19379D01*
X-45970Y-19367D01*
X-46061Y-19347D01*
X-46158Y-19308D01*
X-46268Y-19250D01*
X-46313Y-19218D01*
X-46365Y-19172D01*
X-46411Y-19127D01*
X-46456Y-19069D01*
Y-19062D01*
X-46462Y-19056D01*
X-46475Y-19036D01*
X-46488Y-19010D01*
X-46508Y-18978D01*
X-46527Y-18939D01*
X-46547Y-18887D01*
X-46566Y-18835D01*
X-46586Y-18777D01*
X-46605Y-18712D01*
X-46644Y-18557D01*
X-46670Y-18382D01*
X-46676Y-18181D01*
Y-18174D01*
Y-18161D01*
Y-18135D01*
Y-18103D01*
X-46670Y-18064D01*
Y-18012D01*
X-46657Y-17902D01*
X-46644Y-17773D01*
X-46618Y-17636D01*
X-46579Y-17487D01*
X-46534Y-17345D01*
X-46527D01*
X-46521Y-17351D01*
X-46501D01*
X-46469Y-17358D01*
X-46404Y-17377D01*
X-46313Y-17397D01*
X-46203Y-17416D01*
X-46087Y-17442D01*
X-45840Y-17487D01*
X-45821Y-17643D01*
X-46359Y-17805D01*
Y-17811D01*
X-46365Y-17837D01*
X-46372Y-17870D01*
X-46385Y-17915D01*
X-46391Y-17973D01*
X-46398Y-18038D01*
X-46404Y-18187D01*
Y-18200D01*
Y-18226D01*
X-46398Y-18278D01*
X-46391Y-18336D01*
X-46385Y-18401D01*
X-46365Y-18466D01*
X-46346Y-18537D01*
X-46313Y-18602D01*
X-46307Y-18608D01*
X-46294Y-18628D01*
X-46275Y-18654D01*
X-46249Y-18680D01*
X-46210Y-18706D01*
X-46164Y-18732D01*
X-46112Y-18751D01*
X-46054Y-18757D01*
X-46035D01*
X-46009Y-18751D01*
X-45983D01*
X-45918Y-18732D01*
X-45860Y-18693D01*
Y-18686D01*
X-45847Y-18680D01*
X-45834Y-18660D01*
X-45814Y-18634D01*
X-45795Y-18602D01*
X-45775Y-18563D01*
X-45750Y-18511D01*
X-45730Y-18453D01*
X-45575Y-18006D01*
Y-17999D01*
X-45568Y-17986D01*
X-45562Y-17967D01*
X-45549Y-17941D01*
X-45523Y-17870D01*
X-45484Y-17779D01*
X-45432Y-17688D01*
X-45380Y-17591D01*
X-45315Y-17500D01*
X-45244Y-17423D01*
X-45238Y-17416D01*
X-45212Y-17390D01*
X-45166Y-17364D01*
X-45115Y-17325D01*
X-45050Y-17293D01*
X-44972Y-17261D01*
X-44888Y-17241D01*
X-44791Y-17235D01*
X-44752D01*
X-44719Y-17241D01*
D02*
G37*
G36*
X-56265Y-8613D02*
X-56228D01*
X-56182Y-8623D01*
X-56126Y-8641D01*
X-56052Y-8651D01*
X-55969Y-8669D01*
X-55885Y-8687D01*
X-55682Y-8725D01*
X-55451Y-8761D01*
X-55201Y-8808D01*
X-54933Y-8854D01*
X-54887Y-9085D01*
X-54905D01*
X-54951Y-9104D01*
X-55025Y-9122D01*
X-55108Y-9150D01*
X-55210Y-9178D01*
X-55312Y-9215D01*
X-55414Y-9252D01*
X-55497Y-9289D01*
X-55506D01*
X-55534Y-9307D01*
X-55562Y-9335D01*
X-55608Y-9363D01*
X-55645Y-9409D01*
X-55673Y-9465D01*
X-55700Y-9529D01*
X-55710Y-9603D01*
Y-9612D01*
Y-9640D01*
X-55700Y-9686D01*
X-55691Y-9742D01*
X-55673Y-9816D01*
X-55654Y-9899D01*
X-55617Y-9992D01*
X-55571Y-10103D01*
X-52953D01*
X-52916Y-10084D01*
X-52870Y-10057D01*
X-52833Y-10001D01*
X-52685Y-9427D01*
X-52491Y-9418D01*
Y-9427D01*
Y-9446D01*
Y-9483D01*
Y-9529D01*
Y-9585D01*
Y-9659D01*
X-52500Y-9825D01*
Y-10019D01*
Y-10232D01*
Y-10454D01*
Y-10685D01*
Y-10695D01*
Y-10713D01*
Y-10741D01*
Y-10787D01*
Y-10834D01*
Y-10898D01*
Y-11046D01*
Y-11213D01*
Y-11407D01*
X-52491Y-11620D01*
Y-11833D01*
X-52685Y-11860D01*
X-52824Y-11351D01*
Y-11342D01*
X-52833Y-11333D01*
X-52851Y-11296D01*
X-52889Y-11268D01*
X-52916Y-11250D01*
X-53018D01*
X-53064Y-11241D01*
X-55275D01*
X-55432Y-11250D01*
X-55580D01*
X-55710Y-11259D01*
X-55858Y-11833D01*
X-56024Y-11860D01*
Y-11851D01*
X-56033Y-11823D01*
Y-11768D01*
X-56052Y-11703D01*
X-56061Y-11620D01*
X-56071Y-11527D01*
X-56089Y-11416D01*
X-56107Y-11305D01*
X-56154Y-11037D01*
X-56209Y-10759D01*
X-56265Y-10464D01*
X-56330Y-10167D01*
X-56292Y-10103D01*
X-55867D01*
X-55876Y-10093D01*
X-55885Y-10075D01*
X-55913Y-10029D01*
X-55941Y-9983D01*
X-55969Y-9918D01*
X-56015Y-9844D01*
X-56052Y-9751D01*
X-56098Y-9659D01*
X-56182Y-9437D01*
X-56246Y-9187D01*
X-56302Y-8919D01*
X-56311Y-8771D01*
X-56320Y-8632D01*
X-56292Y-8604D01*
X-56283D01*
X-56265Y-8613D01*
D02*
G37*
G36*
X-54350Y18110D02*
X-54267Y18101D01*
X-54174Y18082D01*
X-54063Y18064D01*
X-53943Y18045D01*
X-53693Y17962D01*
X-53564Y17916D01*
X-53434Y17851D01*
X-53305Y17786D01*
X-53184Y17694D01*
X-53064Y17601D01*
X-52953Y17490D01*
X-52944Y17481D01*
X-52925Y17462D01*
X-52898Y17425D01*
X-52870Y17379D01*
X-52824Y17314D01*
X-52777Y17240D01*
X-52722Y17157D01*
X-52676Y17055D01*
X-52620Y16944D01*
X-52565Y16815D01*
X-52518Y16685D01*
X-52482Y16537D01*
X-52444Y16380D01*
X-52417Y16214D01*
X-52398Y16038D01*
X-52389Y15853D01*
Y15844D01*
Y15807D01*
Y15751D01*
X-52398Y15677D01*
X-52407Y15594D01*
X-52417Y15501D01*
X-52454Y15289D01*
X-51029D01*
X-50983Y15307D01*
X-50937Y15344D01*
X-50900Y15400D01*
X-50752Y15964D01*
X-50558Y15973D01*
Y15964D01*
Y15945D01*
Y15908D01*
Y15862D01*
Y15807D01*
X-50567Y15732D01*
Y15575D01*
Y15381D01*
X-50576Y15178D01*
Y14955D01*
Y14733D01*
Y14724D01*
Y14706D01*
Y14678D01*
Y14632D01*
Y14576D01*
Y14512D01*
Y14364D01*
Y14178D01*
X-50567Y13984D01*
Y13771D01*
X-50558Y13559D01*
X-50752Y13531D01*
X-50900Y14040D01*
X-50909Y14058D01*
X-50918Y14086D01*
X-50955Y14123D01*
X-51020Y14141D01*
X-51140D01*
X-51242Y14151D01*
X-54794D01*
X-54979Y14141D01*
X-55479D01*
X-55608Y14132D01*
X-55710D01*
X-55858Y13559D01*
X-56024Y13531D01*
Y13540D01*
X-56033Y13568D01*
Y13623D01*
X-56052Y13688D01*
X-56061Y13771D01*
X-56071Y13864D01*
X-56089Y13975D01*
X-56107Y14086D01*
X-56154Y14354D01*
X-56209Y14632D01*
X-56265Y14928D01*
X-56330Y15224D01*
X-56292Y15289D01*
X-55923D01*
X-55932Y15298D01*
X-55941Y15316D01*
X-55959Y15353D01*
X-55987Y15390D01*
X-56015Y15446D01*
X-56052Y15510D01*
X-56126Y15668D01*
X-56191Y15853D01*
X-56256Y16047D01*
X-56302Y16260D01*
X-56320Y16371D01*
Y16482D01*
Y16491D01*
Y16519D01*
Y16556D01*
X-56311Y16602D01*
X-56302Y16667D01*
X-56292Y16741D01*
X-56256Y16917D01*
X-56200Y17101D01*
X-56107Y17305D01*
X-56052Y17398D01*
X-55987Y17499D01*
X-55913Y17592D01*
X-55821Y17675D01*
X-55812Y17684D01*
X-55802Y17694D01*
X-55765Y17712D01*
X-55728Y17749D01*
X-55682Y17777D01*
X-55617Y17814D01*
X-55553Y17860D01*
X-55469Y17897D01*
X-55386Y17943D01*
X-55284Y17980D01*
X-55062Y18054D01*
X-54803Y18101D01*
X-54664Y18110D01*
X-54517Y18119D01*
X-54424D01*
X-54350Y18110D01*
D02*
G37*
G36*
X-52491Y13309D02*
Y13291D01*
Y13263D01*
Y13216D01*
Y13170D01*
Y13105D01*
X-52500Y12957D01*
Y12791D01*
Y12597D01*
Y12384D01*
Y12171D01*
Y12162D01*
Y12144D01*
Y12116D01*
Y12070D01*
Y12014D01*
Y11958D01*
Y11811D01*
Y11644D01*
Y11468D01*
X-52491Y11283D01*
Y11107D01*
X-52685Y11089D01*
X-52796Y11468D01*
X-52805Y11487D01*
X-52824Y11514D01*
X-52861Y11552D01*
X-52916Y11570D01*
X-52925D01*
X-52972Y11579D01*
X-54923D01*
X-55007Y11570D01*
X-55108Y11561D01*
X-55229Y11533D01*
X-55340Y11505D01*
X-55451Y11459D01*
X-55543Y11394D01*
X-55553Y11385D01*
X-55580Y11357D01*
X-55617Y11320D01*
X-55654Y11255D01*
X-55691Y11181D01*
X-55728Y11089D01*
X-55756Y10978D01*
X-55765Y10848D01*
Y10830D01*
Y10793D01*
X-55756Y10728D01*
X-55738Y10636D01*
X-55710Y10534D01*
X-55664Y10414D01*
X-55608Y10284D01*
X-55534Y10146D01*
X-55525D01*
X-55497Y10155D01*
X-55460Y10164D01*
X-55405Y10182D01*
X-55340Y10192D01*
X-55266Y10201D01*
X-55099Y10210D01*
X-52925D01*
X-52889Y10229D01*
X-52842Y10256D01*
X-52805Y10303D01*
X-52685Y10710D01*
X-52491D01*
Y10701D01*
Y10691D01*
Y10663D01*
Y10627D01*
Y10534D01*
X-52500Y10405D01*
Y10247D01*
Y10071D01*
Y9877D01*
Y9664D01*
Y9655D01*
Y9637D01*
Y9609D01*
Y9563D01*
Y9507D01*
Y9452D01*
Y9304D01*
Y9137D01*
Y8962D01*
X-52491Y8777D01*
Y8601D01*
X-52685Y8591D01*
X-52796Y8962D01*
X-52805Y8980D01*
X-52824Y9008D01*
X-52861Y9045D01*
X-52916Y9063D01*
X-52925D01*
X-52972Y9072D01*
X-54923D01*
X-55007Y9063D01*
X-55108Y9054D01*
X-55229Y9026D01*
X-55340Y8998D01*
X-55451Y8952D01*
X-55543Y8888D01*
X-55553Y8878D01*
X-55580Y8850D01*
X-55617Y8813D01*
X-55654Y8749D01*
X-55691Y8675D01*
X-55728Y8582D01*
X-55756Y8471D01*
X-55765Y8342D01*
Y8332D01*
Y8286D01*
X-55756Y8231D01*
X-55738Y8147D01*
X-55719Y8055D01*
X-55682Y7944D01*
X-55636Y7824D01*
X-55571Y7704D01*
X-52925D01*
X-52889Y7722D01*
X-52842Y7750D01*
X-52805Y7796D01*
X-52685Y8203D01*
X-52491D01*
Y8194D01*
Y8185D01*
Y8157D01*
Y8120D01*
Y8027D01*
X-52500Y7898D01*
Y7740D01*
Y7555D01*
Y7352D01*
Y7139D01*
Y7130D01*
Y7112D01*
Y7084D01*
Y7038D01*
Y6982D01*
Y6927D01*
Y6769D01*
Y6594D01*
Y6399D01*
X-52491Y6186D01*
Y5974D01*
X-52685Y5946D01*
X-52824Y6464D01*
X-52833Y6482D01*
X-52842Y6510D01*
X-52879Y6538D01*
X-52944Y6556D01*
X-53036D01*
X-53101Y6566D01*
X-55210D01*
X-55367Y6556D01*
X-55710Y6547D01*
X-55858Y5974D01*
X-56024Y5946D01*
Y5955D01*
X-56033Y5983D01*
Y6038D01*
X-56052Y6103D01*
X-56061Y6186D01*
X-56071Y6279D01*
X-56089Y6390D01*
X-56107Y6501D01*
X-56154Y6769D01*
X-56209Y7047D01*
X-56265Y7343D01*
X-56330Y7639D01*
X-56292Y7694D01*
X-55867D01*
X-55876Y7704D01*
X-55885Y7722D01*
X-55913Y7759D01*
X-55941Y7805D01*
X-55969Y7870D01*
X-56015Y7935D01*
X-56052Y8018D01*
X-56098Y8101D01*
X-56182Y8305D01*
X-56246Y8518D01*
X-56302Y8758D01*
X-56311Y8878D01*
X-56320Y8998D01*
Y9008D01*
Y9026D01*
Y9063D01*
X-56311Y9119D01*
X-56302Y9174D01*
X-56292Y9248D01*
X-56256Y9396D01*
X-56191Y9572D01*
X-56144Y9655D01*
X-56098Y9748D01*
X-56033Y9831D01*
X-55959Y9905D01*
X-55876Y9979D01*
X-55784Y10044D01*
X-55793Y10053D01*
X-55812Y10081D01*
X-55830Y10118D01*
X-55867Y10173D01*
X-55904Y10238D01*
X-55950Y10321D01*
X-56006Y10405D01*
X-56052Y10506D01*
X-56154Y10728D01*
X-56237Y10969D01*
X-56274Y11098D01*
X-56302Y11228D01*
X-56311Y11366D01*
X-56320Y11496D01*
Y11505D01*
Y11524D01*
Y11552D01*
X-56311Y11588D01*
X-56302Y11690D01*
X-56283Y11820D01*
X-56237Y11958D01*
X-56182Y12106D01*
X-56107Y12254D01*
X-55997Y12384D01*
X-55978Y12403D01*
X-55941Y12439D01*
X-55867Y12486D01*
X-55765Y12551D01*
X-55636Y12615D01*
X-55488Y12662D01*
X-55303Y12698D01*
X-55099Y12717D01*
X-52935D01*
X-52898Y12735D01*
X-52851Y12773D01*
X-52824Y12828D01*
X-52685Y13309D01*
X-52491Y13318D01*
Y13309D01*
D02*
G37*
G36*
X-52574Y-12202D02*
X-52565Y-12221D01*
X-52556Y-12249D01*
X-52546Y-12286D01*
X-52518Y-12387D01*
X-52482Y-12517D01*
X-52444Y-12674D01*
X-52417Y-12832D01*
X-52398Y-12998D01*
X-52389Y-13155D01*
Y-13164D01*
Y-13174D01*
Y-13202D01*
X-52398Y-13239D01*
X-52407Y-13331D01*
X-52444Y-13442D01*
X-52491Y-13562D01*
X-52565Y-13682D01*
X-52676Y-13784D01*
X-52741Y-13830D01*
X-52815Y-13868D01*
Y-13877D01*
X-52796Y-13886D01*
X-52777Y-13914D01*
X-52750Y-13960D01*
X-52713Y-14006D01*
X-52676Y-14062D01*
X-52602Y-14191D01*
X-52528Y-14348D01*
X-52454Y-14534D01*
X-52407Y-14728D01*
X-52398Y-14839D01*
X-52389Y-14941D01*
Y-14950D01*
Y-14968D01*
Y-14996D01*
X-52398Y-15033D01*
X-52407Y-15135D01*
X-52426Y-15264D01*
X-52454Y-15412D01*
X-52509Y-15560D01*
X-52574Y-15718D01*
X-52666Y-15856D01*
X-52676Y-15875D01*
X-52722Y-15912D01*
X-52777Y-15967D01*
X-52870Y-16032D01*
X-52981Y-16097D01*
X-53110Y-16152D01*
X-53268Y-16189D01*
X-53443Y-16208D01*
X-53508D01*
X-53545Y-16198D01*
X-53656Y-16180D01*
X-53795Y-16134D01*
X-53943Y-16069D01*
X-54026Y-16023D01*
X-54100Y-15967D01*
X-54174Y-15902D01*
X-54248Y-15819D01*
X-54313Y-15736D01*
X-54369Y-15634D01*
Y-15625D01*
X-54378Y-15607D01*
X-54396Y-15570D01*
X-54415Y-15523D01*
X-54433Y-15468D01*
X-54461Y-15384D01*
X-54489Y-15301D01*
X-54517Y-15200D01*
X-54544Y-15079D01*
X-54572Y-14950D01*
X-54600Y-14811D01*
X-54618Y-14654D01*
X-54637Y-14478D01*
X-54655Y-14293D01*
X-54664Y-14099D01*
Y-13886D01*
X-55035D01*
X-55108Y-13895D01*
X-55201Y-13914D01*
X-55303Y-13941D01*
X-55405Y-13979D01*
X-55506Y-14025D01*
X-55589Y-14099D01*
X-55599Y-14108D01*
X-55617Y-14136D01*
X-55654Y-14182D01*
X-55691Y-14256D01*
X-55728Y-14348D01*
X-55765Y-14459D01*
X-55784Y-14589D01*
X-55793Y-14746D01*
Y-14765D01*
Y-14820D01*
X-55784Y-14904D01*
X-55774Y-15024D01*
X-55747Y-15163D01*
X-55719Y-15338D01*
X-55673Y-15523D01*
X-55617Y-15736D01*
X-55932Y-15847D01*
X-55941Y-15838D01*
X-55950Y-15810D01*
X-55969Y-15764D01*
X-55997Y-15699D01*
X-56024Y-15625D01*
X-56052Y-15532D01*
X-56089Y-15431D01*
X-56126Y-15320D01*
X-56200Y-15070D01*
X-56256Y-14793D01*
X-56302Y-14506D01*
X-56320Y-14210D01*
Y-14200D01*
Y-14182D01*
Y-14145D01*
X-56311Y-14089D01*
Y-14034D01*
X-56302Y-13960D01*
X-56283Y-13803D01*
X-56237Y-13627D01*
X-56182Y-13451D01*
X-56107Y-13285D01*
X-55997Y-13137D01*
X-55978Y-13118D01*
X-55941Y-13081D01*
X-55867Y-13026D01*
X-55756Y-12952D01*
X-55626Y-12887D01*
X-55469Y-12832D01*
X-55284Y-12795D01*
X-55072Y-12776D01*
X-53407Y-12795D01*
X-53055D01*
X-53009Y-12776D01*
X-52944Y-12757D01*
X-52889Y-12720D01*
X-52879Y-12711D01*
X-52851Y-12674D01*
X-52824Y-12619D01*
X-52796Y-12545D01*
Y-12536D01*
Y-12526D01*
X-52787Y-12499D01*
Y-12461D01*
X-52777Y-12415D01*
Y-12360D01*
X-52768Y-12286D01*
Y-12212D01*
X-52574Y-12193D01*
Y-12202D01*
D02*
G37*
%LPC*%
G36*
X-43456Y-12640D02*
X-43482D01*
X-43508Y-12647D01*
X-43546Y-12653D01*
X-43585Y-12673D01*
X-43624Y-12692D01*
X-43663Y-12725D01*
X-43702Y-12770D01*
X-43708Y-12776D01*
X-43715Y-12796D01*
X-43728Y-12835D01*
X-43747Y-12887D01*
X-43760Y-12958D01*
X-43773Y-13055D01*
X-43780Y-13113D01*
Y-13178D01*
X-43786Y-13249D01*
Y-13327D01*
Y-13334D01*
Y-13353D01*
Y-13392D01*
Y-13437D01*
Y-13489D01*
Y-13554D01*
Y-13690D01*
Y-13697D01*
Y-13723D01*
X-43780Y-13761D01*
Y-13807D01*
Y-13865D01*
X-43773Y-13923D01*
Y-14053D01*
Y-14059D01*
Y-14072D01*
Y-14098D01*
Y-14131D01*
X-43780Y-14209D01*
X-43786Y-14306D01*
X-43773Y-14312D01*
X-43741Y-14325D01*
X-43695Y-14345D01*
X-43631Y-14370D01*
X-43559Y-14396D01*
X-43482Y-14416D01*
X-43404Y-14429D01*
X-43320Y-14435D01*
X-43313D01*
X-43281Y-14429D01*
X-43242Y-14422D01*
X-43196Y-14409D01*
X-43138Y-14383D01*
X-43080Y-14351D01*
X-43028Y-14299D01*
X-42976Y-14234D01*
X-42970Y-14228D01*
X-42957Y-14196D01*
X-42937Y-14150D01*
X-42911Y-14092D01*
X-42885Y-14014D01*
X-42866Y-13917D01*
X-42853Y-13807D01*
X-42847Y-13684D01*
Y-13677D01*
Y-13664D01*
Y-13645D01*
Y-13612D01*
X-42853Y-13573D01*
Y-13535D01*
X-42866Y-13431D01*
X-42885Y-13321D01*
X-42918Y-13198D01*
X-42957Y-13074D01*
X-43015Y-12951D01*
Y-12945D01*
X-43022Y-12938D01*
X-43047Y-12900D01*
X-43080Y-12854D01*
X-43132Y-12796D01*
X-43196Y-12738D01*
X-43268Y-12686D01*
X-43358Y-12653D01*
X-43404Y-12647D01*
X-43456Y-12640D01*
D02*
G37*
G36*
X-45704Y-13243D02*
X-45763D01*
X-45827Y-13249D01*
X-45905Y-13256D01*
X-45996Y-13262D01*
X-46087Y-13282D01*
X-46171Y-13301D01*
X-46255Y-13334D01*
X-46262Y-13340D01*
X-46287Y-13353D01*
X-46320Y-13373D01*
X-46359Y-13405D01*
X-46391Y-13450D01*
X-46424Y-13509D01*
X-46449Y-13573D01*
X-46456Y-13658D01*
Y-13664D01*
Y-13690D01*
X-46449Y-13729D01*
X-46430Y-13781D01*
X-46411Y-13826D01*
X-46378Y-13878D01*
X-46333Y-13923D01*
X-46268Y-13962D01*
X-46262D01*
X-46236Y-13975D01*
X-46190Y-13988D01*
X-46132Y-14001D01*
X-46061Y-14014D01*
X-45970Y-14027D01*
X-45860Y-14033D01*
X-45737Y-14040D01*
X-45678D01*
X-45607Y-14033D01*
X-45529Y-14027D01*
X-45432Y-14021D01*
X-45341Y-14001D01*
X-45251Y-13982D01*
X-45166Y-13949D01*
X-45160Y-13943D01*
X-45134Y-13930D01*
X-45108Y-13910D01*
X-45069Y-13878D01*
X-45037Y-13833D01*
X-45004Y-13781D01*
X-44978Y-13716D01*
X-44972Y-13638D01*
Y-13625D01*
Y-13599D01*
X-44985Y-13561D01*
X-44998Y-13515D01*
X-45017Y-13463D01*
X-45050Y-13411D01*
X-45095Y-13366D01*
X-45153Y-13327D01*
X-45160Y-13321D01*
X-45186Y-13314D01*
X-45231Y-13301D01*
X-45296Y-13282D01*
X-45374Y-13269D01*
X-45465Y-13256D01*
X-45575Y-13249D01*
X-45704Y-13243D01*
D02*
G37*
G36*
Y25831D02*
X-45763D01*
X-45827Y25825D01*
X-45905Y25818D01*
X-45996Y25812D01*
X-46087Y25793D01*
X-46171Y25773D01*
X-46255Y25741D01*
X-46262Y25734D01*
X-46287Y25721D01*
X-46320Y25702D01*
X-46359Y25669D01*
X-46391Y25624D01*
X-46424Y25566D01*
X-46449Y25501D01*
X-46456Y25417D01*
Y25410D01*
Y25384D01*
X-46449Y25345D01*
X-46430Y25294D01*
X-46411Y25248D01*
X-46378Y25196D01*
X-46333Y25151D01*
X-46268Y25112D01*
X-46262D01*
X-46236Y25099D01*
X-46190Y25086D01*
X-46132Y25073D01*
X-46061Y25060D01*
X-45970Y25047D01*
X-45860Y25041D01*
X-45737Y25034D01*
X-45678D01*
X-45607Y25041D01*
X-45529Y25047D01*
X-45432Y25054D01*
X-45341Y25073D01*
X-45251Y25093D01*
X-45166Y25125D01*
X-45160Y25132D01*
X-45134Y25145D01*
X-45108Y25164D01*
X-45069Y25196D01*
X-45037Y25242D01*
X-45004Y25294D01*
X-44978Y25358D01*
X-44972Y25436D01*
Y25449D01*
Y25475D01*
X-44985Y25514D01*
X-44998Y25559D01*
X-45017Y25611D01*
X-45050Y25663D01*
X-45095Y25708D01*
X-45153Y25747D01*
X-45160Y25754D01*
X-45186Y25760D01*
X-45231Y25773D01*
X-45296Y25793D01*
X-45374Y25806D01*
X-45465Y25818D01*
X-45575Y25825D01*
X-45704Y25831D01*
D02*
G37*
G36*
X-43456Y26434D02*
X-43482D01*
X-43508Y26428D01*
X-43546Y26421D01*
X-43585Y26402D01*
X-43624Y26382D01*
X-43663Y26350D01*
X-43702Y26305D01*
X-43708Y26298D01*
X-43715Y26279D01*
X-43728Y26240D01*
X-43747Y26188D01*
X-43760Y26117D01*
X-43773Y26019D01*
X-43780Y25961D01*
Y25896D01*
X-43786Y25825D01*
Y25747D01*
Y25741D01*
Y25721D01*
Y25682D01*
Y25637D01*
Y25585D01*
Y25520D01*
Y25384D01*
Y25378D01*
Y25352D01*
X-43780Y25313D01*
Y25268D01*
Y25209D01*
X-43773Y25151D01*
Y25021D01*
Y25015D01*
Y25002D01*
Y24976D01*
Y24944D01*
X-43780Y24866D01*
X-43786Y24769D01*
X-43773Y24762D01*
X-43741Y24749D01*
X-43695Y24730D01*
X-43631Y24704D01*
X-43559Y24678D01*
X-43482Y24659D01*
X-43404Y24646D01*
X-43320Y24639D01*
X-43313D01*
X-43281Y24646D01*
X-43242Y24652D01*
X-43196Y24665D01*
X-43138Y24691D01*
X-43080Y24723D01*
X-43028Y24775D01*
X-42976Y24840D01*
X-42970Y24847D01*
X-42957Y24879D01*
X-42937Y24924D01*
X-42911Y24983D01*
X-42885Y25060D01*
X-42866Y25157D01*
X-42853Y25268D01*
X-42847Y25391D01*
Y25397D01*
Y25410D01*
Y25430D01*
Y25462D01*
X-42853Y25501D01*
Y25540D01*
X-42866Y25644D01*
X-42885Y25754D01*
X-42918Y25877D01*
X-42957Y26000D01*
X-43015Y26123D01*
Y26129D01*
X-43022Y26136D01*
X-43047Y26175D01*
X-43080Y26220D01*
X-43132Y26279D01*
X-43196Y26337D01*
X-43268Y26389D01*
X-43358Y26421D01*
X-43404Y26428D01*
X-43456Y26434D01*
D02*
G37*
G36*
X-45639Y-6296D02*
X-45769D01*
X-45834Y-6303D01*
X-45918Y-6309D01*
X-46002Y-6322D01*
X-46093Y-6335D01*
X-46177Y-6361D01*
X-46249Y-6394D01*
X-46255Y-6400D01*
X-46275Y-6413D01*
X-46300Y-6432D01*
X-46333Y-6465D01*
X-46365Y-6510D01*
X-46391Y-6562D01*
X-46411Y-6620D01*
X-46417Y-6692D01*
Y-6705D01*
X-46411Y-6731D01*
X-46404Y-6776D01*
X-46391Y-6828D01*
X-46359Y-6893D01*
X-46320Y-6951D01*
X-46262Y-7016D01*
X-46184Y-7074D01*
X-46171Y-7080D01*
X-46145Y-7093D01*
X-46093Y-7119D01*
X-46028Y-7145D01*
X-45950Y-7171D01*
X-45860Y-7197D01*
X-45756Y-7223D01*
X-45639Y-7236D01*
Y-6296D01*
D02*
G37*
G36*
X-44402Y-3031D02*
X-46320D01*
Y-3037D01*
X-46326Y-3056D01*
X-46339Y-3089D01*
X-46352Y-3134D01*
X-46359Y-3179D01*
X-46372Y-3238D01*
X-46378Y-3374D01*
Y-3380D01*
Y-3393D01*
Y-3413D01*
X-46372Y-3439D01*
X-46365Y-3503D01*
X-46346Y-3588D01*
X-46313Y-3685D01*
X-46268Y-3782D01*
X-46203Y-3873D01*
X-46112Y-3957D01*
X-46099Y-3964D01*
X-46061Y-3990D01*
X-46002Y-4022D01*
X-45912Y-4054D01*
X-45801Y-4093D01*
X-45665Y-4126D01*
X-45503Y-4152D01*
X-45315Y-4158D01*
X-45238D01*
X-45199Y-4152D01*
X-45153D01*
X-45050Y-4139D01*
X-44933Y-4113D01*
X-44810Y-4087D01*
X-44687Y-4041D01*
X-44577Y-3983D01*
X-44564Y-3977D01*
X-44531Y-3951D01*
X-44493Y-3905D01*
X-44441Y-3853D01*
X-44389Y-3782D01*
X-44350Y-3691D01*
X-44317Y-3594D01*
X-44305Y-3478D01*
Y-3465D01*
Y-3439D01*
X-44311Y-3393D01*
X-44317Y-3329D01*
X-44330Y-3264D01*
X-44343Y-3186D01*
X-44369Y-3108D01*
X-44402Y-3031D01*
D02*
G37*
G36*
X-45283Y2115D02*
X-45361D01*
X-45400Y2108D01*
X-45445D01*
X-45555Y2095D01*
X-45672Y2069D01*
X-45795Y2037D01*
X-45912Y1991D01*
X-46022Y1933D01*
X-46035Y1927D01*
X-46067Y1901D01*
X-46106Y1862D01*
X-46158Y1804D01*
X-46210Y1732D01*
X-46249Y1642D01*
X-46281Y1538D01*
X-46294Y1415D01*
Y1408D01*
Y1376D01*
X-46287Y1337D01*
X-46281Y1279D01*
X-46268Y1214D01*
X-46255Y1143D01*
X-46229Y1065D01*
X-46197Y987D01*
X-44246D01*
Y994D01*
X-44240Y1020D01*
X-44233Y1052D01*
X-44227Y1104D01*
X-44214Y1156D01*
X-44207Y1220D01*
X-44201Y1357D01*
Y1363D01*
Y1376D01*
Y1395D01*
X-44207Y1421D01*
X-44214Y1486D01*
X-44233Y1570D01*
X-44272Y1661D01*
X-44317Y1752D01*
X-44389Y1843D01*
X-44428Y1881D01*
X-44480Y1920D01*
X-44486D01*
X-44493Y1927D01*
X-44531Y1953D01*
X-44596Y1985D01*
X-44687Y2017D01*
X-44797Y2056D01*
X-44933Y2082D01*
X-45095Y2108D01*
X-45283Y2115D01*
D02*
G37*
G36*
X-46942Y10007D02*
X-47007D01*
X-47071Y10001D01*
X-47156Y9988D01*
X-47247Y9962D01*
X-47344Y9929D01*
X-47428Y9884D01*
X-47499Y9826D01*
X-47506Y9819D01*
X-47525Y9793D01*
X-47551Y9755D01*
X-47583Y9696D01*
X-47616Y9625D01*
X-47642Y9534D01*
X-47661Y9431D01*
X-47668Y9314D01*
Y9307D01*
Y9281D01*
Y9243D01*
X-47661Y9191D01*
Y9178D01*
X-47655Y9145D01*
X-47648Y9094D01*
X-47642Y9035D01*
X-46190D01*
Y9042D01*
Y9061D01*
Y9087D01*
Y9120D01*
Y9204D01*
Y9301D01*
Y9307D01*
Y9314D01*
Y9333D01*
Y9359D01*
X-46197Y9424D01*
X-46210Y9502D01*
X-46229Y9586D01*
X-46262Y9677D01*
X-46300Y9761D01*
X-46359Y9832D01*
X-46365Y9839D01*
X-46391Y9858D01*
X-46437Y9891D01*
X-46495Y9923D01*
X-46579Y9949D01*
X-46676Y9981D01*
X-46799Y10001D01*
X-46942Y10007D01*
D02*
G37*
G36*
X-45102Y10143D02*
X-45173D01*
X-45251Y10130D01*
X-45341Y10117D01*
X-45445Y10091D01*
X-45549Y10059D01*
X-45652Y10007D01*
X-45737Y9936D01*
X-45743Y9929D01*
X-45769Y9897D01*
X-45801Y9852D01*
X-45840Y9781D01*
X-45879Y9690D01*
X-45912Y9580D01*
X-45937Y9443D01*
X-45944Y9288D01*
Y9281D01*
Y9269D01*
Y9243D01*
Y9210D01*
Y9126D01*
X-45937Y9035D01*
X-44253D01*
Y9042D01*
Y9061D01*
X-44246Y9094D01*
Y9132D01*
X-44240Y9184D01*
Y9236D01*
X-44233Y9359D01*
Y9366D01*
Y9379D01*
Y9398D01*
X-44240Y9424D01*
X-44246Y9489D01*
X-44259Y9573D01*
X-44285Y9670D01*
X-44324Y9768D01*
X-44382Y9858D01*
X-44454Y9943D01*
X-44467Y9949D01*
X-44499Y9975D01*
X-44551Y10007D01*
X-44622Y10046D01*
X-44713Y10079D01*
X-44823Y10111D01*
X-44953Y10137D01*
X-45102Y10143D01*
D02*
G37*
G36*
X-45296Y13630D02*
X-45380D01*
X-45426Y13623D01*
X-45477D01*
X-45594Y13610D01*
X-45724Y13591D01*
X-45860Y13558D01*
X-45989Y13519D01*
X-46112Y13468D01*
X-46119D01*
X-46125Y13461D01*
X-46158Y13435D01*
X-46210Y13403D01*
X-46262Y13351D01*
X-46313Y13280D01*
X-46365Y13195D01*
X-46398Y13098D01*
X-46411Y13040D01*
Y12982D01*
Y12975D01*
Y12969D01*
X-46404Y12930D01*
X-46398Y12878D01*
X-46378Y12813D01*
X-46346Y12735D01*
X-46294Y12664D01*
X-46229Y12593D01*
X-46138Y12528D01*
X-46125Y12521D01*
X-46087Y12502D01*
X-46028Y12483D01*
X-45937Y12457D01*
X-45821Y12424D01*
X-45685Y12405D01*
X-45607Y12392D01*
X-45523Y12385D01*
X-45426Y12379D01*
X-45244D01*
X-45199Y12385D01*
X-45147D01*
X-45030Y12398D01*
X-44901Y12418D01*
X-44765Y12444D01*
X-44629Y12476D01*
X-44499Y12528D01*
X-44493D01*
X-44486Y12535D01*
X-44454Y12560D01*
X-44402Y12593D01*
X-44343Y12651D01*
X-44285Y12716D01*
X-44240Y12800D01*
X-44201Y12904D01*
X-44194Y12962D01*
X-44188Y13021D01*
Y13027D01*
Y13033D01*
X-44194Y13072D01*
X-44201Y13124D01*
X-44220Y13195D01*
X-44259Y13267D01*
X-44305Y13344D01*
X-44376Y13416D01*
X-44415Y13448D01*
X-44467Y13481D01*
X-44473D01*
X-44480Y13487D01*
X-44499Y13494D01*
X-44518Y13507D01*
X-44551Y13513D01*
X-44583Y13526D01*
X-44674Y13558D01*
X-44791Y13584D01*
X-44933Y13604D01*
X-45102Y13623D01*
X-45296Y13630D01*
D02*
G37*
G36*
X-54350Y32540D02*
X-54470D01*
X-54535Y32531D01*
X-54609D01*
X-54776Y32512D01*
X-54961Y32484D01*
X-55155Y32438D01*
X-55340Y32383D01*
X-55515Y32309D01*
X-55525D01*
X-55534Y32299D01*
X-55580Y32262D01*
X-55654Y32216D01*
X-55728Y32142D01*
X-55802Y32040D01*
X-55876Y31920D01*
X-55923Y31781D01*
X-55941Y31698D01*
Y31615D01*
Y31605D01*
Y31596D01*
X-55932Y31541D01*
X-55923Y31467D01*
X-55895Y31374D01*
X-55848Y31263D01*
X-55774Y31161D01*
X-55682Y31060D01*
X-55553Y30967D01*
X-55534Y30958D01*
X-55479Y30930D01*
X-55395Y30902D01*
X-55266Y30865D01*
X-55099Y30819D01*
X-54905Y30792D01*
X-54794Y30773D01*
X-54674Y30764D01*
X-54535Y30755D01*
X-54276D01*
X-54211Y30764D01*
X-54137D01*
X-53971Y30782D01*
X-53786Y30810D01*
X-53592Y30847D01*
X-53397Y30893D01*
X-53212Y30967D01*
X-53203D01*
X-53194Y30977D01*
X-53148Y31014D01*
X-53074Y31060D01*
X-52990Y31143D01*
X-52907Y31236D01*
X-52842Y31356D01*
X-52787Y31504D01*
X-52777Y31587D01*
X-52768Y31670D01*
Y31679D01*
Y31689D01*
X-52777Y31744D01*
X-52787Y31818D01*
X-52815Y31920D01*
X-52870Y32022D01*
X-52935Y32133D01*
X-53036Y32234D01*
X-53092Y32281D01*
X-53166Y32327D01*
X-53175D01*
X-53184Y32336D01*
X-53212Y32346D01*
X-53240Y32364D01*
X-53286Y32373D01*
X-53333Y32392D01*
X-53462Y32438D01*
X-53628Y32475D01*
X-53832Y32503D01*
X-54072Y32531D01*
X-54350Y32540D01*
D02*
G37*
G36*
X-45639Y-20695D02*
X-45769D01*
X-45834Y-20701D01*
X-45918Y-20708D01*
X-46002Y-20721D01*
X-46093Y-20734D01*
X-46177Y-20760D01*
X-46249Y-20792D01*
X-46255Y-20799D01*
X-46275Y-20812D01*
X-46300Y-20831D01*
X-46333Y-20863D01*
X-46365Y-20909D01*
X-46391Y-20961D01*
X-46411Y-21019D01*
X-46417Y-21090D01*
Y-21103D01*
X-46411Y-21129D01*
X-46404Y-21174D01*
X-46391Y-21226D01*
X-46359Y-21291D01*
X-46320Y-21349D01*
X-46262Y-21414D01*
X-46184Y-21473D01*
X-46171Y-21479D01*
X-46145Y-21492D01*
X-46093Y-21518D01*
X-46028Y-21544D01*
X-45950Y-21570D01*
X-45860Y-21596D01*
X-45756Y-21622D01*
X-45639Y-21635D01*
Y-20695D01*
D02*
G37*
G36*
X-54840Y39560D02*
X-55025D01*
X-55118Y39551D01*
X-55238Y39542D01*
X-55358Y39524D01*
X-55488Y39505D01*
X-55608Y39468D01*
X-55710Y39422D01*
X-55719Y39413D01*
X-55747Y39394D01*
X-55784Y39366D01*
X-55830Y39320D01*
X-55876Y39255D01*
X-55913Y39181D01*
X-55941Y39098D01*
X-55950Y38996D01*
Y38978D01*
X-55941Y38941D01*
X-55932Y38876D01*
X-55913Y38802D01*
X-55867Y38710D01*
X-55812Y38626D01*
X-55728Y38534D01*
X-55617Y38451D01*
X-55599Y38441D01*
X-55562Y38423D01*
X-55488Y38386D01*
X-55395Y38349D01*
X-55284Y38312D01*
X-55155Y38275D01*
X-55007Y38238D01*
X-54840Y38219D01*
Y39560D01*
D02*
G37*
G36*
X-45976Y-23941D02*
X-46061D01*
X-46119Y-23948D01*
X-46190D01*
X-46268Y-23954D01*
X-46359Y-23967D01*
X-46456Y-23980D01*
X-46663Y-24013D01*
X-46871Y-24071D01*
X-46974Y-24103D01*
X-47071Y-24142D01*
X-47162Y-24194D01*
X-47247Y-24246D01*
X-47253Y-24252D01*
X-47266Y-24259D01*
X-47285Y-24278D01*
X-47311Y-24304D01*
X-47344Y-24337D01*
X-47376Y-24376D01*
X-47415Y-24421D01*
X-47454Y-24479D01*
X-47493Y-24544D01*
X-47532Y-24615D01*
X-47564Y-24693D01*
X-47596Y-24777D01*
X-47622Y-24868D01*
X-47642Y-24972D01*
X-47655Y-25082D01*
X-47661Y-25199D01*
Y-25212D01*
Y-25237D01*
Y-25289D01*
Y-25354D01*
X-47655Y-25425D01*
X-47648Y-25510D01*
X-47642Y-25607D01*
X-47635Y-25704D01*
X-44285D01*
Y-25697D01*
X-44279Y-25685D01*
Y-25659D01*
X-44272Y-25620D01*
X-44259Y-25542D01*
X-44253Y-25445D01*
Y-25438D01*
Y-25425D01*
Y-25399D01*
Y-25361D01*
X-44246Y-25283D01*
Y-25186D01*
Y-25179D01*
Y-25160D01*
Y-25127D01*
X-44253Y-25088D01*
X-44259Y-25037D01*
X-44272Y-24978D01*
X-44298Y-24842D01*
X-44350Y-24693D01*
X-44382Y-24615D01*
X-44428Y-24538D01*
X-44473Y-24460D01*
X-44531Y-24389D01*
X-44596Y-24324D01*
X-44674Y-24259D01*
X-44680Y-24252D01*
X-44693Y-24246D01*
X-44719Y-24227D01*
X-44752Y-24207D01*
X-44797Y-24188D01*
X-44855Y-24155D01*
X-44920Y-24129D01*
X-44998Y-24097D01*
X-45082Y-24071D01*
X-45179Y-24039D01*
X-45289Y-24013D01*
X-45406Y-23993D01*
X-45529Y-23967D01*
X-45672Y-23954D01*
X-45821Y-23948D01*
X-45976Y-23941D01*
D02*
G37*
G36*
X-56477Y24113D02*
X-56579D01*
X-56690Y24104D01*
X-56829Y24085D01*
X-56986Y24048D01*
X-57143Y24002D01*
X-57292Y23937D01*
X-57421Y23854D01*
X-57430Y23845D01*
X-57467Y23808D01*
X-57523Y23743D01*
X-57578Y23651D01*
X-57634Y23539D01*
X-57689Y23401D01*
X-57726Y23225D01*
X-57736Y23031D01*
Y23021D01*
Y22994D01*
Y22948D01*
Y22901D01*
X-57726Y22827D01*
X-57717Y22762D01*
X-57699Y22596D01*
X-55220D01*
Y22605D01*
X-55210Y22633D01*
Y22679D01*
X-55201Y22735D01*
X-55192Y22799D01*
Y22873D01*
X-55182Y23040D01*
Y23049D01*
Y23068D01*
Y23086D01*
X-55192Y23123D01*
X-55201Y23225D01*
X-55220Y23336D01*
X-55256Y23465D01*
X-55312Y23595D01*
X-55395Y23724D01*
X-55497Y23835D01*
X-55515Y23845D01*
X-55562Y23882D01*
X-55636Y23928D01*
X-55738Y23974D01*
X-55876Y24030D01*
X-56052Y24067D01*
X-56246Y24104D01*
X-56477Y24113D01*
D02*
G37*
G36*
X-54285Y3920D02*
Y3911D01*
Y3892D01*
Y3865D01*
Y3819D01*
X-54276Y3708D01*
X-54267Y3569D01*
X-54248Y3421D01*
X-54211Y3273D01*
X-54174Y3143D01*
X-54119Y3023D01*
X-54110Y3014D01*
X-54091Y2986D01*
X-54045Y2940D01*
X-53989Y2894D01*
X-53915Y2847D01*
X-53823Y2801D01*
X-53702Y2773D01*
X-53564Y2764D01*
X-53508D01*
X-53443Y2773D01*
X-53369Y2792D01*
X-53286Y2810D01*
X-53203Y2838D01*
X-53129Y2884D01*
X-53064Y2949D01*
X-53055Y2958D01*
X-53046Y2986D01*
X-53018Y3023D01*
X-52990Y3078D01*
X-52962Y3143D01*
X-52944Y3217D01*
X-52925Y3300D01*
X-52916Y3393D01*
Y3402D01*
Y3439D01*
X-52925Y3495D01*
X-52935Y3569D01*
X-52953Y3652D01*
X-52981Y3735D01*
X-53018Y3828D01*
X-53074Y3911D01*
X-54285Y3920D01*
D02*
G37*
G36*
X-54341Y16898D02*
X-54461D01*
X-54517Y16889D01*
X-54581D01*
X-54738Y16870D01*
X-54914Y16833D01*
X-55090Y16787D01*
X-55256Y16722D01*
X-55405Y16639D01*
X-55423Y16630D01*
X-55460Y16593D01*
X-55525Y16528D01*
X-55589Y16454D01*
X-55654Y16343D01*
X-55719Y16214D01*
X-55756Y16066D01*
X-55774Y15899D01*
Y15880D01*
Y15844D01*
X-55765Y15779D01*
X-55756Y15696D01*
X-55738Y15594D01*
X-55719Y15492D01*
X-55682Y15390D01*
X-55636Y15289D01*
X-52842D01*
Y15298D01*
X-52833Y15335D01*
X-52824Y15390D01*
X-52815Y15464D01*
X-52805Y15538D01*
X-52796Y15631D01*
X-52787Y15825D01*
Y15834D01*
Y15853D01*
Y15871D01*
X-52796Y15908D01*
X-52805Y16010D01*
X-52833Y16121D01*
X-52889Y16251D01*
X-52953Y16380D01*
X-53055Y16510D01*
X-53110Y16565D01*
X-53184Y16621D01*
X-53194D01*
X-53203Y16630D01*
X-53231Y16648D01*
X-53259Y16667D01*
X-53351Y16713D01*
X-53480Y16759D01*
X-53647Y16815D01*
X-53841Y16852D01*
X-54072Y16889D01*
X-54341Y16898D01*
D02*
G37*
G36*
X-54285Y-13886D02*
Y-13895D01*
Y-13914D01*
Y-13941D01*
Y-13988D01*
X-54276Y-14099D01*
X-54267Y-14238D01*
X-54248Y-14386D01*
X-54211Y-14534D01*
X-54174Y-14663D01*
X-54119Y-14783D01*
X-54110Y-14793D01*
X-54091Y-14820D01*
X-54045Y-14866D01*
X-53989Y-14913D01*
X-53915Y-14959D01*
X-53823Y-15005D01*
X-53702Y-15033D01*
X-53564Y-15042D01*
X-53508D01*
X-53443Y-15033D01*
X-53369Y-15014D01*
X-53286Y-14996D01*
X-53203Y-14968D01*
X-53129Y-14922D01*
X-53064Y-14857D01*
X-53055Y-14848D01*
X-53046Y-14820D01*
X-53018Y-14783D01*
X-52990Y-14728D01*
X-52962Y-14663D01*
X-52944Y-14589D01*
X-52925Y-14506D01*
X-52916Y-14413D01*
Y-14404D01*
Y-14367D01*
X-52925Y-14311D01*
X-52935Y-14238D01*
X-52953Y-14154D01*
X-52981Y-14071D01*
X-53018Y-13979D01*
X-53074Y-13895D01*
X-54285Y-13886D01*
D02*
G37*
%LPD*%
D10*
X-159465Y-90579D02*
X-92535D01*
X-159465D02*
Y27632D01*
X-159354Y27521D01*
X-159465Y27632D02*
X-92535D01*
Y-90579D02*
Y27632D01*
X58168Y-77834D02*
X57501Y-78501D01*
Y-79834D01*
X58168Y-80500D01*
X60834D01*
X61500Y-79834D01*
Y-78501D01*
X60834Y-77834D01*
X59501D01*
Y-79167D01*
X61500Y-76501D02*
X57501D01*
X61500Y-73835D01*
X57501D01*
Y-72503D02*
X61500D01*
Y-70503D01*
X60834Y-69837D01*
X58168D01*
X57501Y-70503D01*
Y-72503D01*
X-84500Y-66500D02*
X-88499D01*
X-87166Y-65167D01*
X-88499Y-63834D01*
X-84500D01*
X-88499Y-62501D02*
Y-59835D01*
Y-61168D01*
X-84500D01*
X-87832Y-58503D02*
X-88499Y-57836D01*
Y-56503D01*
X-87832Y-55837D01*
X-87166D01*
X-86499Y-56503D01*
Y-57170D01*
Y-56503D01*
X-85833Y-55837D01*
X-85166D01*
X-84500Y-56503D01*
Y-57836D01*
X-85166Y-58503D01*
X-87832Y-54504D02*
X-88499Y-53837D01*
Y-52504D01*
X-87832Y-51838D01*
X-85166D01*
X-84500Y-52504D01*
Y-53837D01*
X-85166Y-54504D01*
X-87832D01*
X-88499Y-47839D02*
X-87832Y-49172D01*
X-86499Y-50505D01*
X-85166D01*
X-84500Y-49839D01*
Y-48506D01*
X-85166Y-47839D01*
X-85833D01*
X-86499Y-48506D01*
Y-50505D01*
X-87832Y-46507D02*
X-88499Y-45840D01*
Y-44507D01*
X-87832Y-43841D01*
X-87166D01*
X-86499Y-44507D01*
X-85833Y-43841D01*
X-85166D01*
X-84500Y-44507D01*
Y-45840D01*
X-85166Y-46507D01*
X-85833D01*
X-86499Y-45840D01*
X-87166Y-46507D01*
X-87832D01*
X-86499Y-45840D02*
Y-44507D01*
X-110999Y10976D02*
Y9643D01*
X-110332Y8976D01*
X-107667D01*
X-107000Y9643D01*
Y10976D01*
X-107667Y11642D01*
X-110332D01*
X-110999Y10976D01*
Y12975D02*
X-107667D01*
X-107000Y13642D01*
Y14974D01*
X-107667Y15641D01*
X-110999D01*
Y16974D02*
Y19640D01*
Y18307D01*
X-107000D01*
X-108999Y20973D02*
Y23638D01*
X-145499Y10976D02*
Y9643D01*
X-144832Y8976D01*
X-142166D01*
X-141500Y9643D01*
Y10976D01*
X-142166Y11642D01*
X-144832D01*
X-145499Y10976D01*
Y12975D02*
X-142166D01*
X-141500Y13642D01*
Y14974D01*
X-142166Y15641D01*
X-145499D01*
Y16974D02*
Y19640D01*
Y18307D01*
X-141500D01*
X-143499Y20973D02*
Y23638D01*
X-144832Y22305D02*
X-142166D01*
X-145499Y-80024D02*
Y-78691D01*
Y-79357D01*
X-141500D01*
Y-80024D01*
Y-78691D01*
Y-76691D02*
X-145499D01*
X-141500Y-74026D01*
X-145499D01*
X-143499Y-72693D02*
Y-70027D01*
X-144832Y-71360D02*
X-142166D01*
X-110999Y-80024D02*
Y-78691D01*
Y-79357D01*
X-107000D01*
Y-80024D01*
Y-78691D01*
Y-76691D02*
X-110999D01*
X-107000Y-74026D01*
X-110999D01*
X-108999Y-72693D02*
Y-70027D01*
X-84499Y39500D02*
X-80500D01*
X-82499D01*
Y42166D01*
X-84499D01*
X-80500D01*
Y43499D02*
X-84499D01*
X-83166Y44832D01*
X-84499Y46165D01*
X-80500D01*
X-82499Y47497D02*
Y50163D01*
X-80500Y51496D02*
Y52829D01*
Y52163D01*
X-84499D01*
X-83832Y51496D01*
X-80500Y54828D02*
Y56161D01*
Y55495D01*
X-84499D01*
X-83832Y54828D01*
X-36500Y5500D02*
Y9499D01*
X-34501D01*
X-33834Y8832D01*
Y7499D01*
X-34501Y6833D01*
X-36500D01*
X-35167D02*
X-33834Y5500D01*
X-29836Y9499D02*
X-31168Y8832D01*
X-32501Y7499D01*
Y6166D01*
X-31835Y5500D01*
X-30502D01*
X-29836Y6166D01*
Y6833D01*
X-30502Y7499D01*
X-32501D01*
X-36500Y-2000D02*
Y1999D01*
X-34501D01*
X-33834Y1332D01*
Y-1D01*
X-34501Y-667D01*
X-36500D01*
X-35167D02*
X-33834Y-2000D01*
X-29836Y1999D02*
X-32501D01*
Y-1D01*
X-31168Y666D01*
X-30502D01*
X-29836Y-1D01*
Y-1333D01*
X-30502Y-2000D01*
X-31835D01*
X-32501Y-1333D01*
X-36500Y-9500D02*
Y-5501D01*
X-34501D01*
X-33834Y-6168D01*
Y-7501D01*
X-34501Y-8167D01*
X-36500D01*
X-35167D02*
X-33834Y-9500D01*
X-30502D02*
Y-5501D01*
X-32501Y-7501D01*
X-29836D01*
X24000Y-27500D02*
X27463Y-25501D01*
X28463Y-27232D01*
X28219Y-28142D01*
X27064Y-28809D01*
X26154Y-28565D01*
X25154Y-26834D01*
X25821Y-27988D02*
X25333Y-29809D01*
X28885Y-29297D02*
X29796Y-29541D01*
X30462Y-30695D01*
X30218Y-31605D01*
X29641Y-31939D01*
X28730Y-31695D01*
X28397Y-31118D01*
X28730Y-31695D01*
X28487Y-32605D01*
X27909Y-32938D01*
X26999Y-32695D01*
X26333Y-31540D01*
X26577Y-30630D01*
X16500Y-31500D02*
X19963Y-29501D01*
X20963Y-31232D01*
X20719Y-32142D01*
X19564Y-32809D01*
X18654Y-32565D01*
X17654Y-30834D01*
X18321Y-31988D02*
X17833Y-33809D01*
X19832Y-37272D02*
X18499Y-34963D01*
X22141Y-35939D01*
X22718Y-35605D01*
X22962Y-34695D01*
X22296Y-33541D01*
X21385Y-33297D01*
X9000Y-36000D02*
X12463Y-34001D01*
X13463Y-35732D01*
X13219Y-36643D01*
X12064Y-37309D01*
X11154Y-37065D01*
X10154Y-35334D01*
X10821Y-36488D02*
X10333Y-38309D01*
X10999Y-39463D02*
X11666Y-40617D01*
X11333Y-40040D01*
X14796Y-38041D01*
X13885Y-37797D01*
X57668Y73666D02*
X57001Y72999D01*
Y71666D01*
X57668Y71000D01*
X60334D01*
X61000Y71666D01*
Y72999D01*
X60334Y73666D01*
X59001D01*
Y72333D01*
X61000Y74999D02*
X57001D01*
X61000Y77665D01*
X57001D01*
Y78997D02*
X61000D01*
Y80997D01*
X60334Y81663D01*
X57668D01*
X57001Y80997D01*
Y78997D01*
X-57499Y-94000D02*
X-54833D01*
X-53500Y-92667D01*
X-54833Y-91334D01*
X-57499D01*
X-56832Y-87335D02*
X-57499Y-88002D01*
Y-89335D01*
X-56832Y-90001D01*
X-54166D01*
X-53500Y-89335D01*
Y-88002D01*
X-54166Y-87335D01*
X-56832Y-83337D02*
X-57499Y-84003D01*
Y-85336D01*
X-56832Y-86003D01*
X-54166D01*
X-53500Y-85336D01*
Y-84003D01*
X-54166Y-83337D01*
D29*
X55000Y-85000D02*
X75000D01*
X55000Y-95000D02*
Y-85000D01*
Y-95000D02*
X75000D01*
Y-85000D01*
X-139894Y92076D02*
X-87394Y92077D01*
X-159894Y38876D02*
Y92076D01*
X-139894D01*
X-159894Y38876D02*
X-139894D01*
X-154894Y72376D02*
Y79376D01*
X-154394Y79876D01*
X-141894D01*
X-141394Y80376D01*
Y86376D01*
X-141894Y86876D02*
X-141394Y86376D01*
X-154894Y86876D02*
X-141894D01*
X-154894Y57876D02*
Y64876D01*
X-154394Y65376D01*
X-141894D01*
X-141394Y65876D01*
Y71876D01*
X-141894Y72376D02*
X-141394Y71876D01*
X-154894Y72376D02*
X-141894D01*
X-154894Y57876D02*
X-141894D01*
X-141394Y57376D01*
Y51376D02*
Y57376D01*
X-141894Y50876D02*
X-141394Y51376D01*
X-154394Y50876D02*
X-141894D01*
X-154894Y50376D02*
X-154394Y50876D01*
X-154894Y43376D02*
Y50376D01*
X-87394Y38876D02*
Y92077D01*
X-139894Y38876D02*
X-87394D01*
X-6674Y29560D02*
X-6150Y31518D01*
X-23504Y19844D02*
X-5433Y30277D01*
X-33937Y37914D02*
X-23504Y19844D01*
X-15866Y48347D02*
X-5433Y30277D01*
X-33937Y37914D02*
X-15866Y48347D01*
X39979Y51246D02*
X41937Y51771D01*
X23150Y60963D02*
X41220Y50530D01*
X23150Y60963D02*
X33583Y79033D01*
X41220Y50530D02*
X51653Y68600D01*
X33583Y79033D02*
X51653Y68600D01*
X-85236Y-10433D02*
Y10433D01*
X-64370D01*
X-85236Y-10433D02*
X-64370D01*
Y10433D01*
X-65803D02*
X-64370Y9000D01*
X32665Y-32920D02*
X34165Y-35518D01*
X28335Y-35420D02*
X29835Y-38018D01*
X36165Y-38982D02*
X37665Y-41580D01*
X31835Y-41482D02*
X33335Y-44080D01*
X37665Y-41580D01*
X28335Y-35420D02*
X32665Y-32920D01*
X25165Y-37420D02*
X26665Y-40018D01*
X20835Y-39920D02*
X22335Y-42518D01*
X28665Y-43482D02*
X30165Y-46080D01*
X24335Y-45982D02*
X25835Y-48580D01*
X30165Y-46080D01*
X20835Y-39920D02*
X25165Y-37420D01*
X17665Y-41920D02*
X19165Y-44518D01*
X13335Y-44420D02*
X14835Y-47018D01*
X21165Y-47982D02*
X22665Y-50580D01*
X16835Y-50482D02*
X18335Y-53080D01*
X22665Y-50580D01*
X13335Y-44420D02*
X17665Y-41920D01*
X-27000Y10000D02*
X-24000D01*
X-27000Y5000D02*
X-24000D01*
X-20000Y10000D02*
X-17000D01*
X-20000Y5000D02*
X-17000D01*
Y10000D01*
X-27000Y5000D02*
Y10000D01*
Y2500D02*
X-24000D01*
X-27000Y-2500D02*
X-24000D01*
X-20000Y2500D02*
X-17000D01*
X-20000Y-2500D02*
X-17000D01*
Y2500D01*
X-27000Y-2500D02*
Y2500D01*
Y-5000D02*
X-24000D01*
X-27000Y-10000D02*
X-24000D01*
X-20000Y-5000D02*
X-17000D01*
X-20000Y-10000D02*
X-17000D01*
Y-5000D01*
X-27000Y-10000D02*
Y-5000D01*
X23866Y-62204D02*
X24391Y-60246D01*
X23150Y-60963D02*
X41220Y-50530D01*
X51653Y-68600D01*
X23150Y-60963D02*
X33583Y-79033D01*
X51653Y-68600D01*
X64370Y-9000D02*
X65803Y-10433D01*
X64370D02*
Y10433D01*
X85236D01*
X64370Y-10433D02*
X85236D01*
Y10433D01*
X28937Y-9000D02*
X30370Y-10433D01*
X28937D02*
Y10433D01*
X49803D01*
X28937Y-10433D02*
X49803D01*
Y10433D01*
X-10433Y9000D02*
X-9000Y10433D01*
X-10433D02*
X10433D01*
Y-10433D02*
Y10433D01*
X-10433Y-10433D02*
Y10433D01*
Y-10433D02*
X10433D01*
X-34824Y-78317D02*
X-32866Y-77792D01*
X-51653Y-68600D02*
X-33583Y-79033D01*
X-51653Y-68600D02*
X-41220Y-50530D01*
X-33583Y-79033D02*
X-23150Y-60963D01*
X-41220Y-50530D02*
X-23150Y-60963D01*
X-24220Y-21085D02*
X-22263Y-20560D01*
X-23504Y-19844D02*
X-5433Y-30277D01*
X-15866Y-48347D02*
X-5433Y-30277D01*
X-33937Y-37914D02*
X-23504Y-19844D01*
X-33937Y-37914D02*
X-15866Y-48347D01*
X-51653Y68600D02*
X-33583Y79033D01*
X-23150Y60963D01*
X-51653Y68600D02*
X-41220Y50530D01*
X-23150Y60963D01*
X-24391Y60246D02*
X-23866Y62204D01*
X-42500Y-85124D02*
X50000D01*
X-50000D02*
X-42500D01*
X-50000Y-95124D02*
Y-85124D01*
Y-95124D02*
X50000D01*
Y-85124D01*
Y85079D02*
Y95079D01*
X-50000Y85079D02*
X50000D01*
X-50000D02*
Y95079D01*
X-42500D01*
X50000D01*
X54500Y95000D02*
X74500D01*
X54500Y85000D02*
Y95000D01*
Y85000D02*
X74500D01*
Y95000D01*
M02*
