M48
;Layer_Color=9474304
;FILE_FORMAT=2:5
INCH,TZ
;TYPE=PLATED
T1F00S00C0.03000
T2F00S00C0.03543
%
T01
X82500Y-90500
X-87500Y-92000
Y-86000
Y-80000
Y-74000
X-93500Y1000
X-100000
X-106500
X-114953Y31047
X-126764Y31236
X-7000Y-15000
Y-21500
X13000Y-27000
X14984Y90126
X4995
X-4995
X-14984
X-24974
X-34963
X24974
X34963
X44953
X80000Y90000
X87500
X-91331Y82169
X-109047Y84500
X-109000Y78500
T02
X-45000Y-90124
X-35000
X-25000
X-15000
X-5000
X5000
X15000
X25000
X35000
X45000
X60000Y-90000
X70000
X69500Y90000
X59500
X-45000Y90079
M30
