G04 Layer_Physical_Order=2*
G04 Layer_Color=16711680*
%FSLAX25Y25*%
%MOIN*%
G70*
G01*
G75*
%ADD10C,0.01000*%
%ADD19C,0.02000*%
%ADD20C,0.01500*%
%ADD23C,0.05906*%
%ADD24R,0.05906X0.05906*%
%ADD25C,0.06000*%
%ADD26P,0.05412X8X22.5*%
%ADD27C,0.05000*%
%ADD28R,0.02362X0.03937*%
G36*
X93530Y-98711D02*
X-163687D01*
Y97483D01*
X93530D01*
Y-98711D01*
D02*
G37*
%LPC*%
G36*
X-87000Y-70536D02*
Y-73500D01*
X-84036D01*
X-84090Y-73086D01*
X-84443Y-72235D01*
X-85004Y-71504D01*
X-85735Y-70943D01*
X-86586Y-70590D01*
X-87000Y-70536D01*
D02*
G37*
G36*
X-88000D02*
X-88414Y-70590D01*
X-89265Y-70943D01*
X-89996Y-71504D01*
X-90557Y-72235D01*
X-90910Y-73086D01*
X-90964Y-73500D01*
X-88000D01*
Y-70536D01*
D02*
G37*
G36*
X35701Y-71000D02*
X34020D01*
Y-73469D01*
X35701D01*
Y-71000D01*
D02*
G37*
G36*
X33020D02*
X31339D01*
Y-73469D01*
X33020D01*
Y-71000D01*
D02*
G37*
G36*
X-84036Y-74500D02*
X-90964D01*
X-90910Y-74914D01*
X-90557Y-75765D01*
X-89996Y-76496D01*
X-89666Y-76750D01*
Y-77250D01*
X-89996Y-77504D01*
X-90557Y-78235D01*
X-90910Y-79086D01*
X-90964Y-79500D01*
X-84036D01*
X-84090Y-79086D01*
X-84443Y-78235D01*
X-85004Y-77504D01*
X-85334Y-77250D01*
Y-76750D01*
X-85004Y-76496D01*
X-84443Y-75765D01*
X-84090Y-74914D01*
X-84036Y-74500D01*
D02*
G37*
G36*
X69500Y-86079D02*
X68968Y-86149D01*
X68007Y-86547D01*
X67181Y-87181D01*
X66547Y-88007D01*
X66149Y-88968D01*
X66079Y-89500D01*
X69500D01*
Y-86079D01*
D02*
G37*
G36*
X63953Y-86047D02*
X60500D01*
Y-89500D01*
X63953D01*
Y-86047D01*
D02*
G37*
G36*
X-84036Y-80500D02*
X-90964D01*
X-90910Y-80914D01*
X-90557Y-81765D01*
X-89996Y-82496D01*
X-89666Y-82750D01*
Y-83250D01*
X-89996Y-83504D01*
X-90557Y-84235D01*
X-90910Y-85086D01*
X-90964Y-85500D01*
X-84036D01*
X-84090Y-85086D01*
X-84443Y-84235D01*
X-85004Y-83504D01*
X-85334Y-83250D01*
Y-82750D01*
X-85004Y-82496D01*
X-84443Y-81765D01*
X-84090Y-80914D01*
X-84036Y-80500D01*
D02*
G37*
G36*
X70500Y-86079D02*
Y-89500D01*
X73921D01*
X73851Y-88968D01*
X73453Y-88007D01*
X72819Y-87181D01*
X71993Y-86547D01*
X71032Y-86149D01*
X70500Y-86079D01*
D02*
G37*
G36*
X-93000Y4464D02*
Y1500D01*
X-90036D01*
X-90090Y1914D01*
X-90443Y2765D01*
X-91004Y3496D01*
X-91735Y4057D01*
X-92586Y4410D01*
X-93000Y4464D01*
D02*
G37*
G36*
X-107000D02*
X-107414Y4410D01*
X-108265Y4057D01*
X-108996Y3496D01*
X-109557Y2765D01*
X-109910Y1914D01*
X-109964Y1500D01*
X-107000D01*
Y4464D01*
D02*
G37*
G36*
X-94000D02*
X-94414Y4410D01*
X-95265Y4057D01*
X-95996Y3496D01*
X-96456Y2897D01*
X-96612Y2855D01*
X-96888D01*
X-97044Y2897D01*
X-97504Y3496D01*
X-98235Y4057D01*
X-99086Y4410D01*
X-99500Y4464D01*
Y1000D01*
Y-2464D01*
X-99086Y-2410D01*
X-98235Y-2057D01*
X-97504Y-1496D01*
X-97044Y-897D01*
X-96888Y-855D01*
X-96612D01*
X-96456Y-897D01*
X-95996Y-1496D01*
X-95265Y-2057D01*
X-94414Y-2410D01*
X-94000Y-2464D01*
Y1000D01*
Y4464D01*
D02*
G37*
G36*
X-100500D02*
X-100914Y4410D01*
X-101765Y4057D01*
X-102496Y3496D01*
X-102956Y2897D01*
X-103112Y2855D01*
X-103388D01*
X-103544Y2897D01*
X-104004Y3496D01*
X-104735Y4057D01*
X-105586Y4410D01*
X-106000Y4464D01*
Y1000D01*
Y-2464D01*
X-105586Y-2410D01*
X-104735Y-2057D01*
X-104004Y-1496D01*
X-103544Y-897D01*
X-103388Y-855D01*
X-103112D01*
X-102956Y-897D01*
X-102496Y-1496D01*
X-101765Y-2057D01*
X-100914Y-2410D01*
X-100500Y-2464D01*
Y1000D01*
Y4464D01*
D02*
G37*
G36*
X-90036Y500D02*
X-93000D01*
Y-2464D01*
X-92586Y-2410D01*
X-91735Y-2057D01*
X-91004Y-1496D01*
X-90443Y-765D01*
X-90090Y86D01*
X-90036Y500D01*
D02*
G37*
G36*
X35701Y-67532D02*
X34020D01*
Y-70000D01*
X35701D01*
Y-67532D01*
D02*
G37*
G36*
X33020D02*
X31339D01*
Y-70000D01*
X33020D01*
Y-67532D01*
D02*
G37*
G36*
X-107000Y500D02*
X-109964D01*
X-109910Y86D01*
X-109557Y-765D01*
X-108996Y-1496D01*
X-108265Y-2057D01*
X-107414Y-2410D01*
X-107000Y-2464D01*
Y500D01*
D02*
G37*
G36*
X13000Y-23684D02*
X12142Y-23797D01*
X11342Y-24128D01*
X10655Y-24655D01*
X10129Y-25342D01*
X9797Y-26142D01*
X9684Y-27000D01*
X9797Y-27858D01*
X10129Y-28658D01*
X10655Y-29345D01*
X11342Y-29871D01*
X12142Y-30203D01*
X13000Y-30316D01*
X13858Y-30203D01*
X14658Y-29871D01*
X15345Y-29345D01*
X15745Y-28822D01*
X29745D01*
X35437Y-34515D01*
Y-56917D01*
X35291D01*
Y-62429D01*
X39228D01*
Y-56917D01*
X39082D01*
Y-33760D01*
X39082Y-33760D01*
X38943Y-33062D01*
X38548Y-32471D01*
X38548Y-32471D01*
X31789Y-25711D01*
X31197Y-25316D01*
X30500Y-25178D01*
X30500Y-25178D01*
X15745D01*
X15345Y-24655D01*
X14658Y-24128D01*
X13858Y-23797D01*
X13000Y-23684D01*
D02*
G37*
G36*
X59500Y-86047D02*
X56047D01*
Y-89500D01*
X59500D01*
Y-86047D01*
D02*
G37*
G36*
X-35000Y-86351D02*
X-35976Y-86480D01*
X-36886Y-86857D01*
X-37668Y-87456D01*
X-38267Y-88237D01*
X-38644Y-89147D01*
X-38772Y-90124D01*
X-38644Y-91100D01*
X-38267Y-92010D01*
X-37668Y-92791D01*
X-36886Y-93391D01*
X-35976Y-93767D01*
X-35000Y-93896D01*
X-34024Y-93767D01*
X-33114Y-93391D01*
X-32333Y-92791D01*
X-31733Y-92010D01*
X-31356Y-91100D01*
X-31228Y-90124D01*
X-31356Y-89147D01*
X-31733Y-88237D01*
X-32333Y-87456D01*
X-33114Y-86857D01*
X-34024Y-86480D01*
X-35000Y-86351D01*
D02*
G37*
G36*
X73921Y-90500D02*
X70500D01*
Y-93921D01*
X71032Y-93851D01*
X71993Y-93453D01*
X72819Y-92819D01*
X73453Y-91993D01*
X73851Y-91032D01*
X73921Y-90500D01*
D02*
G37*
G36*
X-114953Y34363D02*
X-115811Y34250D01*
X-116611Y33919D01*
X-117297Y33392D01*
X-117824Y32705D01*
X-118156Y31905D01*
X-118269Y31047D01*
X-118156Y30189D01*
X-117824Y29389D01*
X-117297Y28703D01*
X-116611Y28176D01*
X-116520Y28138D01*
Y-15047D01*
X-116401Y-15647D01*
X-116061Y-16156D01*
X-55608Y-76608D01*
X-55100Y-76948D01*
X-54500Y-77068D01*
X-25649D01*
X-16567Y-86149D01*
Y-86725D01*
X-16886Y-86857D01*
X-17668Y-87456D01*
X-18267Y-88237D01*
X-18644Y-89147D01*
X-18772Y-90124D01*
X-18644Y-91100D01*
X-18267Y-92010D01*
X-17668Y-92791D01*
X-16886Y-93391D01*
X-15976Y-93767D01*
X-15000Y-93896D01*
X-14024Y-93767D01*
X-13114Y-93391D01*
X-12332Y-92791D01*
X-11733Y-92010D01*
X-11356Y-91100D01*
X-11228Y-90124D01*
X-11356Y-89147D01*
X-11733Y-88237D01*
X-12332Y-87456D01*
X-13114Y-86857D01*
X-13432Y-86725D01*
Y-85500D01*
X-13552Y-84900D01*
X-13892Y-84392D01*
X-23892Y-74392D01*
X-24400Y-74052D01*
X-25000Y-73932D01*
X-53851D01*
X-113385Y-14398D01*
Y28138D01*
X-113295Y28176D01*
X-112608Y28703D01*
X-112081Y29389D01*
X-111750Y30189D01*
X-111637Y31047D01*
X-111750Y31905D01*
X-112081Y32705D01*
X-112608Y33392D01*
X-113295Y33919D01*
X-114095Y34250D01*
X-114953Y34363D01*
D02*
G37*
G36*
X-126764Y34552D02*
X-127622Y34439D01*
X-128422Y34108D01*
X-129108Y33581D01*
X-129635Y32894D01*
X-129966Y32094D01*
X-130079Y31236D01*
X-129966Y30378D01*
X-129635Y29578D01*
X-129108Y28892D01*
X-128422Y28365D01*
X-128331Y28327D01*
Y-11236D01*
X-128212Y-11836D01*
X-127872Y-12345D01*
X-59608Y-80608D01*
X-59100Y-80948D01*
X-58500Y-81068D01*
X-36273D01*
X-28512Y-88829D01*
X-28644Y-89147D01*
X-28772Y-90124D01*
X-28644Y-91100D01*
X-28267Y-92010D01*
X-27667Y-92791D01*
X-26886Y-93391D01*
X-25976Y-93767D01*
X-25000Y-93896D01*
X-24024Y-93767D01*
X-23114Y-93391D01*
X-22332Y-92791D01*
X-21733Y-92010D01*
X-21356Y-91100D01*
X-21228Y-90124D01*
X-21356Y-89147D01*
X-21733Y-88237D01*
X-22332Y-87456D01*
X-23114Y-86857D01*
X-24024Y-86480D01*
X-25000Y-86351D01*
X-25976Y-86480D01*
X-26295Y-86612D01*
X-34515Y-78392D01*
X-35024Y-78052D01*
X-35624Y-77933D01*
X-57851D01*
X-125196Y-10587D01*
Y28327D01*
X-125106Y28365D01*
X-124419Y28892D01*
X-123892Y29578D01*
X-123561Y30378D01*
X-123448Y31236D01*
X-123561Y32094D01*
X-123892Y32894D01*
X-124419Y33581D01*
X-125106Y34108D01*
X-125906Y34439D01*
X-126764Y34552D01*
D02*
G37*
G36*
X69500Y-90500D02*
X66079D01*
X66149Y-91032D01*
X66547Y-91993D01*
X67181Y-92819D01*
X68007Y-93453D01*
X68968Y-93851D01*
X69500Y-93921D01*
Y-90500D01*
D02*
G37*
G36*
X-84036Y-92500D02*
X-87000D01*
Y-95464D01*
X-86586Y-95410D01*
X-85735Y-95057D01*
X-85004Y-94496D01*
X-84443Y-93765D01*
X-84090Y-92914D01*
X-84036Y-92500D01*
D02*
G37*
G36*
X-88000D02*
X-90964D01*
X-90910Y-92914D01*
X-90557Y-93765D01*
X-89996Y-94496D01*
X-89265Y-95057D01*
X-88414Y-95410D01*
X-88000Y-95464D01*
Y-92500D01*
D02*
G37*
G36*
X63953Y-90500D02*
X60500D01*
Y-93953D01*
X63953D01*
Y-90500D01*
D02*
G37*
G36*
X59500D02*
X56047D01*
Y-93953D01*
X59500D01*
Y-90500D01*
D02*
G37*
G36*
X-91331Y85485D02*
X-92189Y85372D01*
X-92989Y85041D01*
X-93675Y84514D01*
X-94202Y83827D01*
X-94533Y83027D01*
X-94647Y82169D01*
X-94533Y81311D01*
X-94202Y80511D01*
X-93675Y79825D01*
X-93068Y79358D01*
Y42649D01*
X-97149Y38568D01*
X-133000D01*
X-133600Y38448D01*
X-134108Y38108D01*
X-138608Y33608D01*
X-138948Y33100D01*
X-139067Y32500D01*
Y-14000D01*
X-138948Y-14600D01*
X-138608Y-15108D01*
X-62485Y-91232D01*
X-61976Y-91572D01*
X-61376Y-91691D01*
X-48740D01*
Y-93864D01*
X-41260D01*
Y-86383D01*
X-48740D01*
Y-88556D01*
X-60727D01*
X-135933Y-13351D01*
Y31851D01*
X-132351Y35432D01*
X-96500D01*
X-95900Y35552D01*
X-95392Y35892D01*
X-90392Y40892D01*
X-90052Y41400D01*
X-89933Y42000D01*
Y79190D01*
X-89673Y79298D01*
X-88986Y79825D01*
X-88459Y80511D01*
X-88128Y81311D01*
X-88015Y82169D01*
X-88128Y83027D01*
X-88459Y83827D01*
X-88986Y84514D01*
X-89673Y85041D01*
X-90473Y85372D01*
X-91331Y85485D01*
D02*
G37*
G36*
X42968Y-67744D02*
X39031D01*
Y-73256D01*
X39687D01*
Y-79000D01*
X39787Y-79502D01*
X40072Y-79928D01*
X43687Y-83544D01*
Y-86619D01*
X43114Y-86857D01*
X42333Y-87456D01*
X41733Y-88237D01*
X41356Y-89147D01*
X41228Y-90124D01*
X41356Y-91100D01*
X41733Y-92010D01*
X42333Y-92791D01*
X43114Y-93391D01*
X44024Y-93767D01*
X45000Y-93896D01*
X45976Y-93767D01*
X46886Y-93391D01*
X47668Y-92791D01*
X48267Y-92010D01*
X48644Y-91100D01*
X48772Y-90124D01*
X48644Y-89147D01*
X48267Y-88237D01*
X47668Y-87456D01*
X46886Y-86857D01*
X46313Y-86619D01*
Y-83000D01*
X46213Y-82498D01*
X45928Y-82072D01*
X42313Y-78456D01*
Y-73256D01*
X42968D01*
Y-67744D01*
D02*
G37*
G36*
X-84036Y-86500D02*
X-90964D01*
X-90910Y-86914D01*
X-90557Y-87765D01*
X-89996Y-88496D01*
X-89666Y-88750D01*
Y-89250D01*
X-89996Y-89504D01*
X-90557Y-90235D01*
X-90910Y-91086D01*
X-90964Y-91500D01*
X-84036D01*
X-84090Y-91086D01*
X-84443Y-90235D01*
X-85004Y-89504D01*
X-85334Y-89250D01*
Y-88750D01*
X-85004Y-88496D01*
X-84443Y-87765D01*
X-84090Y-86914D01*
X-84036Y-86500D01*
D02*
G37*
G36*
X84144Y-87213D02*
X80856D01*
X79213Y-88856D01*
Y-92144D01*
X80856Y-93787D01*
X84144D01*
X85787Y-92144D01*
Y-88856D01*
X84144Y-87213D01*
D02*
G37*
G36*
X35000Y-86351D02*
X34024Y-86480D01*
X33114Y-86857D01*
X32333Y-87456D01*
X31733Y-88237D01*
X31356Y-89147D01*
X31228Y-90124D01*
X31356Y-91100D01*
X31733Y-92010D01*
X32333Y-92791D01*
X33114Y-93391D01*
X34024Y-93767D01*
X35000Y-93896D01*
X35976Y-93767D01*
X36886Y-93391D01*
X37668Y-92791D01*
X38267Y-92010D01*
X38644Y-91100D01*
X38772Y-90124D01*
X38644Y-89147D01*
X38267Y-88237D01*
X37668Y-87456D01*
X36886Y-86857D01*
X35976Y-86480D01*
X35000Y-86351D01*
D02*
G37*
G36*
X5000D02*
X4024Y-86480D01*
X3114Y-86857D01*
X2332Y-87456D01*
X1733Y-88237D01*
X1356Y-89147D01*
X1228Y-90124D01*
X1356Y-91100D01*
X1733Y-92010D01*
X2332Y-92791D01*
X3114Y-93391D01*
X4024Y-93767D01*
X5000Y-93896D01*
X5976Y-93767D01*
X6886Y-93391D01*
X7667Y-92791D01*
X8267Y-92010D01*
X8644Y-91100D01*
X8772Y-90124D01*
X8644Y-89147D01*
X8267Y-88237D01*
X7667Y-87456D01*
X6886Y-86857D01*
X5976Y-86480D01*
X5000Y-86351D01*
D02*
G37*
G36*
X-5000D02*
X-5976Y-86480D01*
X-6886Y-86857D01*
X-7667Y-87456D01*
X-8267Y-88237D01*
X-8644Y-89147D01*
X-8772Y-90124D01*
X-8644Y-91100D01*
X-8267Y-92010D01*
X-7667Y-92791D01*
X-6886Y-93391D01*
X-5976Y-93767D01*
X-5000Y-93896D01*
X-4024Y-93767D01*
X-3114Y-93391D01*
X-2332Y-92791D01*
X-1733Y-92010D01*
X-1356Y-91100D01*
X-1228Y-90124D01*
X-1356Y-89147D01*
X-1733Y-88237D01*
X-2332Y-87456D01*
X-3114Y-86857D01*
X-4024Y-86480D01*
X-5000Y-86351D01*
D02*
G37*
G36*
X25000D02*
X24024Y-86480D01*
X23114Y-86857D01*
X22332Y-87456D01*
X21733Y-88237D01*
X21356Y-89147D01*
X21228Y-90124D01*
X21356Y-91100D01*
X21733Y-92010D01*
X22332Y-92791D01*
X23114Y-93391D01*
X24024Y-93767D01*
X25000Y-93896D01*
X25976Y-93767D01*
X26886Y-93391D01*
X27667Y-92791D01*
X28267Y-92010D01*
X28644Y-91100D01*
X28772Y-90124D01*
X28644Y-89147D01*
X28267Y-88237D01*
X27667Y-87456D01*
X26886Y-86857D01*
X25976Y-86480D01*
X25000Y-86351D01*
D02*
G37*
G36*
X15000D02*
X14024Y-86480D01*
X13114Y-86857D01*
X12332Y-87456D01*
X11733Y-88237D01*
X11356Y-89147D01*
X11228Y-90124D01*
X11356Y-91100D01*
X11733Y-92010D01*
X12332Y-92791D01*
X13114Y-93391D01*
X14024Y-93767D01*
X15000Y-93896D01*
X15976Y-93767D01*
X16886Y-93391D01*
X17668Y-92791D01*
X18267Y-92010D01*
X18644Y-91100D01*
X18772Y-90124D01*
X18644Y-89147D01*
X18267Y-88237D01*
X17668Y-87456D01*
X16886Y-86857D01*
X15976Y-86480D01*
X15000Y-86351D01*
D02*
G37*
G36*
X4995Y93946D02*
X4006Y93816D01*
X3085Y93435D01*
X2294Y92828D01*
X1687Y92036D01*
X1305Y91115D01*
X1175Y90126D01*
X1305Y89138D01*
X1687Y88216D01*
X2294Y87425D01*
X3085Y86818D01*
X4006Y86436D01*
X4995Y86306D01*
X5984Y86436D01*
X6905Y86818D01*
X7696Y87425D01*
X8303Y88216D01*
X8685Y89138D01*
X8815Y90126D01*
X8685Y91115D01*
X8303Y92036D01*
X7696Y92828D01*
X6905Y93435D01*
X5984Y93816D01*
X4995Y93946D01*
D02*
G37*
G36*
X-4995D02*
X-5984Y93816D01*
X-6905Y93435D01*
X-7696Y92828D01*
X-8303Y92036D01*
X-8685Y91115D01*
X-8815Y90126D01*
X-8685Y89138D01*
X-8303Y88216D01*
X-7696Y87425D01*
X-6905Y86818D01*
X-5984Y86436D01*
X-4995Y86306D01*
X-4006Y86436D01*
X-3085Y86818D01*
X-2294Y87425D01*
X-1687Y88216D01*
X-1305Y89138D01*
X-1175Y90126D01*
X-1305Y91115D01*
X-1687Y92036D01*
X-2294Y92828D01*
X-3085Y93435D01*
X-4006Y93816D01*
X-4995Y93946D01*
D02*
G37*
G36*
X24974D02*
X23985Y93816D01*
X23064Y93435D01*
X22273Y92828D01*
X21666Y92036D01*
X21284Y91115D01*
X21154Y90126D01*
X21284Y89138D01*
X21666Y88216D01*
X22273Y87425D01*
X23064Y86818D01*
X23985Y86436D01*
X24974Y86306D01*
X25962Y86436D01*
X26884Y86818D01*
X27675Y87425D01*
X28282Y88216D01*
X28664Y89138D01*
X28794Y90126D01*
X28664Y91115D01*
X28282Y92036D01*
X27675Y92828D01*
X26884Y93435D01*
X25962Y93816D01*
X24974Y93946D01*
D02*
G37*
G36*
X14984D02*
X13995Y93816D01*
X13074Y93435D01*
X12283Y92828D01*
X11676Y92036D01*
X11294Y91115D01*
X11164Y90126D01*
X11294Y89138D01*
X11676Y88216D01*
X12283Y87425D01*
X13074Y86818D01*
X13995Y86436D01*
X14984Y86306D01*
X15973Y86436D01*
X16894Y86818D01*
X17685Y87425D01*
X18293Y88216D01*
X18674Y89138D01*
X18804Y90126D01*
X18674Y91115D01*
X18293Y92036D01*
X17685Y92828D01*
X16894Y93435D01*
X15973Y93816D01*
X14984Y93946D01*
D02*
G37*
G36*
X-14984D02*
X-15973Y93816D01*
X-16894Y93435D01*
X-17685Y92828D01*
X-18293Y92036D01*
X-18674Y91115D01*
X-18804Y90126D01*
X-18674Y89138D01*
X-18293Y88216D01*
X-17685Y87425D01*
X-16894Y86818D01*
X-15973Y86436D01*
X-14984Y86306D01*
X-13995Y86436D01*
X-13074Y86818D01*
X-12283Y87425D01*
X-11676Y88216D01*
X-11294Y89138D01*
X-11164Y90126D01*
X-11294Y91115D01*
X-11676Y92036D01*
X-12283Y92828D01*
X-13074Y93435D01*
X-13995Y93816D01*
X-14984Y93946D01*
D02*
G37*
G36*
X-41079Y89579D02*
X-44500D01*
Y86158D01*
X-43968Y86228D01*
X-43007Y86626D01*
X-42181Y87260D01*
X-41547Y88086D01*
X-41149Y89047D01*
X-41079Y89579D01*
D02*
G37*
G36*
X-45500D02*
X-48921D01*
X-48851Y89047D01*
X-48453Y88086D01*
X-47819Y87260D01*
X-46993Y86626D01*
X-46032Y86228D01*
X-45500Y86158D01*
Y89579D01*
D02*
G37*
G36*
X-24974Y93946D02*
X-25962Y93816D01*
X-26884Y93435D01*
X-27675Y92828D01*
X-28282Y92036D01*
X-28664Y91115D01*
X-28794Y90126D01*
X-28664Y89138D01*
X-28282Y88216D01*
X-27675Y87425D01*
X-26884Y86818D01*
X-25962Y86436D01*
X-24974Y86306D01*
X-23985Y86436D01*
X-23064Y86818D01*
X-22273Y87425D01*
X-21666Y88216D01*
X-21284Y89138D01*
X-21154Y90126D01*
X-21284Y91115D01*
X-21666Y92036D01*
X-22273Y92828D01*
X-23064Y93435D01*
X-23985Y93816D01*
X-24974Y93946D01*
D02*
G37*
G36*
X-34963D02*
X-35952Y93816D01*
X-36873Y93435D01*
X-37664Y92828D01*
X-38271Y92036D01*
X-38653Y91115D01*
X-38783Y90126D01*
X-38653Y89138D01*
X-38271Y88216D01*
X-37664Y87425D01*
X-36873Y86818D01*
X-35952Y86436D01*
X-34963Y86306D01*
X-33974Y86436D01*
X-33053Y86818D01*
X-32262Y87425D01*
X-31655Y88216D01*
X-31273Y89138D01*
X-31143Y90126D01*
X-31273Y91115D01*
X-31655Y92036D01*
X-32262Y92828D01*
X-33053Y93435D01*
X-33974Y93816D01*
X-34963Y93946D01*
D02*
G37*
G36*
X34963D02*
X33974Y93816D01*
X33053Y93435D01*
X32262Y92828D01*
X31655Y92036D01*
X31273Y91115D01*
X31143Y90126D01*
X31273Y89138D01*
X31521Y88540D01*
X30072Y87091D01*
X29787Y86665D01*
X29687Y86163D01*
Y82044D01*
X28956Y81313D01*
X22500D01*
X21998Y81213D01*
X21572Y80928D01*
X16832Y76188D01*
X16547Y75762D01*
X16447Y75260D01*
Y73169D01*
X15791D01*
Y67658D01*
X19728D01*
Y73169D01*
X19072D01*
Y74716D01*
X23044Y78687D01*
X29500D01*
X30002Y78787D01*
X30428Y79072D01*
X31928Y80572D01*
X32213Y80998D01*
X32313Y81500D01*
Y85619D01*
X33377Y86684D01*
X33974Y86436D01*
X34963Y86306D01*
X35952Y86436D01*
X36873Y86818D01*
X37664Y87425D01*
X38271Y88216D01*
X38653Y89138D01*
X38783Y90126D01*
X38653Y91115D01*
X38271Y92036D01*
X37664Y92828D01*
X36873Y93435D01*
X35952Y93816D01*
X34963Y93946D01*
D02*
G37*
G36*
X70000Y93921D02*
Y90500D01*
X73421D01*
X73351Y91032D01*
X72953Y91993D01*
X72319Y92819D01*
X71493Y93453D01*
X70532Y93851D01*
X70000Y93921D01*
D02*
G37*
G36*
X69000D02*
X68468Y93851D01*
X67507Y93453D01*
X66681Y92819D01*
X66047Y91993D01*
X65649Y91032D01*
X65579Y90500D01*
X69000D01*
Y93921D01*
D02*
G37*
G36*
X-44500Y94000D02*
Y90579D01*
X-41079D01*
X-41149Y91111D01*
X-41547Y92073D01*
X-42181Y92898D01*
X-43007Y93532D01*
X-43968Y93930D01*
X-44500Y94000D01*
D02*
G37*
G36*
X-45500D02*
X-46032Y93930D01*
X-46993Y93532D01*
X-47819Y92898D01*
X-48453Y92073D01*
X-48851Y91111D01*
X-48921Y90579D01*
X-45500D01*
Y94000D01*
D02*
G37*
G36*
X63453Y93953D02*
X60000D01*
Y90500D01*
X63453D01*
Y93953D01*
D02*
G37*
G36*
X81644Y93287D02*
X78356D01*
X76713Y91644D01*
Y88356D01*
X78356Y86713D01*
X81644D01*
X83287Y88356D01*
Y91644D01*
X81644Y93287D01*
D02*
G37*
G36*
X44953Y93946D02*
X43964Y93816D01*
X43043Y93435D01*
X42252Y92828D01*
X41644Y92036D01*
X41263Y91115D01*
X41133Y90126D01*
X41263Y89138D01*
X41510Y88540D01*
X38332Y85362D01*
X38047Y84936D01*
X37947Y84434D01*
Y73169D01*
X37291D01*
Y67658D01*
X41228D01*
Y73169D01*
X40573D01*
Y83890D01*
X43367Y86684D01*
X43964Y86436D01*
X44953Y86306D01*
X45941Y86436D01*
X46863Y86818D01*
X47654Y87425D01*
X48261Y88216D01*
X48643Y89138D01*
X48773Y90126D01*
X48643Y91115D01*
X48261Y92036D01*
X47654Y92828D01*
X46863Y93435D01*
X45941Y93816D01*
X44953Y93946D01*
D02*
G37*
G36*
X59000Y93953D02*
X55547D01*
Y90500D01*
X59000D01*
Y93953D01*
D02*
G37*
G36*
X89144Y93287D02*
X85856D01*
X84213Y91644D01*
Y88356D01*
X85856Y86713D01*
X89144D01*
X90787Y88356D01*
Y91644D01*
X89144Y93287D01*
D02*
G37*
G36*
X24740Y73382D02*
X23059D01*
Y70913D01*
X24740D01*
Y73382D01*
D02*
G37*
G36*
X48921Y69913D02*
X47240D01*
Y67445D01*
X48921D01*
Y69913D01*
D02*
G37*
G36*
X27421Y73382D02*
X25740D01*
Y70913D01*
X27421D01*
Y73382D01*
D02*
G37*
G36*
X46240D02*
X44559D01*
Y70913D01*
X46240D01*
Y73382D01*
D02*
G37*
G36*
Y69913D02*
X44559D01*
Y67445D01*
X46240D01*
Y69913D01*
D02*
G37*
G36*
X44969Y62343D02*
X41032D01*
Y61409D01*
X31087D01*
X30389Y61270D01*
X29798Y60875D01*
X29798Y60875D01*
X24211Y55289D01*
X23816Y54697D01*
X23322Y54777D01*
Y56831D01*
X23469D01*
Y62343D01*
X19532D01*
Y56831D01*
X19678D01*
Y-4245D01*
X10745Y-13178D01*
X-4255D01*
X-4655Y-12655D01*
X-5342Y-12128D01*
X-6142Y-11797D01*
X-7000Y-11684D01*
X-7858Y-11797D01*
X-8658Y-12128D01*
X-9345Y-12655D01*
X-9871Y-13342D01*
X-10203Y-14142D01*
X-10316Y-15000D01*
X-10203Y-15858D01*
X-9871Y-16658D01*
X-9345Y-17345D01*
X-8658Y-17872D01*
X-8398Y-17979D01*
Y-18521D01*
X-8658Y-18629D01*
X-9345Y-19155D01*
X-9871Y-19842D01*
X-10203Y-20642D01*
X-10316Y-21500D01*
X-10203Y-22358D01*
X-9871Y-23158D01*
X-9345Y-23845D01*
X-8658Y-24372D01*
X-7858Y-24703D01*
X-7000Y-24816D01*
X-6142Y-24703D01*
X-5342Y-24372D01*
X-4655Y-23845D01*
X-4255Y-23322D01*
X11500D01*
X11500Y-23322D01*
X12197Y-23184D01*
X12789Y-22789D01*
X26789Y-8789D01*
X27184Y-8197D01*
X27322Y-7500D01*
X27322Y-7500D01*
Y53245D01*
X31841Y57764D01*
X41032D01*
Y56831D01*
X44969D01*
Y62343D01*
D02*
G37*
G36*
X-137500Y92500D02*
X-160000D01*
Y38500D01*
X-137500D01*
Y92500D01*
D02*
G37*
G36*
X27421Y69913D02*
X25740D01*
Y67445D01*
X27421D01*
Y69913D01*
D02*
G37*
G36*
X24740D02*
X23059D01*
Y67445D01*
X24740D01*
Y69913D01*
D02*
G37*
G36*
X48921Y73382D02*
X47240D01*
Y70913D01*
X48921D01*
Y73382D01*
D02*
G37*
G36*
X63453Y89500D02*
X60000D01*
Y86047D01*
X63453D01*
Y89500D01*
D02*
G37*
G36*
X59000D02*
X55547D01*
Y86047D01*
X59000D01*
Y89500D01*
D02*
G37*
G36*
X73421D02*
X70000D01*
Y86079D01*
X70532Y86149D01*
X71493Y86547D01*
X72319Y87181D01*
X72953Y88007D01*
X73351Y88968D01*
X73421Y89500D01*
D02*
G37*
G36*
X69000D02*
X65579D01*
X65649Y88968D01*
X66047Y88007D01*
X66681Y87181D01*
X67507Y86547D01*
X68468Y86149D01*
X69000Y86079D01*
Y89500D01*
D02*
G37*
G36*
X-108547Y87964D02*
Y85000D01*
X-105583D01*
X-105637Y85414D01*
X-105990Y86265D01*
X-106551Y86996D01*
X-107282Y87557D01*
X-108134Y87910D01*
X-108547Y87964D01*
D02*
G37*
G36*
X-105536Y78000D02*
X-108500D01*
Y75036D01*
X-108086Y75090D01*
X-107235Y75443D01*
X-106504Y76004D01*
X-105943Y76735D01*
X-105590Y77586D01*
X-105536Y78000D01*
D02*
G37*
G36*
X-109500D02*
X-112464D01*
X-112410Y77586D01*
X-112057Y76735D01*
X-111496Y76004D01*
X-110765Y75443D01*
X-109914Y75090D01*
X-109500Y75036D01*
Y78000D01*
D02*
G37*
G36*
X-109547Y87964D02*
X-109961Y87910D01*
X-110812Y87557D01*
X-111544Y86996D01*
X-112104Y86265D01*
X-112457Y85414D01*
X-112512Y85000D01*
X-109547D01*
Y87964D01*
D02*
G37*
G36*
X-105583Y84000D02*
X-112512D01*
X-112457Y83586D01*
X-112104Y82735D01*
X-111544Y82004D01*
X-111189Y81732D01*
Y81232D01*
X-111496Y80996D01*
X-112057Y80265D01*
X-112410Y79414D01*
X-112464Y79000D01*
X-105536D01*
X-105590Y79414D01*
X-105943Y80265D01*
X-106504Y80996D01*
X-106858Y81268D01*
Y81768D01*
X-106551Y82004D01*
X-105990Y82735D01*
X-105637Y83586D01*
X-105583Y84000D01*
D02*
G37*
%LPD*%
D10*
X45000Y-90124D02*
Y-83000D01*
X41000Y-79000D02*
X45000Y-83000D01*
X41000Y-79000D02*
Y-70500D01*
X39260Y84434D02*
X44953Y90126D01*
X17760Y70413D02*
Y75260D01*
X22500Y80000D02*
X29500D01*
X31000Y81500D01*
Y86163D01*
X34963Y90126D01*
X17760Y75260D02*
X22500Y80000D01*
X39260Y70413D02*
Y84434D01*
D19*
X-7000Y-15000D02*
X11500D01*
X21500Y-5000D01*
Y59587D01*
X-7000Y-21500D02*
X11500D01*
X25500Y-7500D01*
Y54000D01*
X31087Y59587D01*
X43000D01*
X37260Y-59673D02*
Y-33760D01*
X30500Y-27000D02*
X37260Y-33760D01*
X13000Y-27000D02*
X30500D01*
D20*
X-15000Y-90124D02*
Y-85500D01*
X-25000Y-75500D02*
X-15000Y-85500D01*
X-54500Y-75500D02*
X-25000D01*
X-114953Y-15047D02*
X-54500Y-75500D01*
X-114953Y-15047D02*
Y31047D01*
X-35624Y-79500D02*
X-25000Y-90124D01*
X-58500Y-79500D02*
X-35624D01*
X-126764Y-11236D02*
X-58500Y-79500D01*
X-126764Y-11236D02*
Y31236D01*
X-61376Y-90124D02*
X-45000D01*
X-137500Y-14000D02*
X-61376Y-90124D01*
X-137500Y-14000D02*
Y32500D01*
X-133000Y37000D01*
X-96500D01*
X-91500Y42000D01*
Y82000D01*
D23*
X70000Y-90000D02*
D03*
X-25000Y-90124D02*
D03*
X45000D02*
D03*
X35000D02*
D03*
X25000D02*
D03*
X15000D02*
D03*
X5000D02*
D03*
X-5000D02*
D03*
X-15000D02*
D03*
X-35000D02*
D03*
X-45000Y90079D02*
D03*
X69500Y90000D02*
D03*
D24*
X60000Y-90000D02*
D03*
X-45000Y-90124D02*
D03*
X59500Y90000D02*
D03*
D25*
X-34963Y90126D02*
D03*
X-24974D02*
D03*
X-14984D02*
D03*
X-4995D02*
D03*
X4995D02*
D03*
X14984D02*
D03*
X24974D02*
D03*
X34963D02*
D03*
X44953D02*
D03*
D26*
X87500Y90000D02*
D03*
X80000D02*
D03*
X82500Y-90500D02*
D03*
D27*
X-87500Y-74000D02*
D03*
Y-80000D02*
D03*
Y-86000D02*
D03*
Y-92000D02*
D03*
X-126764Y31236D02*
D03*
X-114953Y31047D02*
D03*
X-91331Y82169D02*
D03*
X-7000Y-21500D02*
D03*
Y-15000D02*
D03*
X13000Y-27000D02*
D03*
X-109047Y84500D02*
D03*
X-109000Y78500D02*
D03*
X-106500Y1000D02*
D03*
X-100000D02*
D03*
X-93500D02*
D03*
D28*
X37260Y-59673D02*
D03*
X33520Y-70500D02*
D03*
X41000D02*
D03*
X43000Y59587D02*
D03*
X46740Y70413D02*
D03*
X39260D02*
D03*
X21500Y59587D02*
D03*
X25240Y70413D02*
D03*
X17760D02*
D03*
M02*
