G04 Layer_Color=32768*
%FSLAX25Y25*%
%MOIN*%
G70*
G01*
G75*
%ADD10C,0.01000*%
%ADD44C,0.00394*%
%ADD45C,0.00197*%
D10*
X-36645Y37487D02*
X-25228Y17712D01*
X-14142Y50479D02*
X-2725Y30704D01*
X-36645Y37487D02*
X-14142Y50479D01*
X-25228Y17712D02*
X-2725Y30704D01*
X20441Y61390D02*
X31859Y81165D01*
X42944Y48398D02*
X54362Y68173D01*
X31859Y81165D02*
X54362Y68173D01*
X20441Y61390D02*
X42944Y48398D01*
X-63386Y-12992D02*
Y12992D01*
X-86221Y-12992D02*
Y12992D01*
X-63386D01*
X-86221Y-12992D02*
X-63386D01*
X42944Y-48398D02*
X54362Y-68173D01*
X20441Y-61390D02*
X31859Y-81165D01*
X54362Y-68173D01*
X20441Y-61390D02*
X42944Y-48398D01*
X63386Y12992D02*
X86221D01*
X63386Y-12992D02*
X86221D01*
Y12992D01*
X63386Y-12992D02*
Y12992D01*
X27953Y12992D02*
X50787Y12992D01*
X27953Y-12992D02*
X50787Y-12992D01*
X50787Y12992D02*
X50787Y-12992D01*
X27953Y12992D02*
X27953Y-12992D01*
X12992Y-11417D02*
Y11417D01*
X-12992Y-11417D02*
Y11417D01*
Y-11417D02*
X12992D01*
X-12992Y11417D02*
X12992D01*
X-54362Y-68173D02*
X-42944Y-48398D01*
X-31859Y-81165D02*
X-20441Y-61390D01*
X-42944Y-48398D02*
X-20441Y-61390D01*
X-54362Y-68173D02*
X-31859Y-81165D01*
X-14142Y-50479D02*
X-2725Y-30704D01*
X-36645Y-37487D02*
X-25228Y-17712D01*
X-36645Y-37487D02*
X-14142Y-50479D01*
X-25228Y-17712D02*
X-2725Y-30704D01*
X-42944Y48398D02*
X-20441Y61390D01*
X-54362Y68173D02*
X-31859Y81165D01*
X-20441Y61390D01*
X-54362Y68173D02*
X-42944Y48398D01*
D44*
X32213Y-37136D02*
X33787Y-39864D01*
X31636Y-39287D02*
X34364Y-37713D01*
X24713Y-41636D02*
X26287Y-44364D01*
X24136Y-43787D02*
X26864Y-42213D01*
X17213Y-46136D02*
X18787Y-48864D01*
X16636Y-48287D02*
X19364Y-46713D01*
X-23575Y7500D02*
X-20425D01*
X-22000Y5925D02*
Y9075D01*
X-23575Y0D02*
X-20425D01*
X-22000Y-1575D02*
Y1575D01*
X-23575Y-7500D02*
X-20425D01*
X-22000Y-9075D02*
Y-5925D01*
X35291Y-65087D02*
X39228D01*
X37260Y-67055D02*
Y-63118D01*
X41032Y65000D02*
X44969D01*
X43000Y63032D02*
Y66969D01*
X19532Y65000D02*
X23469D01*
X21500Y63032D02*
Y66969D01*
D45*
X33389Y-43504D02*
X37139Y-41338D01*
X28861Y-35662D02*
X32612Y-33496D01*
X28861Y-35662D02*
X33389Y-43504D01*
X32612Y-33496D02*
X37139Y-41338D01*
X25888Y-48004D02*
X29639Y-45838D01*
X21361Y-40162D02*
X25111Y-37996D01*
X21361Y-40162D02*
X25888Y-48004D01*
X25111Y-37996D02*
X29639Y-45838D01*
X18388Y-52504D02*
X22139Y-50338D01*
X13861Y-44662D02*
X17612Y-42496D01*
X13861Y-44662D02*
X18388Y-52504D01*
X17612Y-42496D02*
X22139Y-50338D01*
X-17472Y5335D02*
Y9665D01*
X-26528Y5335D02*
Y9665D01*
Y5335D02*
X-17472D01*
X-26528Y9665D02*
X-17472D01*
Y-2165D02*
Y2165D01*
X-26528Y-2165D02*
Y2165D01*
Y-2165D02*
X-17472D01*
X-26528Y2165D02*
X-17472D01*
Y-9665D02*
Y-5335D01*
X-26528Y-9665D02*
Y-5335D01*
Y-9665D02*
X-17472D01*
X-26528Y-5335D02*
X-17472D01*
X30173Y-73354D02*
Y-56819D01*
X44346Y-73354D02*
Y-56819D01*
X30173D02*
X44346D01*
X30173Y-73354D02*
X44346D01*
X50087Y56732D02*
Y73268D01*
X35913Y56732D02*
Y73268D01*
Y56732D02*
X50087D01*
X35913Y73268D02*
X50087D01*
X28587Y56732D02*
Y73268D01*
X14413Y56732D02*
Y73268D01*
Y56732D02*
X28587D01*
X14413Y73268D02*
X28587D01*
M02*
