G04 Layer_Color=16711935*
%FSLAX25Y25*%
%MOIN*%
G70*
G01*
G75*
%ADD10C,0.01000*%
%ADD44C,0.00394*%
D10*
X-33130Y37698D02*
X-23288Y20650D01*
X-16082Y47541D02*
X-6240Y30493D01*
X-33130Y37698D02*
X-16082Y47541D01*
X-23288Y20650D02*
X-6240Y30493D01*
X23956Y61179D02*
X33799Y78227D01*
X41004Y51336D02*
X50847Y68384D01*
X33799Y78227D02*
X50847Y68384D01*
X23956Y61179D02*
X41004Y51336D01*
X-64961Y-9843D02*
Y9843D01*
X-84646Y-9843D02*
Y9843D01*
X-64961D01*
X-84646Y-9843D02*
X-64961D01*
X41004Y-51336D02*
X50847Y-68384D01*
X23956Y-61179D02*
X33799Y-78227D01*
X50847Y-68384D01*
X23956Y-61179D02*
X41004Y-51336D01*
X64961Y9843D02*
X84646D01*
X64961Y-9843D02*
X84646D01*
Y9843D01*
X64961Y-9843D02*
Y9843D01*
X29528D02*
X49213D01*
X29528Y-9843D02*
X49213D01*
Y9843D01*
X29528Y-9843D02*
Y9843D01*
X9843Y-9843D02*
Y9843D01*
X-9843Y-9843D02*
Y9843D01*
Y-9843D02*
X9843D01*
X-9843Y9843D02*
X9843D01*
X-50847Y-68384D02*
X-41004Y-51336D01*
X-33799Y-78227D02*
X-23956Y-61179D01*
X-41004Y-51336D02*
X-23956Y-61179D01*
X-50847Y-68384D02*
X-33799Y-78227D01*
X-16082Y-47541D02*
X-6240Y-30493D01*
X-33130Y-37698D02*
X-23288Y-20650D01*
X-33130Y-37698D02*
X-16082Y-47541D01*
X-23288Y-20650D02*
X-6240Y-30493D01*
X-41004Y51336D02*
X-23956Y61179D01*
X-50847Y68384D02*
X-33799Y78227D01*
X-23956Y61179D01*
X-50847Y68384D02*
X-41004Y51336D01*
D44*
X33211Y-42015D02*
X35939Y-40440D01*
X30061Y-36560D02*
X32789Y-34985D01*
X30061Y-36560D02*
X33211Y-42015D01*
X32789Y-34985D02*
X35939Y-40440D01*
X25711Y-46515D02*
X28439Y-44940D01*
X22561Y-41060D02*
X25289Y-39485D01*
X22561Y-41060D02*
X25711Y-46515D01*
X25289Y-39485D02*
X28439Y-44940D01*
X18211Y-51015D02*
X20939Y-49440D01*
X15061Y-45560D02*
X17789Y-43985D01*
X15061Y-45560D02*
X18211Y-51015D01*
X17789Y-43985D02*
X20939Y-49440D01*
X-18850Y5925D02*
Y9075D01*
X-25150Y5925D02*
Y9075D01*
Y5925D02*
X-18850D01*
X-25150Y9075D02*
X-18850D01*
Y-1575D02*
Y1575D01*
X-25150Y-1575D02*
Y1575D01*
Y-1575D02*
X-18850D01*
X-25150Y1575D02*
X-18850D01*
Y-9075D02*
Y-5925D01*
X-25150Y-9075D02*
Y-5925D01*
Y-9075D02*
X-18850D01*
X-25150Y-5925D02*
X-18850D01*
X31256Y-68532D02*
Y-61642D01*
X43264Y-68532D02*
Y-61642D01*
X31256D02*
X43264D01*
X31256Y-68532D02*
X43264D01*
X49004Y61555D02*
Y68445D01*
X36996Y61555D02*
Y68445D01*
Y61555D02*
X49004D01*
X36996Y68445D02*
X49004D01*
X27504Y61555D02*
Y68445D01*
X15496Y61555D02*
Y68445D01*
Y61555D02*
X27504D01*
X15496Y68445D02*
X27504D01*
M02*
