G04 Layer_Color=8421504*
%FSLAX25Y25*%
%MOIN*%
G70*
G01*
G75*
%ADD11R,0.11811X0.23622*%
%ADD12O,0.03937X0.07874*%
G04:AMPARAMS|DCode=13|XSize=78.74mil|YSize=39.37mil|CornerRadius=0mil|HoleSize=0mil|Usage=FLASHONLY|Rotation=30.000|XOffset=0mil|YOffset=0mil|HoleType=Round|Shape=Rectangle|*
%AMROTATEDRECTD13*
4,1,4,-0.02425,-0.03673,-0.04394,-0.00264,0.02425,0.03673,0.04394,0.00264,-0.02425,-0.03673,0.0*
%
%ADD13ROTATEDRECTD13*%

G04:AMPARAMS|DCode=14|XSize=78.74mil|YSize=39.37mil|CornerRadius=0mil|HoleSize=0mil|Usage=FLASHONLY|Rotation=330.000|XOffset=0mil|YOffset=0mil|HoleType=Round|Shape=Rectangle|*
%AMROTATEDRECTD14*
4,1,4,-0.04394,0.00264,-0.02425,0.03673,0.04394,-0.00264,0.02425,-0.03673,-0.04394,0.00264,0.0*
%
%ADD14ROTATEDRECTD14*%

%ADD15R,0.03937X0.07874*%
G04:AMPARAMS|DCode=16|XSize=33.47mil|YSize=23.62mil|CornerRadius=0mil|HoleSize=0mil|Usage=FLASHONLY|Rotation=210.000|XOffset=0mil|YOffset=0mil|HoleType=Round|Shape=Rectangle|*
%AMROTATEDRECTD16*
4,1,4,0.00859,0.01860,0.02040,-0.00186,-0.00859,-0.01860,-0.02040,0.00186,0.00859,0.01860,0.0*
%
%ADD16ROTATEDRECTD16*%

%ADD17R,0.02362X0.03347*%
%ADD18R,0.07874X0.03937*%
D11*
X-153559Y-82705D02*
D03*
X-98441D02*
D03*
Y19658D02*
D03*
X-153559D02*
D03*
D12*
X-132669Y92076D02*
D03*
X-126764D02*
D03*
X-120858D02*
D03*
X-114953D02*
D03*
X-109047D02*
D03*
X-103142D02*
D03*
X-97236D02*
D03*
X-91331D02*
D03*
Y38876D02*
D03*
X-97236D02*
D03*
X-103142D02*
D03*
X-109047D02*
D03*
X-114953D02*
D03*
X-120858D02*
D03*
X-126764D02*
D03*
X-132669D02*
D03*
D13*
X-16311Y43999D02*
D03*
X-12866Y38032D02*
D03*
X-9421Y32066D02*
D03*
X-23059Y24192D02*
D03*
X-26504Y30158D02*
D03*
X-29949Y36125D02*
D03*
X34027Y-74685D02*
D03*
X30582Y-68718D02*
D03*
X27138Y-62752D02*
D03*
X40776Y-54878D02*
D03*
X44221Y-60844D02*
D03*
X47666Y-66811D02*
D03*
X-47666Y66811D02*
D03*
X-44221Y60844D02*
D03*
X-40776Y54878D02*
D03*
X-27138Y62752D02*
D03*
X-30582Y68718D02*
D03*
X-34027Y74685D02*
D03*
D14*
X47666Y66811D02*
D03*
X44221Y60844D02*
D03*
X40776Y54878D02*
D03*
X27138Y62752D02*
D03*
X30582Y68718D02*
D03*
X34027Y74685D02*
D03*
X-27138Y-62752D02*
D03*
X-30582Y-68718D02*
D03*
X-34027Y-74685D02*
D03*
X-47666Y-66811D02*
D03*
X-44221Y-60844D02*
D03*
X-40776Y-54878D02*
D03*
X-29949Y-36125D02*
D03*
X-26504Y-30158D02*
D03*
X-23059Y-24192D02*
D03*
X-9421Y-32066D02*
D03*
X-12866Y-38032D02*
D03*
X-16311Y-43999D02*
D03*
D15*
X-81693Y-7874D02*
D03*
X-74803D02*
D03*
X-67913D02*
D03*
Y7874D02*
D03*
X-74803D02*
D03*
X-81693D02*
D03*
X81693Y-7874D02*
D03*
X74803D02*
D03*
X67913D02*
D03*
Y7874D02*
D03*
X74803D02*
D03*
X81693D02*
D03*
X46260Y-7874D02*
D03*
X39370D02*
D03*
X32480D02*
D03*
Y7874D02*
D03*
X39370D02*
D03*
X46260D02*
D03*
D16*
X34476Y-41057D02*
D03*
X31524Y-35943D02*
D03*
X26976Y-45557D02*
D03*
X24024Y-40443D02*
D03*
X19476Y-50057D02*
D03*
X16524Y-44943D02*
D03*
D17*
X-19047Y7500D02*
D03*
X-24953D02*
D03*
X-19047Y0D02*
D03*
X-24953D02*
D03*
X-19047Y-7500D02*
D03*
X-24953D02*
D03*
D18*
X-7874Y-6890D02*
D03*
Y0D02*
D03*
Y6890D02*
D03*
X7874D02*
D03*
Y0D02*
D03*
Y-6890D02*
D03*
M02*
